{
  "notes": [
    {
      "endTime": 0.25,
      "pitch": 74,
      "startTime": 0.0,
      "velocity": 90.0
    },
    {
      "endTime": 0.5,
      "pitch": 74,
      "startTime": 0.25,
      "velocity": 90.0
    },
    {
      "endTime": 0.75,
      "pitch": 74,
      "startTime": 0.5,
      "velocity": 90.0
    },
    {
      "endTime": 2.75,
      "pitch": 55,
      "startTime": 0.75,
      "velocity": 90.0
    },
    {
      "endTime": 12.75,
      "pitch": 58,
      "startTime": 0.75,
      "velocity": 90.0
    },
    {
      "endTime": 12.75,
      "pitch": 62,
      "startTime": 0.75,
      "velocity": 90.0
    },
    {
      "endTime": 1.0,
      "pitch": 74,
      "startTime": 0.75,
      "velocity": 90.0
    },
    {
      "endTime": 2.75,
      "pitch": 74,
      "startTime": 1.0,
      "velocity": 90.0
    },
    {
      "endTime": 18.75,
      "pitch": 48,
      "startTime": 2.75,
      "velocity": 90.0
    },
    {
      "endTime": 66.75,
      "pitch": 51,
      "startTime": 2.75,
      "velocity": 90.0
    },
    {
      "endTime": 12.75,
      "pitch": 55,
      "startTime": 2.75,
      "velocity": 90.0
    },
    {
      "endTime": 3.25,
      "pitch": 72,
      "startTime": 3.0,
      "velocity": 90.0
    },
    {
      "endTime": 3.5,
      "pitch": 72,
      "startTime": 3.25,
      "velocity": 90.0
    },
    {
      "endTime": 3.75,
      "pitch": 73,
      "startTime": 3.5,
      "velocity": 90.0
    },
    {
      "endTime": 4.0,
      "pitch": 74,
      "startTime": 3.75,
      "velocity": 90.0
    },
    {
      "endTime": 4.75,
      "pitch": 70,
      "startTime": 4.0,
      "velocity": 90.0
    },
    {
      "endTime": 14.75,
      "pitch": 50,
      "startTime": 4.75,
      "velocity": 90.0
    },
    {
      "endTime": 14.75,
      "pitch": 54,
      "startTime": 4.75,
      "velocity": 90.0
    },
    {
      "endTime": 14.75,
      "pitch": 57,
      "startTime": 4.75,
      "velocity": 90.0
    },
    {
      "endTime": 15.75,
      "pitch": 60,
      "startTime": 4.75,
      "velocity": 90.0
    },
    {
      "endTime": 8.0,
      "pitch": 69,
      "startTime": 4.75,
      "velocity": 90.0
    },
    {
      "endTime": 8.25,
      "pitch": 72,
      "startTime": 8.0,
      "velocity": 90.0
    },
    {
      "endTime": 8.5,
      "pitch": 72,
      "startTime": 8.25,
      "velocity": 90.0
    },
    {
      "endTime": 8.75,
      "pitch": 72,
      "startTime": 8.5,
      "velocity": 90.0
    },
    {
      "endTime": 9.0,
      "pitch": 72,
      "startTime": 8.75,
      "velocity": 90.0
    },
    {
      "endTime": 10.75,
      "pitch": 72,
      "startTime": 9.0,
      "velocity": 90.0
    },
    {
      "endTime": 11.25,
      "pitch": 72,
      "startTime": 11.0,
      "velocity": 90.0
    },
    {
      "endTime": 11.5,
      "pitch": 72,
      "startTime": 11.25,
      "velocity": 90.0
    },
    {
      "endTime": 11.75,
      "pitch": 73,
      "startTime": 11.5,
      "velocity": 90.0
    },
    {
      "endTime": 12.0,
      "pitch": 74,
      "startTime": 11.75,
      "velocity": 90.0
    },
    {
      "endTime": 12.75,
      "pitch": 69,
      "startTime": 12.0,
      "velocity": 90.0
    },
    {
      "endTime": 13.75,
      "pitch": 55,
      "startTime": 12.75,
      "velocity": 90.0
    },
    {
      "endTime": 34.75,
      "pitch": 58,
      "startTime": 12.75,
      "velocity": 90.0
    },
    {
      "endTime": 20.75,
      "pitch": 62,
      "startTime": 12.75,
      "velocity": 90.0
    },
    {
      "endTime": 13.75,
      "pitch": 67,
      "startTime": 12.75,
      "velocity": 90.0
    },
    {
      "endTime": 68.0,
      "pitch": 49,
      "startTime": 13.75,
      "velocity": 90.0
    },
    {
      "endTime": 18.75,
      "pitch": 52,
      "startTime": 13.75,
      "velocity": 90.0
    },
    {
      "endTime": 18.75,
      "pitch": 55,
      "startTime": 13.75,
      "velocity": 90.0
    },
    {
      "endTime": 14.75,
      "pitch": 69,
      "startTime": 13.75,
      "velocity": 90.0
    },
    {
      "endTime": 15.75,
      "pitch": 50,
      "startTime": 14.75,
      "velocity": 90.0
    },
    {
      "endTime": 15.75,
      "pitch": 54,
      "startTime": 14.75,
      "velocity": 90.0
    },
    {
      "endTime": 15.75,
      "pitch": 57,
      "startTime": 14.75,
      "velocity": 90.0
    },
    {
      "endTime": 15.75,
      "pitch": 74,
      "startTime": 14.75,
      "velocity": 90.0
    },
    {
      "endTime": 16.75,
      "pitch": 50,
      "startTime": 15.75,
      "velocity": 90.0
    },
    {
      "endTime": 32.75,
      "pitch": 54,
      "startTime": 15.75,
      "velocity": 90.0
    },
    {
      "endTime": 32.75,
      "pitch": 57,
      "startTime": 15.75,
      "velocity": 90.0
    },
    {
      "endTime": 32.75,
      "pitch": 60,
      "startTime": 15.75,
      "velocity": 90.0
    },
    {
      "endTime": 16.75,
      "pitch": 72,
      "startTime": 15.75,
      "velocity": 90.0
    },
    {
      "endTime": 22.75,
      "pitch": 43,
      "startTime": 16.75,
      "velocity": 90.0
    },
    {
      "endTime": 22.75,
      "pitch": 47,
      "startTime": 16.75,
      "velocity": 90.0
    },
    {
      "endTime": 22.75,
      "pitch": 50,
      "startTime": 16.75,
      "velocity": 90.0
    },
    {
      "endTime": 22.75,
      "pitch": 53,
      "startTime": 16.75,
      "velocity": 90.0
    },
    {
      "endTime": 17.0,
      "pitch": 71,
      "startTime": 16.75,
      "velocity": 90.0
    },
    {
      "endTime": 17.25,
      "pitch": 74,
      "startTime": 17.0,
      "velocity": 90.0
    },
    {
      "endTime": 17.5,
      "pitch": 71,
      "startTime": 17.25,
      "velocity": 90.0
    },
    {
      "endTime": 18.75,
      "pitch": 67,
      "startTime": 17.5,
      "velocity": 90.0
    },
    {
      "endTime": 24.75,
      "pitch": 48,
      "startTime": 18.75,
      "velocity": 90.0
    },
    {
      "endTime": 24.75,
      "pitch": 52,
      "startTime": 18.75,
      "velocity": 90.0
    },
    {
      "endTime": 20.75,
      "pitch": 55,
      "startTime": 18.75,
      "velocity": 90.0
    },
    {
      "endTime": 19.25,
      "pitch": 63,
      "startTime": 19.0,
      "velocity": 90.0
    },
    {
      "endTime": 19.5,
      "pitch": 64,
      "startTime": 19.25,
      "velocity": 90.0
    },
    {
      "endTime": 19.75,
      "pitch": 67,
      "startTime": 19.5,
      "velocity": 90.0
    },
    {
      "endTime": 20.5,
      "pitch": 70,
      "startTime": 19.75,
      "velocity": 90.0
    },
    {
      "endTime": 20.75,
      "pitch": 69,
      "startTime": 20.5,
      "velocity": 90.0
    },
    {
      "endTime": 24.75,
      "pitch": 55,
      "startTime": 20.75,
      "velocity": 90.0
    },
    {
      "endTime": 28.75,
      "pitch": 59,
      "startTime": 20.75,
      "velocity": 90.0
    },
    {
      "endTime": 28.75,
      "pitch": 62,
      "startTime": 20.75,
      "velocity": 90.0
    },
    {
      "endTime": 24.25,
      "pitch": 67,
      "startTime": 20.75,
      "velocity": 90.0
    },
    {
      "endTime": 40.75,
      "pitch": 43,
      "startTime": 22.75,
      "velocity": 90.0
    },
    {
      "endTime": 40.75,
      "pitch": 47,
      "startTime": 22.75,
      "velocity": 90.0
    },
    {
      "endTime": 32.75,
      "pitch": 50,
      "startTime": 22.75,
      "velocity": 90.0
    },
    {
      "endTime": 40.75,
      "pitch": 53,
      "startTime": 22.75,
      "velocity": 90.0
    },
    {
      "endTime": 42.75,
      "pitch": 48,
      "startTime": 24.75,
      "velocity": 90.0
    },
    {
      "endTime": 42.75,
      "pitch": 52,
      "startTime": 24.75,
      "velocity": 90.0
    },
    {
      "endTime": 28.75,
      "pitch": 55,
      "startTime": 24.75,
      "velocity": 90.0
    },
    {
      "endTime": 25.25,
      "pitch": 64,
      "startTime": 25.0,
      "velocity": 90.0
    },
    {
      "endTime": 25.5,
      "pitch": 67,
      "startTime": 25.25,
      "velocity": 90.0
    },
    {
      "endTime": 26.75,
      "pitch": 69,
      "startTime": 25.5,
      "velocity": 90.0
    },
    {
      "endTime": 27.25,
      "pitch": 64,
      "startTime": 27.0,
      "velocity": 90.0
    },
    {
      "endTime": 27.5,
      "pitch": 67,
      "startTime": 27.25,
      "velocity": 90.0
    },
    {
      "endTime": 27.75,
      "pitch": 69,
      "startTime": 27.5,
      "velocity": 90.0
    },
    {
      "endTime": 28.5,
      "pitch": 70,
      "startTime": 27.75,
      "velocity": 90.0
    },
    {
      "endTime": 28.75,
      "pitch": 69,
      "startTime": 28.5,
      "velocity": 90.0
    },
    {
      "endTime": 36.75,
      "pitch": 55,
      "startTime": 28.75,
      "velocity": 90.0
    },
    {
      "endTime": 36.75,
      "pitch": 59,
      "startTime": 28.75,
      "velocity": 90.0
    },
    {
      "endTime": 34.75,
      "pitch": 62,
      "startTime": 28.75,
      "velocity": 90.0
    },
    {
      "endTime": 31.75,
      "pitch": 67,
      "startTime": 28.75,
      "velocity": 90.0
    },
    {
      "endTime": 34.75,
      "pitch": 50,
      "startTime": 32.75,
      "velocity": 90.0
    },
    {
      "endTime": 34.75,
      "pitch": 54,
      "startTime": 32.75,
      "velocity": 90.0
    },
    {
      "endTime": 56.75,
      "pitch": 57,
      "startTime": 32.75,
      "velocity": 90.0
    },
    {
      "endTime": 34.75,
      "pitch": 60,
      "startTime": 32.75,
      "velocity": 90.0
    },
    {
      "endTime": 33.0,
      "pitch": 66,
      "startTime": 32.75,
      "velocity": 90.0
    },
    {
      "endTime": 33.25,
      "pitch": 69,
      "startTime": 33.0,
      "velocity": 90.0
    },
    {
      "endTime": 33.5,
      "pitch": 66,
      "startTime": 33.25,
      "velocity": 90.0
    },
    {
      "endTime": 34.75,
      "pitch": 62,
      "startTime": 33.5,
      "velocity": 90.0
    },
    {
      "endTime": 40.75,
      "pitch": 50,
      "startTime": 34.75,
      "velocity": 90.0
    },
    {
      "endTime": 56.75,
      "pitch": 54,
      "startTime": 34.75,
      "velocity": 90.0
    },
    {
      "endTime": 58.75,
      "pitch": 58,
      "startTime": 34.75,
      "velocity": 90.0
    },
    {
      "endTime": 56.75,
      "pitch": 60,
      "startTime": 34.75,
      "velocity": 90.0
    },
    {
      "endTime": 35.5,
      "pitch": 70,
      "startTime": 35.25,
      "velocity": 90.0
    },
    {
      "endTime": 35.75,
      "pitch": 70,
      "startTime": 35.5,
      "velocity": 90.0
    },
    {
      "endTime": 36.5,
      "pitch": 70,
      "startTime": 35.75,
      "velocity": 90.0
    },
    {
      "endTime": 36.75,
      "pitch": 69,
      "startTime": 36.5,
      "velocity": 90.0
    },
    {
      "endTime": 42.75,
      "pitch": 55,
      "startTime": 36.75,
      "velocity": 90.0
    },
    {
      "endTime": 44.75,
      "pitch": 59,
      "startTime": 36.75,
      "velocity": 90.0
    },
    {
      "endTime": 44.75,
      "pitch": 62,
      "startTime": 36.75,
      "velocity": 90.0
    },
    {
      "endTime": 39.75,
      "pitch": 67,
      "startTime": 36.75,
      "velocity": 90.0
    },
    {
      "endTime": 46.75,
      "pitch": 43,
      "startTime": 40.75,
      "velocity": 90.0
    },
    {
      "endTime": 46.75,
      "pitch": 47,
      "startTime": 40.75,
      "velocity": 90.0
    },
    {
      "endTime": 46.75,
      "pitch": 50,
      "startTime": 40.75,
      "velocity": 90.0
    },
    {
      "endTime": 46.75,
      "pitch": 53,
      "startTime": 40.75,
      "velocity": 90.0
    },
    {
      "endTime": 41.0,
      "pitch": 71,
      "startTime": 40.75,
      "velocity": 90.0
    },
    {
      "endTime": 41.25,
      "pitch": 74,
      "startTime": 41.0,
      "velocity": 90.0
    },
    {
      "endTime": 41.5,
      "pitch": 71,
      "startTime": 41.25,
      "velocity": 90.0
    },
    {
      "endTime": 42.0,
      "pitch": 67,
      "startTime": 41.5,
      "velocity": 90.0
    },
    {
      "endTime": 42.75,
      "pitch": 67,
      "startTime": 42.0,
      "velocity": 90.0
    },
    {
      "endTime": 48.75,
      "pitch": 48,
      "startTime": 42.75,
      "velocity": 90.0
    },
    {
      "endTime": 48.75,
      "pitch": 52,
      "startTime": 42.75,
      "velocity": 90.0
    },
    {
      "endTime": 44.75,
      "pitch": 55,
      "startTime": 42.75,
      "velocity": 90.0
    },
    {
      "endTime": 43.25,
      "pitch": 63,
      "startTime": 43.0,
      "velocity": 90.0
    },
    {
      "endTime": 43.5,
      "pitch": 64,
      "startTime": 43.25,
      "velocity": 90.0
    },
    {
      "endTime": 43.75,
      "pitch": 67,
      "startTime": 43.5,
      "velocity": 90.0
    },
    {
      "endTime": 44.5,
      "pitch": 70,
      "startTime": 43.75,
      "velocity": 90.0
    },
    {
      "endTime": 44.75,
      "pitch": 69,
      "startTime": 44.5,
      "velocity": 90.0
    },
    {
      "endTime": 48.75,
      "pitch": 55,
      "startTime": 44.75,
      "velocity": 90.0
    },
    {
      "endTime": 52.75,
      "pitch": 59,
      "startTime": 44.75,
      "velocity": 90.0
    },
    {
      "endTime": 52.75,
      "pitch": 62,
      "startTime": 44.75,
      "velocity": 90.0
    },
    {
      "endTime": 47.25,
      "pitch": 67,
      "startTime": 44.75,
      "velocity": 90.0
    },
    {
      "endTime": 97.25,
      "pitch": 43,
      "startTime": 46.75,
      "velocity": 90.0
    },
    {
      "endTime": 97.25,
      "pitch": 47,
      "startTime": 46.75,
      "velocity": 90.0
    },
    {
      "endTime": 56.75,
      "pitch": 50,
      "startTime": 46.75,
      "velocity": 90.0
    },
    {
      "endTime": 120.75,
      "pitch": 53,
      "startTime": 46.75,
      "velocity": 90.0
    },
    {
      "endTime": 66.75,
      "pitch": 48,
      "startTime": 48.75,
      "velocity": 90.0
    },
    {
      "endTime": 68.0,
      "pitch": 52,
      "startTime": 48.75,
      "velocity": 90.0
    },
    {
      "endTime": 52.75,
      "pitch": 55,
      "startTime": 48.75,
      "velocity": 90.0
    },
    {
      "endTime": 49.25,
      "pitch": 64,
      "startTime": 49.0,
      "velocity": 90.0
    },
    {
      "endTime": 49.5,
      "pitch": 67,
      "startTime": 49.25,
      "velocity": 90.0
    },
    {
      "endTime": 50.0,
      "pitch": 69,
      "startTime": 49.5,
      "velocity": 90.0
    },
    {
      "endTime": 50.75,
      "pitch": 69,
      "startTime": 50.0,
      "velocity": 90.0
    },
    {
      "endTime": 51.25,
      "pitch": 63,
      "startTime": 51.0,
      "velocity": 90.0
    },
    {
      "endTime": 51.5,
      "pitch": 64,
      "startTime": 51.25,
      "velocity": 90.0
    },
    {
      "endTime": 51.75,
      "pitch": 67,
      "startTime": 51.5,
      "velocity": 90.0
    },
    {
      "endTime": 52.5,
      "pitch": 70,
      "startTime": 51.75,
      "velocity": 90.0
    },
    {
      "endTime": 52.75,
      "pitch": 69,
      "startTime": 52.5,
      "velocity": 90.0
    },
    {
      "endTime": 60.75,
      "pitch": 55,
      "startTime": 52.75,
      "velocity": 90.0
    },
    {
      "endTime": 60.75,
      "pitch": 59,
      "startTime": 52.75,
      "velocity": 90.0
    },
    {
      "endTime": 58.75,
      "pitch": 62,
      "startTime": 52.75,
      "velocity": 90.0
    },
    {
      "endTime": 55.75,
      "pitch": 67,
      "startTime": 52.75,
      "velocity": 90.0
    },
    {
      "endTime": 58.75,
      "pitch": 50,
      "startTime": 56.75,
      "velocity": 90.0
    },
    {
      "endTime": 58.75,
      "pitch": 54,
      "startTime": 56.75,
      "velocity": 90.0
    },
    {
      "endTime": 68.75,
      "pitch": 57,
      "startTime": 56.75,
      "velocity": 90.0
    },
    {
      "endTime": 58.75,
      "pitch": 60,
      "startTime": 56.75,
      "velocity": 90.0
    },
    {
      "endTime": 57.0,
      "pitch": 66,
      "startTime": 56.75,
      "velocity": 90.0
    },
    {
      "endTime": 57.25,
      "pitch": 69,
      "startTime": 57.0,
      "velocity": 90.0
    },
    {
      "endTime": 57.5,
      "pitch": 66,
      "startTime": 57.25,
      "velocity": 90.0
    },
    {
      "endTime": 58.75,
      "pitch": 62,
      "startTime": 57.5,
      "velocity": 90.0
    },
    {
      "endTime": 68.75,
      "pitch": 50,
      "startTime": 58.75,
      "velocity": 90.0
    },
    {
      "endTime": 68.75,
      "pitch": 54,
      "startTime": 58.75,
      "velocity": 90.0
    },
    {
      "endTime": 64.75,
      "pitch": 58,
      "startTime": 58.75,
      "velocity": 90.0
    },
    {
      "endTime": 68.75,
      "pitch": 60,
      "startTime": 58.75,
      "velocity": 90.0
    },
    {
      "endTime": 59.5,
      "pitch": 70,
      "startTime": 59.25,
      "velocity": 90.0
    },
    {
      "endTime": 59.75,
      "pitch": 70,
      "startTime": 59.5,
      "velocity": 90.0
    },
    {
      "endTime": 60.5,
      "pitch": 70,
      "startTime": 59.75,
      "velocity": 90.0
    },
    {
      "endTime": 60.75,
      "pitch": 69,
      "startTime": 60.5,
      "velocity": 90.0
    },
    {
      "endTime": 64.75,
      "pitch": 55,
      "startTime": 60.75,
      "velocity": 90.0
    },
    {
      "endTime": 96.75,
      "pitch": 59,
      "startTime": 60.75,
      "velocity": 90.0
    },
    {
      "endTime": 64.75,
      "pitch": 62,
      "startTime": 60.75,
      "velocity": 90.0
    },
    {
      "endTime": 63.75,
      "pitch": 67,
      "startTime": 60.75,
      "velocity": 90.0
    },
    {
      "endTime": 64.25,
      "pitch": 74,
      "startTime": 64.0,
      "velocity": 90.0
    },
    {
      "endTime": 64.5,
      "pitch": 74,
      "startTime": 64.25,
      "velocity": 90.0
    },
    {
      "endTime": 64.75,
      "pitch": 74,
      "startTime": 64.5,
      "velocity": 90.0
    },
    {
      "endTime": 66.75,
      "pitch": 55,
      "startTime": 64.75,
      "velocity": 90.0
    },
    {
      "endTime": 68.0,
      "pitch": 58,
      "startTime": 64.75,
      "velocity": 90.0
    },
    {
      "endTime": 76.75,
      "pitch": 62,
      "startTime": 64.75,
      "velocity": 90.0
    },
    {
      "endTime": 65.0,
      "pitch": 74,
      "startTime": 64.75,
      "velocity": 90.0
    },
    {
      "endTime": 65.25,
      "pitch": 74,
      "startTime": 65.0,
      "velocity": 90.0
    },
    {
      "endTime": 66.75,
      "pitch": 74,
      "startTime": 65.25,
      "velocity": 90.0
    },
    {
      "endTime": 82.75,
      "pitch": 48,
      "startTime": 66.75,
      "velocity": 90.0
    },
    {
      "endTime": 82.75,
      "pitch": 51,
      "startTime": 66.75,
      "velocity": 90.0
    },
    {
      "endTime": 68.0,
      "pitch": 55,
      "startTime": 66.75,
      "velocity": 90.0
    },
    {
      "endTime": 67.25,
      "pitch": 72,
      "startTime": 67.0,
      "velocity": 90.0
    },
    {
      "endTime": 67.5,
      "pitch": 72,
      "startTime": 67.25,
      "velocity": 90.0
    },
    {
      "endTime": 67.75,
      "pitch": 73,
      "startTime": 67.5,
      "velocity": 90.0
    },
    {
      "endTime": 68.0,
      "pitch": 74,
      "startTime": 67.75,
      "velocity": 90.0
    },
    {
      "endTime": 84.0,
      "pitch": 49,
      "startTime": 68.0,
      "velocity": 90.0
    },
    {
      "endTime": 84.0,
      "pitch": 52,
      "startTime": 68.0,
      "velocity": 90.0
    },
    {
      "endTime": 76.75,
      "pitch": 55,
      "startTime": 68.0,
      "velocity": 90.0
    },
    {
      "endTime": 76.75,
      "pitch": 58,
      "startTime": 68.0,
      "velocity": 90.0
    },
    {
      "endTime": 68.75,
      "pitch": 70,
      "startTime": 68.0,
      "velocity": 90.0
    },
    {
      "endTime": 72.75,
      "pitch": 50,
      "startTime": 68.75,
      "velocity": 90.0
    },
    {
      "endTime": 72.75,
      "pitch": 54,
      "startTime": 68.75,
      "velocity": 90.0
    },
    {
      "endTime": 72.75,
      "pitch": 57,
      "startTime": 68.75,
      "velocity": 90.0
    },
    {
      "endTime": 72.75,
      "pitch": 60,
      "startTime": 68.75,
      "velocity": 90.0
    },
    {
      "endTime": 72.0,
      "pitch": 69,
      "startTime": 68.75,
      "velocity": 90.0
    },
    {
      "endTime": 72.5,
      "pitch": 72,
      "startTime": 72.0,
      "velocity": 90.0
    },
    {
      "endTime": 72.75,
      "pitch": 72,
      "startTime": 72.5,
      "velocity": 90.0
    },
    {
      "endTime": 84.75,
      "pitch": 50,
      "startTime": 72.75,
      "velocity": 90.0
    },
    {
      "endTime": 84.75,
      "pitch": 54,
      "startTime": 72.75,
      "velocity": 90.0
    },
    {
      "endTime": 84.75,
      "pitch": 57,
      "startTime": 72.75,
      "velocity": 90.0
    },
    {
      "endTime": 84.75,
      "pitch": 60,
      "startTime": 72.75,
      "velocity": 90.0
    },
    {
      "endTime": 73.0,
      "pitch": 72,
      "startTime": 72.75,
      "velocity": 90.0
    },
    {
      "endTime": 74.75,
      "pitch": 72,
      "startTime": 73.0,
      "velocity": 90.0
    },
    {
      "endTime": 75.5,
      "pitch": 72,
      "startTime": 75.25,
      "velocity": 90.0
    },
    {
      "endTime": 75.75,
      "pitch": 73,
      "startTime": 75.5,
      "velocity": 90.0
    },
    {
      "endTime": 76.0,
      "pitch": 74,
      "startTime": 75.75,
      "velocity": 90.0
    },
    {
      "endTime": 76.75,
      "pitch": 69,
      "startTime": 76.0,
      "velocity": 90.0
    },
    {
      "endTime": 80.75,
      "pitch": 55,
      "startTime": 76.75,
      "velocity": 90.0
    },
    {
      "endTime": 80.75,
      "pitch": 58,
      "startTime": 76.75,
      "velocity": 90.0
    },
    {
      "endTime": 80.75,
      "pitch": 62,
      "startTime": 76.75,
      "velocity": 90.0
    },
    {
      "endTime": 79.75,
      "pitch": 67,
      "startTime": 76.75,
      "velocity": 90.0
    },
    {
      "endTime": 80.5,
      "pitch": 74,
      "startTime": 80.25,
      "velocity": 90.0
    },
    {
      "endTime": 80.75,
      "pitch": 74,
      "startTime": 80.5,
      "velocity": 90.0
    },
    {
      "endTime": 82.75,
      "pitch": 55,
      "startTime": 80.75,
      "velocity": 90.0
    },
    {
      "endTime": 82.75,
      "pitch": 58,
      "startTime": 80.75,
      "velocity": 90.0
    },
    {
      "endTime": 92.75,
      "pitch": 62,
      "startTime": 80.75,
      "velocity": 90.0
    },
    {
      "endTime": 81.0,
      "pitch": 74,
      "startTime": 80.75,
      "velocity": 90.0
    },
    {
      "endTime": 82.75,
      "pitch": 74,
      "startTime": 81.0,
      "velocity": 90.0
    },
    {
      "endTime": 104.75,
      "pitch": 48,
      "startTime": 82.75,
      "velocity": 90.0
    },
    {
      "endTime": 170.75,
      "pitch": 51,
      "startTime": 82.75,
      "velocity": 90.0
    },
    {
      "endTime": 84.0,
      "pitch": 55,
      "startTime": 82.75,
      "velocity": 90.0
    },
    {
      "endTime": 84.0,
      "pitch": 58,
      "startTime": 82.75,
      "velocity": 90.0
    },
    {
      "endTime": 83.25,
      "pitch": 72,
      "startTime": 83.0,
      "velocity": 90.0
    },
    {
      "endTime": 83.5,
      "pitch": 72,
      "startTime": 83.25,
      "velocity": 90.0
    },
    {
      "endTime": 83.75,
      "pitch": 73,
      "startTime": 83.5,
      "velocity": 90.0
    },
    {
      "endTime": 84.0,
      "pitch": 74,
      "startTime": 83.75,
      "velocity": 90.0
    },
    {
      "endTime": 172.0,
      "pitch": 49,
      "startTime": 84.0,
      "velocity": 90.0
    },
    {
      "endTime": 93.75,
      "pitch": 52,
      "startTime": 84.0,
      "velocity": 90.0
    },
    {
      "endTime": 92.75,
      "pitch": 55,
      "startTime": 84.0,
      "velocity": 90.0
    },
    {
      "endTime": 92.75,
      "pitch": 58,
      "startTime": 84.0,
      "velocity": 90.0
    },
    {
      "endTime": 84.75,
      "pitch": 70,
      "startTime": 84.0,
      "velocity": 90.0
    },
    {
      "endTime": 88.75,
      "pitch": 50,
      "startTime": 84.75,
      "velocity": 90.0
    },
    {
      "endTime": 88.75,
      "pitch": 54,
      "startTime": 84.75,
      "velocity": 90.0
    },
    {
      "endTime": 88.75,
      "pitch": 57,
      "startTime": 84.75,
      "velocity": 90.0
    },
    {
      "endTime": 88.75,
      "pitch": 60,
      "startTime": 84.75,
      "velocity": 90.0
    },
    {
      "endTime": 87.75,
      "pitch": 69,
      "startTime": 84.75,
      "velocity": 90.0
    },
    {
      "endTime": 88.5,
      "pitch": 72,
      "startTime": 88.25,
      "velocity": 90.0
    },
    {
      "endTime": 88.75,
      "pitch": 72,
      "startTime": 88.5,
      "velocity": 90.0
    },
    {
      "endTime": 94.75,
      "pitch": 50,
      "startTime": 88.75,
      "velocity": 90.0
    },
    {
      "endTime": 94.75,
      "pitch": 54,
      "startTime": 88.75,
      "velocity": 90.0
    },
    {
      "endTime": 93.75,
      "pitch": 57,
      "startTime": 88.75,
      "velocity": 90.0
    },
    {
      "endTime": 94.75,
      "pitch": 60,
      "startTime": 88.75,
      "velocity": 90.0
    },
    {
      "endTime": 89.0,
      "pitch": 72,
      "startTime": 88.75,
      "velocity": 90.0
    },
    {
      "endTime": 89.5,
      "pitch": 72,
      "startTime": 89.0,
      "velocity": 90.0
    },
    {
      "endTime": 90.75,
      "pitch": 72,
      "startTime": 89.5,
      "velocity": 90.0
    },
    {
      "endTime": 91.5,
      "pitch": 72,
      "startTime": 91.25,
      "velocity": 90.0
    },
    {
      "endTime": 91.75,
      "pitch": 73,
      "startTime": 91.5,
      "velocity": 90.0
    },
    {
      "endTime": 92.25,
      "pitch": 74,
      "startTime": 91.75,
      "velocity": 90.0
    },
    {
      "endTime": 92.75,
      "pitch": 69,
      "startTime": 92.25,
      "velocity": 90.0
    },
    {
      "endTime": 93.75,
      "pitch": 55,
      "startTime": 92.75,
      "velocity": 90.0
    },
    {
      "endTime": 138.75,
      "pitch": 58,
      "startTime": 92.75,
      "velocity": 90.0
    },
    {
      "endTime": 96.75,
      "pitch": 62,
      "startTime": 92.75,
      "velocity": 90.0
    },
    {
      "endTime": 93.75,
      "pitch": 67,
      "startTime": 92.75,
      "velocity": 90.0
    },
    {
      "endTime": 97.25,
      "pitch": 52,
      "startTime": 93.75,
      "velocity": 90.0
    },
    {
      "endTime": 96.75,
      "pitch": 55,
      "startTime": 93.75,
      "velocity": 90.0
    },
    {
      "endTime": 94.75,
      "pitch": 57,
      "startTime": 93.75,
      "velocity": 90.0
    },
    {
      "endTime": 197.75,
      "pitch": 61,
      "startTime": 93.75,
      "velocity": 90.0
    },
    {
      "endTime": 94.75,
      "pitch": 69,
      "startTime": 93.75,
      "velocity": 90.0
    },
    {
      "endTime": 97.25,
      "pitch": 50,
      "startTime": 94.75,
      "velocity": 90.0
    },
    {
      "endTime": 114.75,
      "pitch": 54,
      "startTime": 94.75,
      "velocity": 90.0
    },
    {
      "endTime": 114.75,
      "pitch": 57,
      "startTime": 94.75,
      "velocity": 90.0
    },
    {
      "endTime": 114.75,
      "pitch": 60,
      "startTime": 94.75,
      "velocity": 90.0
    },
    {
      "endTime": 96.25,
      "pitch": 74,
      "startTime": 94.75,
      "velocity": 90.0
    },
    {
      "endTime": 96.5,
      "pitch": 70,
      "startTime": 96.25,
      "velocity": 90.0
    },
    {
      "endTime": 96.75,
      "pitch": 71,
      "startTime": 96.5,
      "velocity": 90.0
    },
    {
      "endTime": 97.75,
      "pitch": 55,
      "startTime": 96.75,
      "velocity": 90.0
    },
    {
      "endTime": 97.75,
      "pitch": 59,
      "startTime": 96.75,
      "velocity": 90.0
    },
    {
      "endTime": 97.75,
      "pitch": 62,
      "startTime": 96.75,
      "velocity": 90.0
    },
    {
      "endTime": 97.25,
      "pitch": 67,
      "startTime": 96.75,
      "velocity": 90.0
    },
    {
      "endTime": 98.25,
      "pitch": 43,
      "startTime": 97.25,
      "velocity": 90.0
    },
    {
      "endTime": 98.25,
      "pitch": 47,
      "startTime": 97.25,
      "velocity": 90.0
    },
    {
      "endTime": 98.25,
      "pitch": 50,
      "startTime": 97.25,
      "velocity": 90.0
    },
    {
      "endTime": 98.25,
      "pitch": 52,
      "startTime": 97.25,
      "velocity": 90.0
    },
    {
      "endTime": 97.5,
      "pitch": 70,
      "startTime": 97.25,
      "velocity": 90.0
    },
    {
      "endTime": 97.75,
      "pitch": 71,
      "startTime": 97.5,
      "velocity": 90.0
    },
    {
      "endTime": 98.75,
      "pitch": 55,
      "startTime": 97.75,
      "velocity": 90.0
    },
    {
      "endTime": 98.75,
      "pitch": 59,
      "startTime": 97.75,
      "velocity": 90.0
    },
    {
      "endTime": 98.75,
      "pitch": 62,
      "startTime": 97.75,
      "velocity": 90.0
    },
    {
      "endTime": 98.25,
      "pitch": 67,
      "startTime": 97.75,
      "velocity": 90.0
    },
    {
      "endTime": 99.25,
      "pitch": 43,
      "startTime": 98.25,
      "velocity": 90.0
    },
    {
      "endTime": 99.25,
      "pitch": 47,
      "startTime": 98.25,
      "velocity": 90.0
    },
    {
      "endTime": 99.25,
      "pitch": 50,
      "startTime": 98.25,
      "velocity": 90.0
    },
    {
      "endTime": 99.25,
      "pitch": 52,
      "startTime": 98.25,
      "velocity": 90.0
    },
    {
      "endTime": 98.5,
      "pitch": 70,
      "startTime": 98.25,
      "velocity": 90.0
    },
    {
      "endTime": 98.75,
      "pitch": 71,
      "startTime": 98.5,
      "velocity": 90.0
    },
    {
      "endTime": 99.75,
      "pitch": 55,
      "startTime": 98.75,
      "velocity": 90.0
    },
    {
      "endTime": 99.75,
      "pitch": 59,
      "startTime": 98.75,
      "velocity": 90.0
    },
    {
      "endTime": 99.75,
      "pitch": 62,
      "startTime": 98.75,
      "velocity": 90.0
    },
    {
      "endTime": 99.25,
      "pitch": 67,
      "startTime": 98.75,
      "velocity": 90.0
    },
    {
      "endTime": 100.25,
      "pitch": 43,
      "startTime": 99.25,
      "velocity": 90.0
    },
    {
      "endTime": 100.25,
      "pitch": 47,
      "startTime": 99.25,
      "velocity": 90.0
    },
    {
      "endTime": 100.25,
      "pitch": 50,
      "startTime": 99.25,
      "velocity": 90.0
    },
    {
      "endTime": 100.25,
      "pitch": 52,
      "startTime": 99.25,
      "velocity": 90.0
    },
    {
      "endTime": 99.5,
      "pitch": 70,
      "startTime": 99.25,
      "velocity": 90.0
    },
    {
      "endTime": 99.75,
      "pitch": 71,
      "startTime": 99.5,
      "velocity": 90.0
    },
    {
      "endTime": 102.75,
      "pitch": 55,
      "startTime": 99.75,
      "velocity": 90.0
    },
    {
      "endTime": 102.75,
      "pitch": 59,
      "startTime": 99.75,
      "velocity": 90.0
    },
    {
      "endTime": 102.75,
      "pitch": 62,
      "startTime": 99.75,
      "velocity": 90.0
    },
    {
      "endTime": 100.0,
      "pitch": 67,
      "startTime": 99.75,
      "velocity": 90.0
    },
    {
      "endTime": 100.25,
      "pitch": 70,
      "startTime": 100.0,
      "velocity": 90.0
    },
    {
      "endTime": 100.75,
      "pitch": 43,
      "startTime": 100.25,
      "velocity": 90.0
    },
    {
      "endTime": 100.75,
      "pitch": 47,
      "startTime": 100.25,
      "velocity": 90.0
    },
    {
      "endTime": 100.75,
      "pitch": 50,
      "startTime": 100.25,
      "velocity": 90.0
    },
    {
      "endTime": 100.75,
      "pitch": 52,
      "startTime": 100.25,
      "velocity": 90.0
    },
    {
      "endTime": 100.5,
      "pitch": 71,
      "startTime": 100.25,
      "velocity": 90.0
    },
    {
      "endTime": 104.25,
      "pitch": 67,
      "startTime": 100.5,
      "velocity": 90.0
    },
    {
      "endTime": 108.75,
      "pitch": 43,
      "startTime": 100.75,
      "velocity": 90.0
    },
    {
      "endTime": 108.75,
      "pitch": 47,
      "startTime": 100.75,
      "velocity": 90.0
    },
    {
      "endTime": 108.75,
      "pitch": 50,
      "startTime": 100.75,
      "velocity": 90.0
    },
    {
      "endTime": 104.75,
      "pitch": 52,
      "startTime": 100.75,
      "velocity": 90.0
    },
    {
      "endTime": 104.75,
      "pitch": 55,
      "startTime": 102.75,
      "velocity": 90.0
    },
    {
      "endTime": 110.75,
      "pitch": 59,
      "startTime": 102.75,
      "velocity": 90.0
    },
    {
      "endTime": 110.75,
      "pitch": 62,
      "startTime": 102.75,
      "velocity": 90.0
    },
    {
      "endTime": 104.5,
      "pitch": 70,
      "startTime": 104.25,
      "velocity": 90.0
    },
    {
      "endTime": 104.75,
      "pitch": 71,
      "startTime": 104.5,
      "velocity": 90.0
    },
    {
      "endTime": 122.75,
      "pitch": 48,
      "startTime": 104.75,
      "velocity": 90.0
    },
    {
      "endTime": 108.75,
      "pitch": 52,
      "startTime": 104.75,
      "velocity": 90.0
    },
    {
      "endTime": 110.75,
      "pitch": 55,
      "startTime": 104.75,
      "velocity": 90.0
    },
    {
      "endTime": 105.25,
      "pitch": 69,
      "startTime": 104.75,
      "velocity": 90.0
    },
    {
      "endTime": 105.5,
      "pitch": 67,
      "startTime": 105.25,
      "velocity": 90.0
    },
    {
      "endTime": 105.75,
      "pitch": 64,
      "startTime": 105.5,
      "velocity": 90.0
    },
    {
      "endTime": 106.25,
      "pitch": 67,
      "startTime": 105.75,
      "velocity": 90.0
    },
    {
      "endTime": 106.5,
      "pitch": 69,
      "startTime": 106.25,
      "velocity": 90.0
    },
    {
      "endTime": 106.75,
      "pitch": 70,
      "startTime": 106.5,
      "velocity": 90.0
    },
    {
      "endTime": 107.25,
      "pitch": 69,
      "startTime": 106.75,
      "velocity": 90.0
    },
    {
      "endTime": 107.5,
      "pitch": 67,
      "startTime": 107.25,
      "velocity": 90.0
    },
    {
      "endTime": 107.75,
      "pitch": 64,
      "startTime": 107.5,
      "velocity": 90.0
    },
    {
      "endTime": 108.0,
      "pitch": 67,
      "startTime": 107.75,
      "velocity": 90.0
    },
    {
      "endTime": 108.25,
      "pitch": 70,
      "startTime": 108.0,
      "velocity": 90.0
    },
    {
      "endTime": 108.5,
      "pitch": 71,
      "startTime": 108.25,
      "velocity": 90.0
    },
    {
      "endTime": 112.25,
      "pitch": 67,
      "startTime": 108.5,
      "velocity": 90.0
    },
    {
      "endTime": 120.75,
      "pitch": 43,
      "startTime": 108.75,
      "velocity": 90.0
    },
    {
      "endTime": 120.75,
      "pitch": 47,
      "startTime": 108.75,
      "velocity": 90.0
    },
    {
      "endTime": 112.75,
      "pitch": 50,
      "startTime": 108.75,
      "velocity": 90.0
    },
    {
      "endTime": 122.75,
      "pitch": 52,
      "startTime": 108.75,
      "velocity": 90.0
    },
    {
      "endTime": 112.75,
      "pitch": 55,
      "startTime": 110.75,
      "velocity": 90.0
    },
    {
      "endTime": 112.75,
      "pitch": 59,
      "startTime": 110.75,
      "velocity": 90.0
    },
    {
      "endTime": 114.0,
      "pitch": 62,
      "startTime": 110.75,
      "velocity": 90.0
    },
    {
      "endTime": 112.5,
      "pitch": 70,
      "startTime": 112.25,
      "velocity": 90.0
    },
    {
      "endTime": 112.75,
      "pitch": 71,
      "startTime": 112.5,
      "velocity": 90.0
    },
    {
      "endTime": 114.75,
      "pitch": 50,
      "startTime": 112.75,
      "velocity": 90.0
    },
    {
      "endTime": 116.75,
      "pitch": 55,
      "startTime": 112.75,
      "velocity": 90.0
    },
    {
      "endTime": 116.75,
      "pitch": 59,
      "startTime": 112.75,
      "velocity": 90.0
    },
    {
      "endTime": 113.25,
      "pitch": 74,
      "startTime": 112.75,
      "velocity": 90.0
    },
    {
      "endTime": 113.5,
      "pitch": 70,
      "startTime": 113.25,
      "velocity": 90.0
    },
    {
      "endTime": 113.75,
      "pitch": 71,
      "startTime": 113.5,
      "velocity": 90.0
    },
    {
      "endTime": 114.0,
      "pitch": 62,
      "startTime": 113.75,
      "velocity": 90.0
    },
    {
      "endTime": 114.25,
      "pitch": 70,
      "startTime": 114.0,
      "velocity": 90.0
    },
    {
      "endTime": 114.5,
      "pitch": 71,
      "startTime": 114.25,
      "velocity": 90.0
    },
    {
      "endTime": 114.75,
      "pitch": 60,
      "startTime": 114.5,
      "velocity": 90.0
    },
    {
      "endTime": 120.75,
      "pitch": 50,
      "startTime": 114.75,
      "velocity": 90.0
    },
    {
      "endTime": 136.75,
      "pitch": 54,
      "startTime": 114.75,
      "velocity": 90.0
    },
    {
      "endTime": 136.75,
      "pitch": 57,
      "startTime": 114.75,
      "velocity": 90.0
    },
    {
      "endTime": 115.0,
      "pitch": 60,
      "startTime": 114.75,
      "velocity": 90.0
    },
    {
      "endTime": 115.25,
      "pitch": 70,
      "startTime": 115.0,
      "velocity": 90.0
    },
    {
      "endTime": 115.5,
      "pitch": 71,
      "startTime": 115.25,
      "velocity": 90.0
    },
    {
      "endTime": 116.0,
      "pitch": 62,
      "startTime": 115.5,
      "velocity": 90.0
    },
    {
      "endTime": 116.25,
      "pitch": 70,
      "startTime": 116.0,
      "velocity": 90.0
    },
    {
      "endTime": 116.5,
      "pitch": 71,
      "startTime": 116.25,
      "velocity": 90.0
    },
    {
      "endTime": 120.75,
      "pitch": 67,
      "startTime": 116.5,
      "velocity": 90.0
    },
    {
      "endTime": 122.75,
      "pitch": 55,
      "startTime": 116.75,
      "velocity": 90.0
    },
    {
      "endTime": 124.75,
      "pitch": 59,
      "startTime": 116.75,
      "velocity": 90.0
    },
    {
      "endTime": 124.75,
      "pitch": 62,
      "startTime": 116.75,
      "velocity": 90.0
    },
    {
      "endTime": 126.75,
      "pitch": 43,
      "startTime": 120.75,
      "velocity": 90.0
    },
    {
      "endTime": 126.75,
      "pitch": 47,
      "startTime": 120.75,
      "velocity": 90.0
    },
    {
      "endTime": 126.75,
      "pitch": 50,
      "startTime": 120.75,
      "velocity": 90.0
    },
    {
      "endTime": 126.75,
      "pitch": 53,
      "startTime": 120.75,
      "velocity": 90.0
    },
    {
      "endTime": 121.0,
      "pitch": 71,
      "startTime": 120.75,
      "velocity": 90.0
    },
    {
      "endTime": 121.25,
      "pitch": 74,
      "startTime": 121.0,
      "velocity": 90.0
    },
    {
      "endTime": 121.5,
      "pitch": 71,
      "startTime": 121.25,
      "velocity": 90.0
    },
    {
      "endTime": 122.75,
      "pitch": 67,
      "startTime": 121.5,
      "velocity": 90.0
    },
    {
      "endTime": 128.75,
      "pitch": 48,
      "startTime": 122.75,
      "velocity": 90.0
    },
    {
      "endTime": 128.75,
      "pitch": 52,
      "startTime": 122.75,
      "velocity": 90.0
    },
    {
      "endTime": 124.75,
      "pitch": 55,
      "startTime": 122.75,
      "velocity": 90.0
    },
    {
      "endTime": 123.25,
      "pitch": 63,
      "startTime": 123.0,
      "velocity": 90.0
    },
    {
      "endTime": 123.5,
      "pitch": 64,
      "startTime": 123.25,
      "velocity": 90.0
    },
    {
      "endTime": 123.75,
      "pitch": 67,
      "startTime": 123.5,
      "velocity": 90.0
    },
    {
      "endTime": 124.5,
      "pitch": 70,
      "startTime": 123.75,
      "velocity": 90.0
    },
    {
      "endTime": 124.75,
      "pitch": 69,
      "startTime": 124.5,
      "velocity": 90.0
    },
    {
      "endTime": 128.75,
      "pitch": 55,
      "startTime": 124.75,
      "velocity": 90.0
    },
    {
      "endTime": 132.75,
      "pitch": 59,
      "startTime": 124.75,
      "velocity": 90.0
    },
    {
      "endTime": 132.75,
      "pitch": 62,
      "startTime": 124.75,
      "velocity": 90.0
    },
    {
      "endTime": 128.25,
      "pitch": 67,
      "startTime": 124.75,
      "velocity": 90.0
    },
    {
      "endTime": 144.75,
      "pitch": 43,
      "startTime": 126.75,
      "velocity": 90.0
    },
    {
      "endTime": 144.75,
      "pitch": 47,
      "startTime": 126.75,
      "velocity": 90.0
    },
    {
      "endTime": 136.75,
      "pitch": 50,
      "startTime": 126.75,
      "velocity": 90.0
    },
    {
      "endTime": 144.75,
      "pitch": 53,
      "startTime": 126.75,
      "velocity": 90.0
    },
    {
      "endTime": 146.75,
      "pitch": 48,
      "startTime": 128.75,
      "velocity": 90.0
    },
    {
      "endTime": 146.75,
      "pitch": 52,
      "startTime": 128.75,
      "velocity": 90.0
    },
    {
      "endTime": 132.75,
      "pitch": 55,
      "startTime": 128.75,
      "velocity": 90.0
    },
    {
      "endTime": 129.25,
      "pitch": 64,
      "startTime": 129.0,
      "velocity": 90.0
    },
    {
      "endTime": 129.5,
      "pitch": 67,
      "startTime": 129.25,
      "velocity": 90.0
    },
    {
      "endTime": 130.75,
      "pitch": 69,
      "startTime": 129.5,
      "velocity": 90.0
    },
    {
      "endTime": 131.25,
      "pitch": 64,
      "startTime": 131.0,
      "velocity": 90.0
    },
    {
      "endTime": 131.5,
      "pitch": 67,
      "startTime": 131.25,
      "velocity": 90.0
    },
    {
      "endTime": 131.75,
      "pitch": 69,
      "startTime": 131.5,
      "velocity": 90.0
    },
    {
      "endTime": 132.5,
      "pitch": 70,
      "startTime": 131.75,
      "velocity": 90.0
    },
    {
      "endTime": 132.75,
      "pitch": 69,
      "startTime": 132.5,
      "velocity": 90.0
    },
    {
      "endTime": 140.75,
      "pitch": 55,
      "startTime": 132.75,
      "velocity": 90.0
    },
    {
      "endTime": 140.75,
      "pitch": 59,
      "startTime": 132.75,
      "velocity": 90.0
    },
    {
      "endTime": 138.75,
      "pitch": 62,
      "startTime": 132.75,
      "velocity": 90.0
    },
    {
      "endTime": 135.75,
      "pitch": 67,
      "startTime": 132.75,
      "velocity": 90.0
    },
    {
      "endTime": 138.75,
      "pitch": 50,
      "startTime": 136.75,
      "velocity": 90.0
    },
    {
      "endTime": 138.75,
      "pitch": 54,
      "startTime": 136.75,
      "velocity": 90.0
    },
    {
      "endTime": 160.75,
      "pitch": 57,
      "startTime": 136.75,
      "velocity": 90.0
    },
    {
      "endTime": 138.75,
      "pitch": 60,
      "startTime": 136.75,
      "velocity": 90.0
    },
    {
      "endTime": 137.0,
      "pitch": 66,
      "startTime": 136.75,
      "velocity": 90.0
    },
    {
      "endTime": 137.25,
      "pitch": 69,
      "startTime": 137.0,
      "velocity": 90.0
    },
    {
      "endTime": 137.5,
      "pitch": 66,
      "startTime": 137.25,
      "velocity": 90.0
    },
    {
      "endTime": 138.75,
      "pitch": 62,
      "startTime": 137.5,
      "velocity": 90.0
    },
    {
      "endTime": 144.75,
      "pitch": 50,
      "startTime": 138.75,
      "velocity": 90.0
    },
    {
      "endTime": 160.75,
      "pitch": 54,
      "startTime": 138.75,
      "velocity": 90.0
    },
    {
      "endTime": 162.75,
      "pitch": 58,
      "startTime": 138.75,
      "velocity": 90.0
    },
    {
      "endTime": 160.75,
      "pitch": 60,
      "startTime": 138.75,
      "velocity": 90.0
    },
    {
      "endTime": 139.5,
      "pitch": 70,
      "startTime": 139.25,
      "velocity": 90.0
    },
    {
      "endTime": 139.75,
      "pitch": 70,
      "startTime": 139.5,
      "velocity": 90.0
    },
    {
      "endTime": 140.5,
      "pitch": 70,
      "startTime": 139.75,
      "velocity": 90.0
    },
    {
      "endTime": 140.75,
      "pitch": 69,
      "startTime": 140.5,
      "velocity": 90.0
    },
    {
      "endTime": 146.75,
      "pitch": 55,
      "startTime": 140.75,
      "velocity": 90.0
    },
    {
      "endTime": 148.75,
      "pitch": 59,
      "startTime": 140.75,
      "velocity": 90.0
    },
    {
      "endTime": 148.75,
      "pitch": 62,
      "startTime": 140.75,
      "velocity": 90.0
    },
    {
      "endTime": 143.75,
      "pitch": 67,
      "startTime": 140.75,
      "velocity": 90.0
    },
    {
      "endTime": 150.75,
      "pitch": 43,
      "startTime": 144.75,
      "velocity": 90.0
    },
    {
      "endTime": 150.75,
      "pitch": 47,
      "startTime": 144.75,
      "velocity": 90.0
    },
    {
      "endTime": 150.75,
      "pitch": 50,
      "startTime": 144.75,
      "velocity": 90.0
    },
    {
      "endTime": 150.75,
      "pitch": 53,
      "startTime": 144.75,
      "velocity": 90.0
    },
    {
      "endTime": 145.0,
      "pitch": 71,
      "startTime": 144.75,
      "velocity": 90.0
    },
    {
      "endTime": 145.25,
      "pitch": 74,
      "startTime": 145.0,
      "velocity": 90.0
    },
    {
      "endTime": 145.5,
      "pitch": 71,
      "startTime": 145.25,
      "velocity": 90.0
    },
    {
      "endTime": 146.0,
      "pitch": 67,
      "startTime": 145.5,
      "velocity": 90.0
    },
    {
      "endTime": 146.75,
      "pitch": 67,
      "startTime": 146.0,
      "velocity": 90.0
    },
    {
      "endTime": 152.75,
      "pitch": 48,
      "startTime": 146.75,
      "velocity": 90.0
    },
    {
      "endTime": 152.75,
      "pitch": 52,
      "startTime": 146.75,
      "velocity": 90.0
    },
    {
      "endTime": 148.75,
      "pitch": 55,
      "startTime": 146.75,
      "velocity": 90.0
    },
    {
      "endTime": 147.25,
      "pitch": 63,
      "startTime": 147.0,
      "velocity": 90.0
    },
    {
      "endTime": 147.5,
      "pitch": 64,
      "startTime": 147.25,
      "velocity": 90.0
    },
    {
      "endTime": 147.75,
      "pitch": 67,
      "startTime": 147.5,
      "velocity": 90.0
    },
    {
      "endTime": 148.5,
      "pitch": 70,
      "startTime": 147.75,
      "velocity": 90.0
    },
    {
      "endTime": 148.75,
      "pitch": 69,
      "startTime": 148.5,
      "velocity": 90.0
    },
    {
      "endTime": 152.75,
      "pitch": 55,
      "startTime": 148.75,
      "velocity": 90.0
    },
    {
      "endTime": 156.75,
      "pitch": 59,
      "startTime": 148.75,
      "velocity": 90.0
    },
    {
      "endTime": 156.75,
      "pitch": 62,
      "startTime": 148.75,
      "velocity": 90.0
    },
    {
      "endTime": 151.25,
      "pitch": 67,
      "startTime": 148.75,
      "velocity": 90.0
    },
    {
      "endTime": 201.25,
      "pitch": 43,
      "startTime": 150.75,
      "velocity": 90.0
    },
    {
      "endTime": 201.25,
      "pitch": 47,
      "startTime": 150.75,
      "velocity": 90.0
    },
    {
      "endTime": 160.75,
      "pitch": 50,
      "startTime": 150.75,
      "velocity": 90.0
    },
    {
      "endTime": 170.75,
      "pitch": 48,
      "startTime": 152.75,
      "velocity": 90.0
    },
    {
      "endTime": 172.0,
      "pitch": 52,
      "startTime": 152.75,
      "velocity": 90.0
    },
    {
      "endTime": 156.75,
      "pitch": 55,
      "startTime": 152.75,
      "velocity": 90.0
    },
    {
      "endTime": 153.25,
      "pitch": 64,
      "startTime": 153.0,
      "velocity": 90.0
    },
    {
      "endTime": 153.5,
      "pitch": 67,
      "startTime": 153.25,
      "velocity": 90.0
    },
    {
      "endTime": 154.0,
      "pitch": 69,
      "startTime": 153.5,
      "velocity": 90.0
    },
    {
      "endTime": 154.75,
      "pitch": 69,
      "startTime": 154.0,
      "velocity": 90.0
    },
    {
      "endTime": 155.25,
      "pitch": 63,
      "startTime": 155.0,
      "velocity": 90.0
    },
    {
      "endTime": 155.5,
      "pitch": 64,
      "startTime": 155.25,
      "velocity": 90.0
    },
    {
      "endTime": 155.75,
      "pitch": 67,
      "startTime": 155.5,
      "velocity": 90.0
    },
    {
      "endTime": 156.5,
      "pitch": 70,
      "startTime": 155.75,
      "velocity": 90.0
    },
    {
      "endTime": 156.75,
      "pitch": 69,
      "startTime": 156.5,
      "velocity": 90.0
    },
    {
      "endTime": 164.75,
      "pitch": 55,
      "startTime": 156.75,
      "velocity": 90.0
    },
    {
      "endTime": 164.75,
      "pitch": 59,
      "startTime": 156.75,
      "velocity": 90.0
    },
    {
      "endTime": 162.75,
      "pitch": 62,
      "startTime": 156.75,
      "velocity": 90.0
    },
    {
      "endTime": 159.75,
      "pitch": 67,
      "startTime": 156.75,
      "velocity": 90.0
    },
    {
      "endTime": 162.75,
      "pitch": 50,
      "startTime": 160.75,
      "velocity": 90.0
    },
    {
      "endTime": 162.75,
      "pitch": 54,
      "startTime": 160.75,
      "velocity": 90.0
    },
    {
      "endTime": 172.75,
      "pitch": 57,
      "startTime": 160.75,
      "velocity": 90.0
    },
    {
      "endTime": 162.75,
      "pitch": 60,
      "startTime": 160.75,
      "velocity": 90.0
    },
    {
      "endTime": 161.0,
      "pitch": 66,
      "startTime": 160.75,
      "velocity": 90.0
    },
    {
      "endTime": 161.25,
      "pitch": 69,
      "startTime": 161.0,
      "velocity": 90.0
    },
    {
      "endTime": 161.5,
      "pitch": 66,
      "startTime": 161.25,
      "velocity": 90.0
    },
    {
      "endTime": 162.75,
      "pitch": 62,
      "startTime": 161.5,
      "velocity": 90.0
    },
    {
      "endTime": 172.75,
      "pitch": 50,
      "startTime": 162.75,
      "velocity": 90.0
    },
    {
      "endTime": 172.75,
      "pitch": 54,
      "startTime": 162.75,
      "velocity": 90.0
    },
    {
      "endTime": 168.75,
      "pitch": 58,
      "startTime": 162.75,
      "velocity": 90.0
    },
    {
      "endTime": 172.75,
      "pitch": 60,
      "startTime": 162.75,
      "velocity": 90.0
    },
    {
      "endTime": 163.5,
      "pitch": 70,
      "startTime": 163.25,
      "velocity": 90.0
    },
    {
      "endTime": 163.75,
      "pitch": 70,
      "startTime": 163.5,
      "velocity": 90.0
    },
    {
      "endTime": 164.5,
      "pitch": 70,
      "startTime": 163.75,
      "velocity": 90.0
    },
    {
      "endTime": 164.75,
      "pitch": 69,
      "startTime": 164.5,
      "velocity": 90.0
    },
    {
      "endTime": 168.75,
      "pitch": 55,
      "startTime": 164.75,
      "velocity": 90.0
    },
    {
      "endTime": 200.75,
      "pitch": 59,
      "startTime": 164.75,
      "velocity": 90.0
    },
    {
      "endTime": 168.75,
      "pitch": 62,
      "startTime": 164.75,
      "velocity": 90.0
    },
    {
      "endTime": 167.75,
      "pitch": 67,
      "startTime": 164.75,
      "velocity": 90.0
    },
    {
      "endTime": 168.25,
      "pitch": 74,
      "startTime": 168.0,
      "velocity": 90.0
    },
    {
      "endTime": 168.5,
      "pitch": 74,
      "startTime": 168.25,
      "velocity": 90.0
    },
    {
      "endTime": 168.75,
      "pitch": 74,
      "startTime": 168.5,
      "velocity": 90.0
    },
    {
      "endTime": 170.75,
      "pitch": 55,
      "startTime": 168.75,
      "velocity": 90.0
    },
    {
      "endTime": 172.0,
      "pitch": 58,
      "startTime": 168.75,
      "velocity": 90.0
    },
    {
      "endTime": 180.75,
      "pitch": 62,
      "startTime": 168.75,
      "velocity": 90.0
    },
    {
      "endTime": 169.0,
      "pitch": 74,
      "startTime": 168.75,
      "velocity": 90.0
    },
    {
      "endTime": 169.25,
      "pitch": 74,
      "startTime": 169.0,
      "velocity": 90.0
    },
    {
      "endTime": 170.75,
      "pitch": 74,
      "startTime": 169.25,
      "velocity": 90.0
    },
    {
      "endTime": 186.75,
      "pitch": 48,
      "startTime": 170.75,
      "velocity": 90.0
    },
    {
      "endTime": 186.75,
      "pitch": 51,
      "startTime": 170.75,
      "velocity": 90.0
    },
    {
      "endTime": 172.0,
      "pitch": 55,
      "startTime": 170.75,
      "velocity": 90.0
    },
    {
      "endTime": 171.25,
      "pitch": 72,
      "startTime": 171.0,
      "velocity": 90.0
    },
    {
      "endTime": 171.5,
      "pitch": 72,
      "startTime": 171.25,
      "velocity": 90.0
    },
    {
      "endTime": 171.75,
      "pitch": 73,
      "startTime": 171.5,
      "velocity": 90.0
    },
    {
      "endTime": 172.0,
      "pitch": 74,
      "startTime": 171.75,
      "velocity": 90.0
    },
    {
      "endTime": 188.0,
      "pitch": 49,
      "startTime": 172.0,
      "velocity": 90.0
    },
    {
      "endTime": 188.0,
      "pitch": 52,
      "startTime": 172.0,
      "velocity": 90.0
    },
    {
      "endTime": 180.75,
      "pitch": 55,
      "startTime": 172.0,
      "velocity": 90.0
    },
    {
      "endTime": 180.75,
      "pitch": 58,
      "startTime": 172.0,
      "velocity": 90.0
    },
    {
      "endTime": 172.75,
      "pitch": 70,
      "startTime": 172.0,
      "velocity": 90.0
    },
    {
      "endTime": 176.75,
      "pitch": 50,
      "startTime": 172.75,
      "velocity": 90.0
    },
    {
      "endTime": 176.75,
      "pitch": 54,
      "startTime": 172.75,
      "velocity": 90.0
    },
    {
      "endTime": 176.75,
      "pitch": 57,
      "startTime": 172.75,
      "velocity": 90.0
    },
    {
      "endTime": 176.75,
      "pitch": 60,
      "startTime": 172.75,
      "velocity": 90.0
    },
    {
      "endTime": 176.0,
      "pitch": 69,
      "startTime": 172.75,
      "velocity": 90.0
    },
    {
      "endTime": 176.5,
      "pitch": 72,
      "startTime": 176.0,
      "velocity": 90.0
    },
    {
      "endTime": 176.75,
      "pitch": 72,
      "startTime": 176.5,
      "velocity": 90.0
    },
    {
      "endTime": 188.75,
      "pitch": 50,
      "startTime": 176.75,
      "velocity": 90.0
    },
    {
      "endTime": 188.75,
      "pitch": 54,
      "startTime": 176.75,
      "velocity": 90.0
    },
    {
      "endTime": 188.75,
      "pitch": 57,
      "startTime": 176.75,
      "velocity": 90.0
    },
    {
      "endTime": 188.75,
      "pitch": 60,
      "startTime": 176.75,
      "velocity": 90.0
    },
    {
      "endTime": 177.0,
      "pitch": 72,
      "startTime": 176.75,
      "velocity": 90.0
    },
    {
      "endTime": 178.75,
      "pitch": 72,
      "startTime": 177.0,
      "velocity": 90.0
    },
    {
      "endTime": 179.5,
      "pitch": 72,
      "startTime": 179.25,
      "velocity": 90.0
    },
    {
      "endTime": 179.75,
      "pitch": 73,
      "startTime": 179.5,
      "velocity": 90.0
    },
    {
      "endTime": 180.0,
      "pitch": 74,
      "startTime": 179.75,
      "velocity": 90.0
    },
    {
      "endTime": 180.75,
      "pitch": 69,
      "startTime": 180.0,
      "velocity": 90.0
    },
    {
      "endTime": 184.75,
      "pitch": 55,
      "startTime": 180.75,
      "velocity": 90.0
    },
    {
      "endTime": 184.75,
      "pitch": 58,
      "startTime": 180.75,
      "velocity": 90.0
    },
    {
      "endTime": 184.75,
      "pitch": 62,
      "startTime": 180.75,
      "velocity": 90.0
    },
    {
      "endTime": 183.75,
      "pitch": 67,
      "startTime": 180.75,
      "velocity": 90.0
    },
    {
      "endTime": 184.5,
      "pitch": 74,
      "startTime": 184.25,
      "velocity": 90.0
    },
    {
      "endTime": 184.75,
      "pitch": 74,
      "startTime": 184.5,
      "velocity": 90.0
    },
    {
      "endTime": 186.75,
      "pitch": 55,
      "startTime": 184.75,
      "velocity": 90.0
    },
    {
      "endTime": 186.75,
      "pitch": 58,
      "startTime": 184.75,
      "velocity": 90.0
    },
    {
      "endTime": 196.75,
      "pitch": 62,
      "startTime": 184.75,
      "velocity": 90.0
    },
    {
      "endTime": 185.0,
      "pitch": 74,
      "startTime": 184.75,
      "velocity": 90.0
    },
    {
      "endTime": 186.75,
      "pitch": 74,
      "startTime": 185.0,
      "velocity": 90.0
    },
    {
      "endTime": 208.75,
      "pitch": 48,
      "startTime": 186.75,
      "velocity": 90.0
    },
    {
      "endTime": 188.0,
      "pitch": 55,
      "startTime": 186.75,
      "velocity": 90.0
    },
    {
      "endTime": 188.0,
      "pitch": 58,
      "startTime": 186.75,
      "velocity": 90.0
    },
    {
      "endTime": 187.25,
      "pitch": 72,
      "startTime": 187.0,
      "velocity": 90.0
    },
    {
      "endTime": 187.5,
      "pitch": 72,
      "startTime": 187.25,
      "velocity": 90.0
    },
    {
      "endTime": 187.75,
      "pitch": 73,
      "startTime": 187.5,
      "velocity": 90.0
    },
    {
      "endTime": 188.0,
      "pitch": 74,
      "startTime": 187.75,
      "velocity": 90.0
    },
    {
      "endTime": 197.75,
      "pitch": 52,
      "startTime": 188.0,
      "velocity": 90.0
    },
    {
      "endTime": 196.75,
      "pitch": 55,
      "startTime": 188.0,
      "velocity": 90.0
    },
    {
      "endTime": 196.75,
      "pitch": 58,
      "startTime": 188.0,
      "velocity": 90.0
    },
    {
      "endTime": 188.75,
      "pitch": 70,
      "startTime": 188.0,
      "velocity": 90.0
    },
    {
      "endTime": 192.75,
      "pitch": 50,
      "startTime": 188.75,
      "velocity": 90.0
    },
    {
      "endTime": 192.75,
      "pitch": 54,
      "startTime": 188.75,
      "velocity": 90.0
    },
    {
      "endTime": 192.75,
      "pitch": 57,
      "startTime": 188.75,
      "velocity": 90.0
    },
    {
      "endTime": 192.75,
      "pitch": 60,
      "startTime": 188.75,
      "velocity": 90.0
    },
    {
      "endTime": 191.75,
      "pitch": 69,
      "startTime": 188.75,
      "velocity": 90.0
    },
    {
      "endTime": 192.5,
      "pitch": 72,
      "startTime": 192.25,
      "velocity": 90.0
    },
    {
      "endTime": 192.75,
      "pitch": 72,
      "startTime": 192.5,
      "velocity": 90.0
    },
    {
      "endTime": 198.75,
      "pitch": 50,
      "startTime": 192.75,
      "velocity": 90.0
    },
    {
      "endTime": 198.75,
      "pitch": 54,
      "startTime": 192.75,
      "velocity": 90.0
    },
    {
      "endTime": 197.75,
      "pitch": 57,
      "startTime": 192.75,
      "velocity": 90.0
    },
    {
      "endTime": 198.75,
      "pitch": 60,
      "startTime": 192.75,
      "velocity": 90.0
    },
    {
      "endTime": 193.0,
      "pitch": 72,
      "startTime": 192.75,
      "velocity": 90.0
    },
    {
      "endTime": 193.5,
      "pitch": 72,
      "startTime": 193.0,
      "velocity": 90.0
    },
    {
      "endTime": 194.75,
      "pitch": 72,
      "startTime": 193.5,
      "velocity": 90.0
    },
    {
      "endTime": 195.5,
      "pitch": 72,
      "startTime": 195.25,
      "velocity": 90.0
    },
    {
      "endTime": 195.75,
      "pitch": 73,
      "startTime": 195.5,
      "velocity": 90.0
    },
    {
      "endTime": 196.25,
      "pitch": 74,
      "startTime": 195.75,
      "velocity": 90.0
    },
    {
      "endTime": 196.75,
      "pitch": 69,
      "startTime": 196.25,
      "velocity": 90.0
    },
    {
      "endTime": 197.75,
      "pitch": 55,
      "startTime": 196.75,
      "velocity": 90.0
    },
    {
      "endTime": 200.75,
      "pitch": 62,
      "startTime": 196.75,
      "velocity": 90.0
    },
    {
      "endTime": 197.75,
      "pitch": 67,
      "startTime": 196.75,
      "velocity": 90.0
    },
    {
      "endTime": 201.25,
      "pitch": 52,
      "startTime": 197.75,
      "velocity": 90.0
    },
    {
      "endTime": 200.75,
      "pitch": 55,
      "startTime": 197.75,
      "velocity": 90.0
    },
    {
      "endTime": 198.75,
      "pitch": 57,
      "startTime": 197.75,
      "velocity": 90.0
    },
    {
      "endTime": 198.75,
      "pitch": 69,
      "startTime": 197.75,
      "velocity": 90.0
    },
    {
      "endTime": 201.25,
      "pitch": 50,
      "startTime": 198.75,
      "velocity": 90.0
    },
    {
      "endTime": 218.75,
      "pitch": 54,
      "startTime": 198.75,
      "velocity": 90.0
    },
    {
      "endTime": 218.75,
      "pitch": 57,
      "startTime": 198.75,
      "velocity": 90.0
    },
    {
      "endTime": 218.75,
      "pitch": 60,
      "startTime": 198.75,
      "velocity": 90.0
    },
    {
      "endTime": 200.25,
      "pitch": 74,
      "startTime": 198.75,
      "velocity": 90.0
    },
    {
      "endTime": 200.5,
      "pitch": 70,
      "startTime": 200.25,
      "velocity": 90.0
    },
    {
      "endTime": 200.75,
      "pitch": 71,
      "startTime": 200.5,
      "velocity": 90.0
    },
    {
      "endTime": 201.75,
      "pitch": 55,
      "startTime": 200.75,
      "velocity": 90.0
    },
    {
      "endTime": 201.75,
      "pitch": 59,
      "startTime": 200.75,
      "velocity": 90.0
    },
    {
      "endTime": 201.75,
      "pitch": 62,
      "startTime": 200.75,
      "velocity": 90.0
    },
    {
      "endTime": 201.25,
      "pitch": 67,
      "startTime": 200.75,
      "velocity": 90.0
    },
    {
      "endTime": 202.25,
      "pitch": 43,
      "startTime": 201.25,
      "velocity": 90.0
    },
    {
      "endTime": 202.25,
      "pitch": 47,
      "startTime": 201.25,
      "velocity": 90.0
    },
    {
      "endTime": 202.25,
      "pitch": 50,
      "startTime": 201.25,
      "velocity": 90.0
    },
    {
      "endTime": 202.25,
      "pitch": 52,
      "startTime": 201.25,
      "velocity": 90.0
    },
    {
      "endTime": 201.5,
      "pitch": 70,
      "startTime": 201.25,
      "velocity": 90.0
    },
    {
      "endTime": 201.75,
      "pitch": 71,
      "startTime": 201.5,
      "velocity": 90.0
    },
    {
      "endTime": 202.75,
      "pitch": 55,
      "startTime": 201.75,
      "velocity": 90.0
    },
    {
      "endTime": 202.75,
      "pitch": 59,
      "startTime": 201.75,
      "velocity": 90.0
    },
    {
      "endTime": 202.75,
      "pitch": 62,
      "startTime": 201.75,
      "velocity": 90.0
    },
    {
      "endTime": 202.25,
      "pitch": 67,
      "startTime": 201.75,
      "velocity": 90.0
    },
    {
      "endTime": 203.25,
      "pitch": 43,
      "startTime": 202.25,
      "velocity": 90.0
    },
    {
      "endTime": 203.25,
      "pitch": 47,
      "startTime": 202.25,
      "velocity": 90.0
    },
    {
      "endTime": 203.25,
      "pitch": 50,
      "startTime": 202.25,
      "velocity": 90.0
    },
    {
      "endTime": 203.25,
      "pitch": 52,
      "startTime": 202.25,
      "velocity": 90.0
    },
    {
      "endTime": 202.5,
      "pitch": 70,
      "startTime": 202.25,
      "velocity": 90.0
    },
    {
      "endTime": 202.75,
      "pitch": 71,
      "startTime": 202.5,
      "velocity": 90.0
    },
    {
      "endTime": 203.75,
      "pitch": 55,
      "startTime": 202.75,
      "velocity": 90.0
    },
    {
      "endTime": 203.75,
      "pitch": 59,
      "startTime": 202.75,
      "velocity": 90.0
    },
    {
      "endTime": 203.75,
      "pitch": 62,
      "startTime": 202.75,
      "velocity": 90.0
    },
    {
      "endTime": 203.25,
      "pitch": 67,
      "startTime": 202.75,
      "velocity": 90.0
    },
    {
      "endTime": 204.25,
      "pitch": 43,
      "startTime": 203.25,
      "velocity": 90.0
    },
    {
      "endTime": 204.25,
      "pitch": 47,
      "startTime": 203.25,
      "velocity": 90.0
    },
    {
      "endTime": 204.25,
      "pitch": 50,
      "startTime": 203.25,
      "velocity": 90.0
    },
    {
      "endTime": 204.25,
      "pitch": 52,
      "startTime": 203.25,
      "velocity": 90.0
    },
    {
      "endTime": 203.5,
      "pitch": 70,
      "startTime": 203.25,
      "velocity": 90.0
    },
    {
      "endTime": 203.75,
      "pitch": 71,
      "startTime": 203.5,
      "velocity": 90.0
    },
    {
      "endTime": 206.75,
      "pitch": 55,
      "startTime": 203.75,
      "velocity": 90.0
    },
    {
      "endTime": 206.75,
      "pitch": 59,
      "startTime": 203.75,
      "velocity": 90.0
    },
    {
      "endTime": 206.75,
      "pitch": 62,
      "startTime": 203.75,
      "velocity": 90.0
    },
    {
      "endTime": 204.0,
      "pitch": 67,
      "startTime": 203.75,
      "velocity": 90.0
    },
    {
      "endTime": 204.25,
      "pitch": 70,
      "startTime": 204.0,
      "velocity": 90.0
    },
    {
      "endTime": 204.75,
      "pitch": 43,
      "startTime": 204.25,
      "velocity": 90.0
    },
    {
      "endTime": 204.75,
      "pitch": 47,
      "startTime": 204.25,
      "velocity": 90.0
    },
    {
      "endTime": 204.75,
      "pitch": 50,
      "startTime": 204.25,
      "velocity": 90.0
    },
    {
      "endTime": 204.75,
      "pitch": 52,
      "startTime": 204.25,
      "velocity": 90.0
    },
    {
      "endTime": 204.5,
      "pitch": 71,
      "startTime": 204.25,
      "velocity": 90.0
    },
    {
      "endTime": 208.25,
      "pitch": 67,
      "startTime": 204.5,
      "velocity": 90.0
    },
    {
      "endTime": 212.75,
      "pitch": 43,
      "startTime": 204.75,
      "velocity": 90.0
    },
    {
      "endTime": 212.75,
      "pitch": 47,
      "startTime": 204.75,
      "velocity": 90.0
    },
    {
      "endTime": 212.75,
      "pitch": 50,
      "startTime": 204.75,
      "velocity": 90.0
    },
    {
      "endTime": 208.75,
      "pitch": 52,
      "startTime": 204.75,
      "velocity": 90.0
    },
    {
      "endTime": 208.75,
      "pitch": 55,
      "startTime": 206.75,
      "velocity": 90.0
    },
    {
      "endTime": 214.75,
      "pitch": 59,
      "startTime": 206.75,
      "velocity": 90.0
    },
    {
      "endTime": 214.75,
      "pitch": 62,
      "startTime": 206.75,
      "velocity": 90.0
    },
    {
      "endTime": 208.5,
      "pitch": 70,
      "startTime": 208.25,
      "velocity": 90.0
    },
    {
      "endTime": 208.75,
      "pitch": 71,
      "startTime": 208.5,
      "velocity": 90.0
    },
    {
      "endTime": 212.75,
      "pitch": 52,
      "startTime": 208.75,
      "velocity": 90.0
    },
    {
      "endTime": 214.75,
      "pitch": 55,
      "startTime": 208.75,
      "velocity": 90.0
    },
    {
      "endTime": 209.25,
      "pitch": 69,
      "startTime": 208.75,
      "velocity": 90.0
    },
    {
      "endTime": 209.5,
      "pitch": 67,
      "startTime": 209.25,
      "velocity": 90.0
    },
    {
      "endTime": 209.75,
      "pitch": 64,
      "startTime": 209.5,
      "velocity": 90.0
    },
    {
      "endTime": 210.25,
      "pitch": 67,
      "startTime": 209.75,
      "velocity": 90.0
    },
    {
      "endTime": 210.5,
      "pitch": 69,
      "startTime": 210.25,
      "velocity": 90.0
    },
    {
      "endTime": 210.75,
      "pitch": 70,
      "startTime": 210.5,
      "velocity": 90.0
    },
    {
      "endTime": 211.25,
      "pitch": 69,
      "startTime": 210.75,
      "velocity": 90.0
    },
    {
      "endTime": 211.5,
      "pitch": 67,
      "startTime": 211.25,
      "velocity": 90.0
    },
    {
      "endTime": 211.75,
      "pitch": 64,
      "startTime": 211.5,
      "velocity": 90.0
    },
    {
      "endTime": 212.0,
      "pitch": 67,
      "startTime": 211.75,
      "velocity": 90.0
    },
    {
      "endTime": 212.25,
      "pitch": 70,
      "startTime": 212.0,
      "velocity": 90.0
    },
    {
      "endTime": 212.5,
      "pitch": 71,
      "startTime": 212.25,
      "velocity": 90.0
    },
    {
      "endTime": 216.25,
      "pitch": 67,
      "startTime": 212.5,
      "velocity": 90.0
    },
    {
      "endTime": 216.75,
      "pitch": 50,
      "startTime": 212.75,
      "velocity": 90.0
    },
    {
      "endTime": 216.75,
      "pitch": 55,
      "startTime": 214.75,
      "velocity": 90.0
    },
    {
      "endTime": 216.75,
      "pitch": 59,
      "startTime": 214.75,
      "velocity": 90.0
    },
    {
      "endTime": 218.0,
      "pitch": 62,
      "startTime": 214.75,
      "velocity": 90.0
    },
    {
      "endTime": 216.5,
      "pitch": 70,
      "startTime": 216.25,
      "velocity": 90.0
    },
    {
      "endTime": 216.75,
      "pitch": 71,
      "startTime": 216.5,
      "velocity": 90.0
    },
    {
      "endTime": 218.75,
      "pitch": 50,
      "startTime": 216.75,
      "velocity": 90.0
    },
    {
      "endTime": 220.75,
      "pitch": 55,
      "startTime": 216.75,
      "velocity": 90.0
    },
    {
      "endTime": 220.75,
      "pitch": 59,
      "startTime": 216.75,
      "velocity": 90.0
    },
    {
      "endTime": 217.25,
      "pitch": 74,
      "startTime": 216.75,
      "velocity": 90.0
    },
    {
      "endTime": 217.5,
      "pitch": 70,
      "startTime": 217.25,
      "velocity": 90.0
    },
    {
      "endTime": 217.75,
      "pitch": 71,
      "startTime": 217.5,
      "velocity": 90.0
    },
    {
      "endTime": 218.0,
      "pitch": 62,
      "startTime": 217.75,
      "velocity": 90.0
    },
    {
      "endTime": 218.25,
      "pitch": 70,
      "startTime": 218.0,
      "velocity": 90.0
    },
    {
      "endTime": 218.5,
      "pitch": 71,
      "startTime": 218.25,
      "velocity": 90.0
    },
    {
      "endTime": 218.75,
      "pitch": 60,
      "startTime": 218.5,
      "velocity": 90.0
    },
    {
      "endTime": 219.0,
      "pitch": 60,
      "startTime": 218.75,
      "velocity": 90.0
    },
    {
      "endTime": 219.25,
      "pitch": 70,
      "startTime": 219.0,
      "velocity": 90.0
    },
    {
      "endTime": 219.5,
      "pitch": 71,
      "startTime": 219.25,
      "velocity": 90.0
    },
    {
      "endTime": 220.0,
      "pitch": 62,
      "startTime": 219.5,
      "velocity": 90.0
    },
    {
      "endTime": 220.25,
      "pitch": 70,
      "startTime": 220.0,
      "velocity": 90.0
    },
    {
      "endTime": 220.5,
      "pitch": 71,
      "startTime": 220.25,
      "velocity": 90.0
    },
    {
      "endTime": 224.75,
      "pitch": 67,
      "startTime": 220.5,
      "velocity": 90.0
    }
  ],
  "tempos": [],
  "timeSignatures": [],
  "totalTime": 224.75
}
