{
  "notes": [
    {
      "pitch": 50,
      "startTime": 0.0,
      "endTime": 2.0,
      "velocity": 90.0
    },
    {
      "pitch": 55,
      "startTime": 0.0,
      "endTime": 4.0,
      "velocity": 90.0
    },
    {
      "pitch": 59,
      "startTime": 0.0,
      "endTime": 4.0,
      "velocity": 90.0
    },
    {
      "pitch": 74,
      "startTime": 0.0,
      "endTime": 0.5,
      "velocity": 90.0
    },
    {
      "pitch": 70,
      "startTime": 0.5,
      "endTime": 0.75,
      "velocity": 90.0
    },
    {
      "pitch": 71,
      "startTime": 0.75,
      "endTime": 1.0,
      "velocity": 90.0
    },
    {
      "pitch": 62,
      "startTime": 1.0,
      "endTime": 1.25,
      "velocity": 90.0
    },
    {
      "pitch": 70,
      "startTime": 1.25,
      "endTime": 1.5,
      "velocity": 90.0
    },
    {
      "pitch": 71,
      "startTime": 1.5,
      "endTime": 1.75,
      "velocity": 90.0
    },
    {
      "pitch": 60,
      "startTime": 1.75,
      "endTime": 2.0,
      "velocity": 90.0
    },
    {
      "pitch": 50,
      "startTime": 2.0,
      "endTime": 8.0,
      "velocity": 90.0
    },
    {
      "pitch": 54,
      "startTime": 2.0,
      "endTime": 24.0,
      "velocity": 90.0
    },
    {
      "pitch": 57,
      "startTime": 2.0,
      "endTime": 24.0,
      "velocity": 90.0
    },
    {
      "pitch": 60,
      "startTime": 2.0,
      "endTime": 2.25,
      "velocity": 90.0
    },
    {
      "pitch": 70,
      "startTime": 2.25,
      "endTime": 2.5,
      "velocity": 90.0
    },
    {
      "pitch": 71,
      "startTime": 2.5,
      "endTime": 2.75,
      "velocity": 90.0
    },
    {
      "pitch": 62,
      "startTime": 2.75,
      "endTime": 3.25,
      "velocity": 90.0
    },
    {
      "pitch": 70,
      "startTime": 3.25,
      "endTime": 3.5,
      "velocity": 90.0
    },
    {
      "pitch": 71,
      "startTime": 3.5,
      "endTime": 3.75,
      "velocity": 90.0
    },
    {
      "pitch": 67,
      "startTime": 3.75,
      "endTime": 8.0,
      "velocity": 90.0
    },
    {
      "pitch": 55,
      "startTime": 4.0,
      "endTime": 10.0,
      "velocity": 90.0
    },
    {
      "pitch": 59,
      "startTime": 4.0,
      "endTime": 12.0,
      "velocity": 90.0
    },
    {
      "pitch": 62,
      "startTime": 4.0,
      "endTime": 12.0,
      "velocity": 90.0
    }
  ],
  "totalTime": 8.0,
  "tempos": [],
  "timeSignatures": []
}