{
  "notes": [
    {
      "pitch": 72,
      "startTime": 0.0,
      "endTime": 0.25,
      "velocity": 90.0
    },
    {
      "pitch": 72,
      "startTime": 0.25,
      "endTime": 2.0,
      "velocity": 90.0
    },
    {
      "pitch": 72,
      "startTime": 2.25,
      "endTime": 2.5,
      "velocity": 90.0
    },
    {
      "pitch": 72,
      "startTime": 2.5,
      "endTime": 2.75,
      "velocity": 90.0
    },
    {
      "pitch": 73,
      "startTime": 2.75,
      "endTime": 3.0,
      "velocity": 90.0
    },
    {
      "pitch": 74,
      "startTime": 3.0,
      "endTime": 3.25,
      "velocity": 90.0
    },
    {
      "pitch": 69,
      "startTime": 3.25,
      "endTime": 4.0,
      "velocity": 90.0
    },
    {
      "pitch": 55,
      "startTime": 4.0,
      "endTime": 5.0,
      "velocity": 90.0
    },
    {
      "pitch": 58,
      "startTime": 4.0,
      "endTime": 26.0,
      "velocity": 90.0
    },
    {
      "pitch": 62,
      "startTime": 4.0,
      "endTime": 12.0,
      "velocity": 90.0
    },
    {
      "pitch": 67,
      "startTime": 4.0,
      "endTime": 5.0,
      "velocity": 90.0
    },
    {
      "pitch": 49,
      "startTime": 5.0,
      "endTime": 59.25,
      "velocity": 90.0
    },
    {
      "pitch": 52,
      "startTime": 5.0,
      "endTime": 10.0,
      "velocity": 90.0
    },
    {
      "pitch": 55,
      "startTime": 5.0,
      "endTime": 10.0,
      "velocity": 90.0
    },
    {
      "pitch": 69,
      "startTime": 5.0,
      "endTime": 6.0,
      "velocity": 90.0
    },
    {
      "pitch": 50,
      "startTime": 6.0,
      "endTime": 7.0,
      "velocity": 90.0
    },
    {
      "pitch": 54,
      "startTime": 6.0,
      "endTime": 7.0,
      "velocity": 90.0
    },
    {
      "pitch": 57,
      "startTime": 6.0,
      "endTime": 7.0,
      "velocity": 90.0
    },
    {
      "pitch": 74,
      "startTime": 6.0,
      "endTime": 7.0,
      "velocity": 90.0
    },
    {
      "pitch": 50,
      "startTime": 7.0,
      "endTime": 8.0,
      "velocity": 90.0
    },
    {
      "pitch": 54,
      "startTime": 7.0,
      "endTime": 24.0,
      "velocity": 90.0
    },
    {
      "pitch": 57,
      "startTime": 7.0,
      "endTime": 24.0,
      "velocity": 90.0
    },
    {
      "pitch": 60,
      "startTime": 7.0,
      "endTime": 24.0,
      "velocity": 90.0
    },
    {
      "pitch": 72,
      "startTime": 7.0,
      "endTime": 8.0,
      "velocity": 90.0
    }
  ],
  "totalTime": 7.5,
  "tempos": [],
  "timeSignatures": []
}