{
  "notes": [
    {
      "pitch": 43,
      "startTime": 1.3333320000000004,
      "endTime": 4.666665000000002,
      "velocity": 0.3543307086614173
    },
    {
      "pitch": 59,
      "startTime": 2.4444430000000015,
      "endTime": 4.666665000000002,
      "velocity": 0.3543307086614173
    },
    {
      "pitch": 62,
      "startTime": 2.4444430000000015,
      "endTime": 4.666665000000002,
      "velocity": 0.3543307086614173
    },
    {
      "pitch": 66,
      "startTime": 2.4444430000000015,
      "endTime": 4.666665000000002,
      "velocity": 0.3543307086614173
    },
    {
      "pitch": 78,
      "startTime": 2.4444430000000015,
      "endTime": 3.5555540000000008,
      "velocity": 0.3543307086614173
    },
    {
      "pitch": 81,
      "startTime": 3.5555540000000008,
      "endTime": 4.666665000000002,
      "velocity": 0.3543307086614173
    },
    {
      "pitch": 38,
      "startTime": 4.666665000000002,
      "endTime": 7.9999980000000015,
      "velocity": 0.3543307086614173
    },
    {
      "pitch": 79,
      "startTime": 4.666665000000002,
      "endTime": 5.777776000000003,
      "velocity": 0.3543307086614173
    },
    {
      "pitch": 57,
      "startTime": 5.777776000000003,
      "endTime": 7.9999980000000015,
      "velocity": 0.3543307086614173
    },
    {
      "pitch": 61,
      "startTime": 5.777776000000003,
      "endTime": 7.9999980000000015,
      "velocity": 0.3543307086614173
    },
    {
      "pitch": 66,
      "startTime": 5.777776000000003,
      "endTime": 7.9999980000000015,
      "velocity": 0.3543307086614173
    },
    {
      "pitch": 78,
      "startTime": 5.777776000000003,
      "endTime": 6.888887,
      "velocity": 0.3543307086614173
    },
    {
      "pitch": 73,
      "startTime": 6.888887,
      "endTime": 7.9999980000000015,
      "velocity": 0.3543307086614173
    },
    {
      "pitch": 43,
      "startTime": 7.9999980000000015,
      "endTime": 11.333331000000001,
      "velocity": 0.3543307086614173
    },
    {
      "pitch": 71,
      "startTime": 7.9999980000000015,
      "endTime": 9.111109000000003,
      "velocity": 0.3543307086614173
    },
    {
      "pitch": 59,
      "startTime": 9.111109000000003,
      "endTime": 11.333331000000001,
      "velocity": 0.3543307086614173
    },
    {
      "pitch": 62,
      "startTime": 9.111109000000003,
      "endTime": 11.333331000000001,
      "velocity": 0.3543307086614173
    },
    {
      "pitch": 66,
      "startTime": 9.111109000000003,
      "endTime": 11.333331000000001,
      "velocity": 0.3543307086614173
    },
    {
      "pitch": 73,
      "startTime": 9.111109000000003,
      "endTime": 10.22222,
      "velocity": 0.3543307086614173
    },
    {
      "pitch": 74,
      "startTime": 10.22222,
      "endTime": 11.333331000000001,
      "velocity": 0.49606299212598426
    },
    {
      "pitch": 38,
      "startTime": 11.333331000000001,
      "endTime": 14.666664,
      "velocity": 0.49606299212598426
    },
    {
      "pitch": 69,
      "startTime": 11.333331000000001,
      "endTime": 14.666664,
      "velocity": 0.49606299212598426
    }
  ],
  "totalTime": 14.666664,
  "tempos": [
    {
      "time": 0.0,
      "qpm": 120.0
    }
  ],
  "timeSignatures": [
    {
      "time": 0.0,
      "numerator": 3,
      "denominator": 4
    }
  ]
}