{
  "notes": [
    {
      "pitch": 74,
      "startTime": 0.22221200000001318,
      "endTime": 1.3333230000000071,
      "velocity": 63.0
    },
    {
      "pitch": 40,
      "startTime": 1.3333230000000071,
      "endTime": 4.666656000000003,
      "velocity": 63.0
    },
    {
      "pitch": 79,
      "startTime": 1.3333230000000071,
      "endTime": 4.666656000000003,
      "velocity": 63.0
    },
    {
      "pitch": 59,
      "startTime": 2.4444340000000153,
      "endTime": 4.666656000000003,
      "velocity": 63.0
    },
    {
      "pitch": 64,
      "startTime": 2.4444340000000153,
      "endTime": 4.666656000000003,
      "velocity": 63.0
    },
    {
      "pitch": 67,
      "startTime": 2.4444340000000153,
      "endTime": 4.666656000000003,
      "velocity": 63.0
    },
    {
      "pitch": 42,
      "startTime": 4.666656000000003,
      "endTime": 7.999989000000014,
      "velocity": 63.0
    },
    {
      "pitch": 78,
      "startTime": 4.666656000000003,
      "endTime": 7.999989000000014,
      "velocity": 63.0
    },
    {
      "pitch": 57,
      "startTime": 5.777767000000011,
      "endTime": 7.999989000000014,
      "velocity": 63.0
    },
    {
      "pitch": 61,
      "startTime": 5.777767000000011,
      "endTime": 7.999989000000014,
      "velocity": 63.0
    },
    {
      "pitch": 66,
      "startTime": 5.777767000000011,
      "endTime": 7.999989000000014,
      "velocity": 63.0
    },
    {
      "pitch": 35,
      "startTime": 7.999989000000014,
      "endTime": 11.33332200000001,
      "velocity": 81.0
    },
    {
      "pitch": 71,
      "startTime": 7.999989000000014,
      "endTime": 9.111100000000008,
      "velocity": 81.0
    },
    {
      "pitch": 59,
      "startTime": 9.111100000000008,
      "endTime": 11.33332200000001,
      "velocity": 81.0
    },
    {
      "pitch": 62,
      "startTime": 9.111100000000008,
      "endTime": 11.33332200000001,
      "velocity": 81.0
    },
    {
      "pitch": 66,
      "startTime": 9.111100000000008,
      "endTime": 11.33332200000001,
      "velocity": 81.0
    },
    {
      "pitch": 69,
      "startTime": 9.111100000000008,
      "endTime": 10.222211000000016,
      "velocity": 81.0
    },
    {
      "pitch": 71,
      "startTime": 10.222211000000016,
      "endTime": 11.33332200000001,
      "velocity": 81.0
    },
    {
      "pitch": 40,
      "startTime": 11.33332200000001,
      "endTime": 14.666655000000006,
      "velocity": 81.0
    },
    {
      "pitch": 73,
      "startTime": 11.33332200000001,
      "endTime": 12.444433000000004,
      "velocity": 81.0
    },
    {
      "pitch": 61,
      "startTime": 12.444433000000004,
      "endTime": 14.666655000000006,
      "velocity": 81.0
    },
    {
      "pitch": 64,
      "startTime": 12.444433000000004,
      "endTime": 14.666655000000006,
      "velocity": 81.0
    },
    {
      "pitch": 69,
      "startTime": 12.444433000000004,
      "endTime": 14.666655000000006,
      "velocity": 81.0
    },
    {
      "pitch": 74,
      "startTime": 12.444433000000004,
      "endTime": 13.555544000000012,
      "velocity": 81.0
    },
    {
      "pitch": 76,
      "startTime": 13.555544000000012,
      "endTime": 14.666655000000006,
      "velocity": 81.0
    }
  ],
  "totalTime": 14.5,
  "tempos": [],
  "timeSignatures": []
}