{
  "notes": [
    {
      "pitch": 43,
      "startTime": 0.0,
      "endTime": 3.333333,
      "velocity": 0.3543307086614173
    },
    {
      "pitch": 59,
      "startTime": 1.1111110000000002,
      "endTime": 3.333333,
      "velocity": 0.3543307086614173
    },
    {
      "pitch": 62,
      "startTime": 1.1111110000000002,
      "endTime": 3.333333,
      "velocity": 0.3543307086614173
    },
    {
      "pitch": 66,
      "startTime": 1.1111110000000002,
      "endTime": 3.333333,
      "velocity": 0.3543307086614173
    },
    {
      "pitch": 38,
      "startTime": 3.333333,
      "endTime": 6.666666,
      "velocity": 0.3543307086614173
    },
    {
      "pitch": 57,
      "startTime": 4.444444000000001,
      "endTime": 6.666666,
      "velocity": 0.3543307086614173
    },
    {
      "pitch": 61,
      "startTime": 4.444444000000001,
      "endTime": 6.666666,
      "velocity": 0.3543307086614173
    },
    {
      "pitch": 66,
      "startTime": 4.444444000000001,
      "endTime": 6.666666,
      "velocity": 0.3543307086614173
    },
    {
      "pitch": 43,
      "startTime": 6.666666,
      "endTime": 9.999999,
      "velocity": 0.3543307086614173
    },
    {
      "pitch": 59,
      "startTime": 7.777777,
      "endTime": 9.999999,
      "velocity": 0.3543307086614173
    },
    {
      "pitch": 62,
      "startTime": 7.777777,
      "endTime": 9.999999,
      "velocity": 0.3543307086614173
    },
    {
      "pitch": 66,
      "startTime": 7.777777,
      "endTime": 9.999999,
      "velocity": 0.3543307086614173
    },
    {
      "pitch": 38,
      "startTime": 9.999999,
      "endTime": 13.333332,
      "velocity": 0.3543307086614173
    },
    {
      "pitch": 57,
      "startTime": 11.11111,
      "endTime": 13.333332,
      "velocity": 0.3543307086614173
    },
    {
      "pitch": 61,
      "startTime": 11.11111,
      "endTime": 13.333332,
      "velocity": 0.3543307086614173
    },
    {
      "pitch": 66,
      "startTime": 11.11111,
      "endTime": 13.333332,
      "velocity": 0.3543307086614173
    },
    {
      "pitch": 43,
      "startTime": 13.333332,
      "endTime": 16.666665000000002,
      "velocity": 0.3543307086614173
    },
    {
      "pitch": 59,
      "startTime": 14.444443000000001,
      "endTime": 16.666665000000002,
      "velocity": 0.3543307086614173
    },
    {
      "pitch": 62,
      "startTime": 14.444443000000001,
      "endTime": 16.666665000000002,
      "velocity": 0.3543307086614173
    },
    {
      "pitch": 66,
      "startTime": 14.444443000000001,
      "endTime": 16.666665000000002,
      "velocity": 0.3543307086614173
    },
    {
      "pitch": 78,
      "startTime": 14.444443000000001,
      "endTime": 15.555554,
      "velocity": 0.3543307086614173
    },
    {
      "pitch": 81,
      "startTime": 15.555554,
      "endTime": 16.666665000000002,
      "velocity": 0.3543307086614173
    },
    {
      "pitch": 38,
      "startTime": 16.666665000000002,
      "endTime": 19.999998,
      "velocity": 0.3543307086614173
    },
    {
      "pitch": 79,
      "startTime": 16.666665000000002,
      "endTime": 17.777776000000003,
      "velocity": 0.3543307086614173
    },
    {
      "pitch": 57,
      "startTime": 17.777776000000003,
      "endTime": 19.999998,
      "velocity": 0.3543307086614173
    },
    {
      "pitch": 61,
      "startTime": 17.777776000000003,
      "endTime": 19.999998,
      "velocity": 0.3543307086614173
    },
    {
      "pitch": 66,
      "startTime": 17.777776000000003,
      "endTime": 19.999998,
      "velocity": 0.3543307086614173
    },
    {
      "pitch": 78,
      "startTime": 17.777776000000003,
      "endTime": 18.888887,
      "velocity": 0.3543307086614173
    },
    {
      "pitch": 73,
      "startTime": 18.888887,
      "endTime": 19.999998,
      "velocity": 0.3543307086614173
    },
    {
      "pitch": 43,
      "startTime": 19.999998,
      "endTime": 23.333331,
      "velocity": 0.3543307086614173
    },
    {
      "pitch": 71,
      "startTime": 19.999998,
      "endTime": 21.111109000000003,
      "velocity": 0.3543307086614173
    },
    {
      "pitch": 59,
      "startTime": 21.111109000000003,
      "endTime": 23.333331,
      "velocity": 0.3543307086614173
    },
    {
      "pitch": 62,
      "startTime": 21.111109000000003,
      "endTime": 23.333331,
      "velocity": 0.3543307086614173
    },
    {
      "pitch": 66,
      "startTime": 21.111109000000003,
      "endTime": 23.333331,
      "velocity": 0.3543307086614173
    },
    {
      "pitch": 73,
      "startTime": 21.111109000000003,
      "endTime": 22.22222,
      "velocity": 0.3543307086614173
    },
    {
      "pitch": 74,
      "startTime": 22.22222,
      "endTime": 23.333331,
      "velocity": 0.49606299212598426
    },
    {
      "pitch": 38,
      "startTime": 23.333331,
      "endTime": 26.666664,
      "velocity": 0.49606299212598426
    },
    {
      "pitch": 69,
      "startTime": 23.333331,
      "endTime": 26.666664,
      "velocity": 0.49606299212598426
    }
  ],
  "totalTime": 26.666664,
  "tempos": [
    {
      "time": 0.0,
      "qpm": 120.0
    },
    {
      "time": 0.0,
      "qpm": 120.0
    },
    {
      "time": 0.0,
      "qpm": 120.0
    }
  ],
  "timeSignatures": [
    {
      "time": 0.0,
      "numerator": 3,
      "denominator": 4
    },
    {
      "time": 0.0,
      "numerator": 3,
      "denominator": 4
    }
  ]
}