{
  "notes": [
    {
      "pitch": 40,
      "startTime": 1.499994000000008,
      "endTime": 4.833327000000004,
      "velocity": 0.3543307086614173
    },
    {
      "pitch": 64,
      "startTime": 1.499994000000008,
      "endTime": 4.833327000000004,
      "velocity": 0.3543307086614173
    },
    {
      "pitch": 55,
      "startTime": 2.611105000000002,
      "endTime": 4.833327000000004,
      "velocity": 0.3543307086614173
    },
    {
      "pitch": 59,
      "startTime": 2.611105000000002,
      "endTime": 4.833327000000004,
      "velocity": 0.3543307086614173
    },
    {
      "pitch": 40,
      "startTime": 4.833327000000004,
      "endTime": 8.166660000000007,
      "velocity": 0.3543307086614173
    },
    {
      "pitch": 64,
      "startTime": 4.833327000000004,
      "endTime": 11.499993000000003,
      "velocity": 0.3543307086614173
    },
    {
      "pitch": 59,
      "startTime": 5.944438000000005,
      "endTime": 8.166660000000007,
      "velocity": 0.3543307086614173
    },
    {
      "pitch": 62,
      "startTime": 5.944438000000005,
      "endTime": 8.166660000000007,
      "velocity": 0.3543307086614173
    },
    {
      "pitch": 67,
      "startTime": 5.944438000000005,
      "endTime": 8.166660000000007,
      "velocity": 0.3543307086614173
    },
    {
      "pitch": 38,
      "startTime": 8.166660000000007,
      "endTime": 11.499993000000003,
      "velocity": 0.3543307086614173
    },
    {
      "pitch": 53,
      "startTime": 9.277771000000001,
      "endTime": 11.499993000000003,
      "velocity": 0.3543307086614173
    },
    {
      "pitch": 57,
      "startTime": 9.277771000000001,
      "endTime": 11.499993000000003,
      "velocity": 0.3543307086614173
    },
    {
      "pitch": 62,
      "startTime": 9.277771000000001,
      "endTime": 11.499993000000003,
      "velocity": 0.3543307086614173
    },
    {
      "pitch": 33,
      "startTime": 11.499993000000003,
      "endTime": 14.833326,
      "velocity": 0.49606299212598426
    },
    {
      "pitch": 69,
      "startTime": 11.499993000000003,
      "endTime": 12.611104000000012,
      "velocity": 0.49606299212598426
    },
    {
      "pitch": 57,
      "startTime": 12.611104000000012,
      "endTime": 14.833326,
      "velocity": 0.49606299212598426
    },
    {
      "pitch": 60,
      "startTime": 12.611104000000012,
      "endTime": 14.833326,
      "velocity": 0.49606299212598426
    },
    {
      "pitch": 64,
      "startTime": 12.611104000000012,
      "endTime": 14.833326,
      "velocity": 0.49606299212598426
    },
    {
      "pitch": 71,
      "startTime": 12.611104000000012,
      "endTime": 13.722215000000006,
      "velocity": 0.49606299212598426
    },
    {
      "pitch": 72,
      "startTime": 13.722215000000006,
      "endTime": 14.833326,
      "velocity": 0.49606299212598426
    },
    {
      "pitch": 38,
      "startTime": 14.833326,
      "endTime": 18.16665900000001,
      "velocity": 0.49606299212598426
    },
    {
      "pitch": 76,
      "startTime": 14.833326,
      "endTime": 15.944437000000008,
      "velocity": 0.49606299212598426
    },
    {
      "pitch": 55,
      "startTime": 15.944437000000008,
      "endTime": 18.16665900000001,
      "velocity": 0.49606299212598426
    },
    {
      "pitch": 59,
      "startTime": 15.944437000000008,
      "endTime": 18.16665900000001,
      "velocity": 0.49606299212598426
    },
    {
      "pitch": 64,
      "startTime": 15.944437000000008,
      "endTime": 18.16665900000001,
      "velocity": 0.49606299212598426
    },
    {
      "pitch": 74,
      "startTime": 15.944437000000008,
      "endTime": 17.055548,
      "velocity": 0.49606299212598426
    },
    {
      "pitch": 71,
      "startTime": 17.055548,
      "endTime": 18.16665900000001,
      "velocity": 0.49606299212598426
    }
  ],
  "totalTime": 18.16665900000001,
  "tempos": [
    {
      "time": 0.0,
      "qpm": 120.0
    }
  ],
  "timeSignatures": [
    {
      "time": 0.0,
      "numerator": 3,
      "denominator": 4
    }
  ]
}