{
  "notes": [
    {
      "pitch": 81,
      "startTime": 0.22221800000000513,
      "endTime": 1.3333290000000062,
      "velocity": 45.0
    },
    {
      "pitch": 79,
      "startTime": 1.3333290000000062,
      "endTime": 2.44444,
      "velocity": 45.0
    },
    {
      "pitch": 78,
      "startTime": 2.44444,
      "endTime": 3.5555510000000012,
      "velocity": 45.0
    },
    {
      "pitch": 73,
      "startTime": 3.5555510000000012,
      "endTime": 4.666662000000002,
      "velocity": 45.0
    },
    {
      "pitch": 71,
      "startTime": 4.666662000000002,
      "endTime": 5.777773000000003,
      "velocity": 45.0
    },
    {
      "pitch": 73,
      "startTime": 5.777773000000003,
      "endTime": 6.8888840000000044,
      "velocity": 45.0
    },
    {
      "pitch": 74,
      "startTime": 6.8888840000000044,
      "endTime": 7.9999950000000055,
      "velocity": 45.0
    },
    {
      "pitch": 69,
      "startTime": 7.9999950000000055,
      "endTime": 11.333328000000002,
      "velocity": 63.0
    },
    {
      "pitch": 73,
      "startTime": 11.333328000000002,
      "endTime": 14.666661000000005,
      "velocity": 63.0
    },
    {
      "pitch": 78,
      "startTime": 14.666661000000005,
      "endTime": 17.999994000000008,
      "velocity": 63.0
    },
    {
      "pitch": 64,
      "startTime": 17.999994000000008,
      "endTime": 27.999993000000003,
      "velocity": 45.0
    },
    {
      "pitch": 69,
      "startTime": 27.999993000000003,
      "endTime": 29.11110400000001,
      "velocity": 63.0
    },
    {
      "pitch": 71,
      "startTime": 29.11110400000001,
      "endTime": 30.222215000000006,
      "velocity": 63.0
    },
    {
      "pitch": 72,
      "startTime": 30.222215000000006,
      "endTime": 31.333326,
      "velocity": 63.0
    },
    {
      "pitch": 76,
      "startTime": 31.333326,
      "endTime": 32.44443700000001,
      "velocity": 63.0
    },
    {
      "pitch": 74,
      "startTime": 32.44443700000001,
      "endTime": 33.555548,
      "velocity": 63.0
    },
    {
      "pitch": 71,
      "startTime": 33.555548,
      "endTime": 34.66665900000001,
      "velocity": 63.0
    },
    {
      "pitch": 74,
      "startTime": 34.66665900000001,
      "endTime": 35.777770000000004,
      "velocity": 63.0
    },
    {
      "pitch": 72,
      "startTime": 35.777770000000004,
      "endTime": 36.88888100000001,
      "velocity": 63.0
    },
    {
      "pitch": 71,
      "startTime": 36.88888100000001,
      "endTime": 37.999992000000006,
      "velocity": 63.0
    },
    {
      "pitch": 74,
      "startTime": 37.999992000000006,
      "endTime": 43.555547000000004,
      "velocity": 81.0
    },
    {
      "pitch": 74,
      "startTime": 43.555547000000004,
      "endTime": 44.66665800000001,
      "velocity": 63.0
    },
    {
      "pitch": 76,
      "startTime": 44.66665800000001,
      "endTime": 45.777769000000006,
      "velocity": 63.0
    },
    {
      "pitch": 77,
      "startTime": 45.777769000000006,
      "endTime": 46.88888,
      "velocity": 63.0
    },
    {
      "pitch": 79,
      "startTime": 46.88888,
      "endTime": 47.99999100000001,
      "velocity": 63.0
    },
    {
      "pitch": 81,
      "startTime": 47.99999100000001,
      "endTime": 49.111102,
      "velocity": 63.0
    },
    {
      "pitch": 72,
      "startTime": 49.111102,
      "endTime": 50.22221300000001,
      "velocity": 63.0
    },
    {
      "pitch": 74,
      "startTime": 50.22221300000001,
      "endTime": 51.333324000000005,
      "velocity": 63.0
    },
    {
      "pitch": 76,
      "startTime": 51.333324000000005,
      "endTime": 52.44443500000001,
      "velocity": 81.0
    },
    {
      "pitch": 74,
      "startTime": 52.44443500000001,
      "endTime": 53.55554600000001,
      "velocity": 81.0
    },
    {
      "pitch": 71,
      "startTime": 53.55554600000001,
      "endTime": 54.666657000000015,
      "velocity": 81.0
    },
    {
      "pitch": 74,
      "startTime": 54.666657000000015,
      "endTime": 60.22221200000001,
      "velocity": 81.0
    },
    {
      "pitch": 74,
      "startTime": 60.22221200000001,
      "endTime": 61.33332300000001,
      "velocity": 63.0
    },
    {
      "pitch": 79,
      "startTime": 61.33332300000001,
      "endTime": 64.666656,
      "velocity": 63.0
    },
    {
      "pitch": 78,
      "startTime": 64.666656,
      "endTime": 67.99998900000001,
      "velocity": 63.0
    },
    {
      "pitch": 71,
      "startTime": 67.99998900000001,
      "endTime": 69.11110000000001,
      "velocity": 81.0
    },
    {
      "pitch": 69,
      "startTime": 69.11110000000001,
      "endTime": 70.22221100000002,
      "velocity": 81.0
    },
    {
      "pitch": 71,
      "startTime": 70.22221100000002,
      "endTime": 71.33332200000001,
      "velocity": 81.0
    },
    {
      "pitch": 73,
      "startTime": 71.33332200000001,
      "endTime": 72.444433,
      "velocity": 81.0
    },
    {
      "pitch": 74,
      "startTime": 72.444433,
      "endTime": 73.55554400000001,
      "velocity": 81.0
    },
    {
      "pitch": 76,
      "startTime": 73.55554400000001,
      "endTime": 74.666655,
      "velocity": 81.0
    }
  ],
  "totalTime": 74.5,
  "tempos": [],
  "timeSignatures": []
}