{
  "notes": [
    {
      "endTime": 3.333333,
      "pitch": 43,
      "startTime": 0.0,
      "velocity": 0.3543307086614173
    },
    {
      "endTime": 3.333333,
      "pitch": 59,
      "startTime": 1.1111110000000002,
      "velocity": 0.3543307086614173
    },
    {
      "endTime": 3.333333,
      "pitch": 62,
      "startTime": 1.1111110000000002,
      "velocity": 0.3543307086614173
    },
    {
      "endTime": 3.333333,
      "pitch": 66,
      "startTime": 1.1111110000000002,
      "velocity": 0.3543307086614173
    },
    {
      "endTime": 6.666666,
      "pitch": 38,
      "startTime": 3.333333,
      "velocity": 0.3543307086614173
    },
    {
      "endTime": 6.666666,
      "pitch": 57,
      "startTime": 4.444444000000001,
      "velocity": 0.3543307086614173
    },
    {
      "endTime": 6.666666,
      "pitch": 61,
      "startTime": 4.444444000000001,
      "velocity": 0.3543307086614173
    },
    {
      "endTime": 6.666666,
      "pitch": 66,
      "startTime": 4.444444000000001,
      "velocity": 0.3543307086614173
    },
    {
      "endTime": 9.999999,
      "pitch": 43,
      "startTime": 6.666666,
      "velocity": 0.3543307086614173
    },
    {
      "endTime": 9.999999,
      "pitch": 59,
      "startTime": 7.777777,
      "velocity": 0.3543307086614173
    },
    {
      "endTime": 9.999999,
      "pitch": 62,
      "startTime": 7.777777,
      "velocity": 0.3543307086614173
    },
    {
      "endTime": 9.999999,
      "pitch": 66,
      "startTime": 7.777777,
      "velocity": 0.3543307086614173
    },
    {
      "endTime": 13.333332,
      "pitch": 38,
      "startTime": 9.999999,
      "velocity": 0.3543307086614173
    },
    {
      "endTime": 13.333332,
      "pitch": 57,
      "startTime": 11.11111,
      "velocity": 0.3543307086614173
    },
    {
      "endTime": 13.333332,
      "pitch": 61,
      "startTime": 11.11111,
      "velocity": 0.3543307086614173
    },
    {
      "endTime": 13.333332,
      "pitch": 66,
      "startTime": 11.11111,
      "velocity": 0.3543307086614173
    },
    {
      "endTime": 16.666665000000002,
      "pitch": 43,
      "startTime": 13.333332,
      "velocity": 0.3543307086614173
    },
    {
      "endTime": 16.666665000000002,
      "pitch": 59,
      "startTime": 14.444443000000001,
      "velocity": 0.3543307086614173
    },
    {
      "endTime": 16.666665000000002,
      "pitch": 62,
      "startTime": 14.444443000000001,
      "velocity": 0.3543307086614173
    },
    {
      "endTime": 16.666665000000002,
      "pitch": 66,
      "startTime": 14.444443000000001,
      "velocity": 0.3543307086614173
    },
    {
      "endTime": 15.555554,
      "pitch": 78,
      "startTime": 14.444443000000001,
      "velocity": 0.3543307086614173
    },
    {
      "endTime": 16.666665000000002,
      "pitch": 81,
      "startTime": 15.555554,
      "velocity": 0.3543307086614173
    },
    {
      "endTime": 19.999998,
      "pitch": 38,
      "startTime": 16.666665000000002,
      "velocity": 0.3543307086614173
    },
    {
      "endTime": 17.777776000000003,
      "pitch": 79,
      "startTime": 16.666665000000002,
      "velocity": 0.3543307086614173
    },
    {
      "endTime": 19.999998,
      "pitch": 57,
      "startTime": 17.777776000000003,
      "velocity": 0.3543307086614173
    },
    {
      "endTime": 19.999998,
      "pitch": 61,
      "startTime": 17.777776000000003,
      "velocity": 0.3543307086614173
    },
    {
      "endTime": 19.999998,
      "pitch": 66,
      "startTime": 17.777776000000003,
      "velocity": 0.3543307086614173
    },
    {
      "endTime": 18.888887,
      "pitch": 78,
      "startTime": 17.777776000000003,
      "velocity": 0.3543307086614173
    },
    {
      "endTime": 19.999998,
      "pitch": 73,
      "startTime": 18.888887,
      "velocity": 0.3543307086614173
    },
    {
      "endTime": 23.333331,
      "pitch": 43,
      "startTime": 19.999998,
      "velocity": 0.3543307086614173
    },
    {
      "endTime": 21.111109000000003,
      "pitch": 71,
      "startTime": 19.999998,
      "velocity": 0.3543307086614173
    },
    {
      "endTime": 23.333331,
      "pitch": 59,
      "startTime": 21.111109000000003,
      "velocity": 0.3543307086614173
    },
    {
      "endTime": 23.333331,
      "pitch": 62,
      "startTime": 21.111109000000003,
      "velocity": 0.3543307086614173
    },
    {
      "endTime": 23.333331,
      "pitch": 66,
      "startTime": 21.111109000000003,
      "velocity": 0.3543307086614173
    },
    {
      "endTime": 22.22222,
      "pitch": 73,
      "startTime": 21.111109000000003,
      "velocity": 0.3543307086614173
    },
    {
      "endTime": 23.333331,
      "pitch": 74,
      "startTime": 22.22222,
      "velocity": 0.49606299212598426
    },
    {
      "endTime": 26.666664,
      "pitch": 38,
      "startTime": 23.333331,
      "velocity": 0.49606299212598426
    },
    {
      "endTime": 26.666664,
      "pitch": 69,
      "startTime": 23.333331,
      "velocity": 0.49606299212598426
    },
    {
      "endTime": 26.666664,
      "pitch": 57,
      "startTime": 24.444442000000002,
      "velocity": 0.49606299212598426
    },
    {
      "endTime": 26.666664,
      "pitch": 61,
      "startTime": 24.444442000000002,
      "velocity": 0.49606299212598426
    },
    {
      "endTime": 26.666664,
      "pitch": 66,
      "startTime": 24.444442000000002,
      "velocity": 0.49606299212598426
    },
    {
      "endTime": 29.999997000000004,
      "pitch": 43,
      "startTime": 26.666664,
      "velocity": 0.3543307086614173
    },
    {
      "endTime": 29.999997000000004,
      "pitch": 66,
      "startTime": 26.666664,
      "velocity": 0.3543307086614173
    },
    {
      "endTime": 29.999997000000004,
      "pitch": 59,
      "startTime": 27.777775000000002,
      "velocity": 0.9921259842519685
    },
    {
      "endTime": 29.999997000000004,
      "pitch": 62,
      "startTime": 27.777775000000002,
      "velocity": 0.9921259842519685
    },
    {
      "endTime": 29.999997000000004,
      "pitch": 66,
      "startTime": 27.777775000000002,
      "velocity": 0.9921259842519685
    },
    {
      "endTime": 33.333330000000004,
      "pitch": 38,
      "startTime": 29.999997000000004,
      "velocity": 0.3543307086614173
    },
    {
      "endTime": 33.333330000000004,
      "pitch": 66,
      "startTime": 29.999997000000004,
      "velocity": 0.3543307086614173
    },
    {
      "endTime": 33.333330000000004,
      "pitch": 57,
      "startTime": 31.111108,
      "velocity": 0.3543307086614173
    },
    {
      "endTime": 33.333330000000004,
      "pitch": 61,
      "startTime": 31.111108,
      "velocity": 0.3543307086614173
    },
    {
      "endTime": 33.333330000000004,
      "pitch": 66,
      "startTime": 31.111108,
      "velocity": 0.3543307086614173
    },
    {
      "endTime": 36.666663,
      "pitch": 43,
      "startTime": 33.333330000000004,
      "velocity": 0.3543307086614173
    },
    {
      "endTime": 36.666663,
      "pitch": 66,
      "startTime": 33.333330000000004,
      "velocity": 0.3543307086614173
    },
    {
      "endTime": 36.666663,
      "pitch": 59,
      "startTime": 34.444441000000005,
      "velocity": 0.3543307086614173
    },
    {
      "endTime": 36.666663,
      "pitch": 62,
      "startTime": 34.444441000000005,
      "velocity": 0.3543307086614173
    },
    {
      "endTime": 36.666663,
      "pitch": 66,
      "startTime": 34.444441000000005,
      "velocity": 0.3543307086614173
    },
    {
      "endTime": 39.999996,
      "pitch": 38,
      "startTime": 36.666663,
      "velocity": 0.3543307086614173
    },
    {
      "endTime": 39.999996,
      "pitch": 57,
      "startTime": 37.777774,
      "velocity": 0.3543307086614173
    },
    {
      "endTime": 39.999996,
      "pitch": 61,
      "startTime": 37.777774,
      "velocity": 0.3543307086614173
    },
    {
      "endTime": 39.999996,
      "pitch": 66,
      "startTime": 37.777774,
      "velocity": 0.3543307086614173
    },
    {
      "endTime": 43.333329000000006,
      "pitch": 43,
      "startTime": 39.999996,
      "velocity": 0.3543307086614173
    },
    {
      "endTime": 43.333329000000006,
      "pitch": 59,
      "startTime": 41.111107000000004,
      "velocity": 0.3543307086614173
    },
    {
      "endTime": 43.333329000000006,
      "pitch": 62,
      "startTime": 41.111107000000004,
      "velocity": 0.3543307086614173
    },
    {
      "endTime": 43.333329000000006,
      "pitch": 66,
      "startTime": 41.111107000000004,
      "velocity": 0.3543307086614173
    },
    {
      "endTime": 42.222218000000005,
      "pitch": 78,
      "startTime": 41.111107000000004,
      "velocity": 0.3543307086614173
    },
    {
      "endTime": 43.333329000000006,
      "pitch": 81,
      "startTime": 42.222218000000005,
      "velocity": 0.3543307086614173
    },
    {
      "endTime": 46.666662,
      "pitch": 38,
      "startTime": 43.333329000000006,
      "velocity": 0.3543307086614173
    },
    {
      "endTime": 44.44444,
      "pitch": 79,
      "startTime": 43.333329000000006,
      "velocity": 0.3543307086614173
    },
    {
      "endTime": 46.666662,
      "pitch": 57,
      "startTime": 44.44444,
      "velocity": 0.3543307086614173
    },
    {
      "endTime": 46.666662,
      "pitch": 61,
      "startTime": 44.44444,
      "velocity": 0.3543307086614173
    },
    {
      "endTime": 46.666662,
      "pitch": 66,
      "startTime": 44.44444,
      "velocity": 0.3543307086614173
    },
    {
      "endTime": 45.555551,
      "pitch": 78,
      "startTime": 44.44444,
      "velocity": 0.3543307086614173
    },
    {
      "endTime": 46.666662,
      "pitch": 73,
      "startTime": 45.555551,
      "velocity": 0.3543307086614173
    },
    {
      "endTime": 49.999995000000006,
      "pitch": 43,
      "startTime": 46.666662,
      "velocity": 0.3543307086614173
    },
    {
      "endTime": 47.777773,
      "pitch": 71,
      "startTime": 46.666662,
      "velocity": 0.3543307086614173
    },
    {
      "endTime": 49.999995000000006,
      "pitch": 59,
      "startTime": 47.777773,
      "velocity": 0.3543307086614173
    },
    {
      "endTime": 49.999995000000006,
      "pitch": 62,
      "startTime": 47.777773,
      "velocity": 0.3543307086614173
    },
    {
      "endTime": 49.999995000000006,
      "pitch": 66,
      "startTime": 47.777773,
      "velocity": 0.3543307086614173
    },
    {
      "endTime": 48.888884000000004,
      "pitch": 73,
      "startTime": 47.777773,
      "velocity": 0.3543307086614173
    },
    {
      "endTime": 49.999995000000006,
      "pitch": 74,
      "startTime": 48.888884000000004,
      "velocity": 0.3543307086614173
    },
    {
      "endTime": 53.333328,
      "pitch": 38,
      "startTime": 49.999995000000006,
      "velocity": 0.49606299212598426
    },
    {
      "endTime": 53.333328,
      "pitch": 69,
      "startTime": 49.999995000000006,
      "velocity": 0.49606299212598426
    },
    {
      "endTime": 53.333328,
      "pitch": 57,
      "startTime": 51.11110600000001,
      "velocity": 0.49606299212598426
    },
    {
      "endTime": 53.333328,
      "pitch": 61,
      "startTime": 51.11110600000001,
      "velocity": 0.49606299212598426
    },
    {
      "endTime": 53.333328,
      "pitch": 66,
      "startTime": 51.11110600000001,
      "velocity": 0.49606299212598426
    },
    {
      "endTime": 56.666661000000005,
      "pitch": 42,
      "startTime": 53.333328,
      "velocity": 0.49606299212598426
    },
    {
      "endTime": 56.666661000000005,
      "pitch": 73,
      "startTime": 53.333328,
      "velocity": 0.49606299212598426
    },
    {
      "endTime": 56.666661000000005,
      "pitch": 57,
      "startTime": 54.444439,
      "velocity": 0.49606299212598426
    },
    {
      "endTime": 56.666661000000005,
      "pitch": 61,
      "startTime": 54.444439,
      "velocity": 0.49606299212598426
    },
    {
      "endTime": 56.666661000000005,
      "pitch": 66,
      "startTime": 54.444439,
      "velocity": 0.49606299212598426
    },
    {
      "endTime": 59.99999400000001,
      "pitch": 35,
      "startTime": 56.666661000000005,
      "velocity": 0.49606299212598426
    },
    {
      "endTime": 59.99999400000001,
      "pitch": 78,
      "startTime": 56.666661000000005,
      "velocity": 0.49606299212598426
    },
    {
      "endTime": 59.99999400000001,
      "pitch": 59,
      "startTime": 57.777772000000006,
      "velocity": 0.49606299212598426
    },
    {
      "endTime": 59.99999400000001,
      "pitch": 62,
      "startTime": 57.777772000000006,
      "velocity": 0.49606299212598426
    },
    {
      "endTime": 59.99999400000001,
      "pitch": 66,
      "startTime": 57.777772000000006,
      "velocity": 0.49606299212598426
    },
    {
      "endTime": 63.333327000000004,
      "pitch": 40,
      "startTime": 59.99999400000001,
      "velocity": 0.3543307086614173
    },
    {
      "endTime": 63.333327000000004,
      "pitch": 64,
      "startTime": 59.99999400000001,
      "velocity": 0.3543307086614173
    },
    {
      "endTime": 63.333327000000004,
      "pitch": 55,
      "startTime": 61.111105,
      "velocity": 0.3543307086614173
    },
    {
      "endTime": 63.333327000000004,
      "pitch": 59,
      "startTime": 61.111105,
      "velocity": 0.3543307086614173
    },
    {
      "endTime": 66.66666000000001,
      "pitch": 40,
      "startTime": 63.333327000000004,
      "velocity": 0.3543307086614173
    },
    {
      "endTime": 69.999993,
      "pitch": 64,
      "startTime": 63.333327000000004,
      "velocity": 0.3543307086614173
    },
    {
      "endTime": 66.66666000000001,
      "pitch": 59,
      "startTime": 64.444438,
      "velocity": 0.3543307086614173
    },
    {
      "endTime": 66.66666000000001,
      "pitch": 62,
      "startTime": 64.444438,
      "velocity": 0.3543307086614173
    },
    {
      "endTime": 66.66666000000001,
      "pitch": 67,
      "startTime": 64.444438,
      "velocity": 0.3543307086614173
    },
    {
      "endTime": 69.999993,
      "pitch": 38,
      "startTime": 66.66666000000001,
      "velocity": 0.3543307086614173
    },
    {
      "endTime": 69.999993,
      "pitch": 53,
      "startTime": 67.777771,
      "velocity": 0.3543307086614173
    },
    {
      "endTime": 69.999993,
      "pitch": 57,
      "startTime": 67.777771,
      "velocity": 0.3543307086614173
    },
    {
      "endTime": 69.999993,
      "pitch": 62,
      "startTime": 67.777771,
      "velocity": 0.3543307086614173
    },
    {
      "endTime": 73.333326,
      "pitch": 33,
      "startTime": 69.999993,
      "velocity": 0.49606299212598426
    },
    {
      "endTime": 71.11110400000001,
      "pitch": 69,
      "startTime": 69.999993,
      "velocity": 0.49606299212598426
    },
    {
      "endTime": 73.333326,
      "pitch": 57,
      "startTime": 71.11110400000001,
      "velocity": 0.49606299212598426
    },
    {
      "endTime": 73.333326,
      "pitch": 60,
      "startTime": 71.11110400000001,
      "velocity": 0.49606299212598426
    },
    {
      "endTime": 73.333326,
      "pitch": 64,
      "startTime": 71.11110400000001,
      "velocity": 0.49606299212598426
    },
    {
      "endTime": 72.222215,
      "pitch": 71,
      "startTime": 71.11110400000001,
      "velocity": 0.49606299212598426
    },
    {
      "endTime": 73.333326,
      "pitch": 72,
      "startTime": 72.222215,
      "velocity": 0.49606299212598426
    },
    {
      "endTime": 76.66665900000001,
      "pitch": 38,
      "startTime": 73.333326,
      "velocity": 0.49606299212598426
    },
    {
      "endTime": 74.44443700000001,
      "pitch": 76,
      "startTime": 73.333326,
      "velocity": 0.49606299212598426
    },
    {
      "endTime": 76.66665900000001,
      "pitch": 55,
      "startTime": 74.44443700000001,
      "velocity": 0.49606299212598426
    },
    {
      "endTime": 76.66665900000001,
      "pitch": 59,
      "startTime": 74.44443700000001,
      "velocity": 0.49606299212598426
    },
    {
      "endTime": 76.66665900000001,
      "pitch": 64,
      "startTime": 74.44443700000001,
      "velocity": 0.49606299212598426
    },
    {
      "endTime": 75.555548,
      "pitch": 74,
      "startTime": 74.44443700000001,
      "velocity": 0.49606299212598426
    },
    {
      "endTime": 76.66665900000001,
      "pitch": 71,
      "startTime": 75.555548,
      "velocity": 0.49606299212598426
    },
    {
      "endTime": 79.999992,
      "pitch": 38,
      "startTime": 76.66665900000001,
      "velocity": 0.49606299212598426
    },
    {
      "endTime": 77.77777,
      "pitch": 74,
      "startTime": 76.66665900000001,
      "velocity": 0.49606299212598426
    },
    {
      "endTime": 79.999992,
      "pitch": 50,
      "startTime": 77.77777,
      "velocity": 0.49606299212598426
    },
    {
      "endTime": 79.999992,
      "pitch": 55,
      "startTime": 77.77777,
      "velocity": 0.49606299212598426
    },
    {
      "endTime": 79.999992,
      "pitch": 59,
      "startTime": 77.77777,
      "velocity": 0.49606299212598426
    },
    {
      "endTime": 79.999992,
      "pitch": 64,
      "startTime": 77.77777,
      "velocity": 0.49606299212598426
    },
    {
      "endTime": 78.88888100000001,
      "pitch": 72,
      "startTime": 77.77777,
      "velocity": 0.49606299212598426
    },
    {
      "endTime": 79.999992,
      "pitch": 71,
      "startTime": 78.88888100000001,
      "velocity": 0.49606299212598426
    },
    {
      "endTime": 83.333325,
      "pitch": 38,
      "startTime": 79.999992,
      "velocity": 0.6377952755905512
    },
    {
      "endTime": 85.555547,
      "pitch": 74,
      "startTime": 79.999992,
      "velocity": 0.6377952755905512
    },
    {
      "endTime": 83.333325,
      "pitch": 48,
      "startTime": 81.111103,
      "velocity": 0.6377952755905512
    },
    {
      "endTime": 83.333325,
      "pitch": 52,
      "startTime": 81.111103,
      "velocity": 0.6377952755905512
    },
    {
      "endTime": 83.333325,
      "pitch": 57,
      "startTime": 81.111103,
      "velocity": 0.6377952755905512
    },
    {
      "endTime": 83.333325,
      "pitch": 62,
      "startTime": 81.111103,
      "velocity": 0.6377952755905512
    },
    {
      "endTime": 86.66665800000001,
      "pitch": 38,
      "startTime": 83.333325,
      "velocity": 0.6377952755905512
    },
    {
      "endTime": 86.66665800000001,
      "pitch": 48,
      "startTime": 84.44443600000001,
      "velocity": 0.6377952755905512
    },
    {
      "endTime": 86.66665800000001,
      "pitch": 54,
      "startTime": 84.44443600000001,
      "velocity": 0.6377952755905512
    },
    {
      "endTime": 86.66665800000001,
      "pitch": 57,
      "startTime": 84.44443600000001,
      "velocity": 0.6377952755905512
    },
    {
      "endTime": 86.66665800000001,
      "pitch": 62,
      "startTime": 84.44443600000001,
      "velocity": 0.6377952755905512
    },
    {
      "endTime": 86.66665800000001,
      "pitch": 74,
      "startTime": 85.555547,
      "velocity": 0.49606299212598426
    },
    {
      "endTime": 89.99999100000001,
      "pitch": 38,
      "startTime": 86.66665800000001,
      "velocity": 0.49606299212598426
    },
    {
      "endTime": 87.777769,
      "pitch": 76,
      "startTime": 86.66665800000001,
      "velocity": 0.49606299212598426
    },
    {
      "endTime": 89.99999100000001,
      "pitch": 57,
      "startTime": 87.777769,
      "velocity": 0.49606299212598426
    },
    {
      "endTime": 89.99999100000001,
      "pitch": 60,
      "startTime": 87.777769,
      "velocity": 0.49606299212598426
    },
    {
      "endTime": 89.99999100000001,
      "pitch": 65,
      "startTime": 87.777769,
      "velocity": 0.49606299212598426
    },
    {
      "endTime": 88.88888,
      "pitch": 77,
      "startTime": 87.777769,
      "velocity": 0.49606299212598426
    },
    {
      "endTime": 89.99999100000001,
      "pitch": 79,
      "startTime": 88.88888,
      "velocity": 0.49606299212598426
    },
    {
      "endTime": 93.333324,
      "pitch": 38,
      "startTime": 89.99999100000001,
      "velocity": 0.49606299212598426
    },
    {
      "endTime": 91.111102,
      "pitch": 81,
      "startTime": 89.99999100000001,
      "velocity": 0.49606299212598426
    },
    {
      "endTime": 93.333324,
      "pitch": 57,
      "startTime": 91.111102,
      "velocity": 0.49606299212598426
    },
    {
      "endTime": 93.333324,
      "pitch": 60,
      "startTime": 91.111102,
      "velocity": 0.49606299212598426
    },
    {
      "endTime": 93.333324,
      "pitch": 64,
      "startTime": 91.111102,
      "velocity": 0.49606299212598426
    },
    {
      "endTime": 92.22221300000001,
      "pitch": 72,
      "startTime": 91.111102,
      "velocity": 0.49606299212598426
    },
    {
      "endTime": 93.333324,
      "pitch": 74,
      "startTime": 92.22221300000001,
      "velocity": 0.49606299212598426
    },
    {
      "endTime": 96.66665700000001,
      "pitch": 38,
      "startTime": 93.333324,
      "velocity": 0.6377952755905512
    },
    {
      "endTime": 94.44443500000001,
      "pitch": 76,
      "startTime": 93.333324,
      "velocity": 0.6377952755905512
    },
    {
      "endTime": 96.66665700000001,
      "pitch": 50,
      "startTime": 94.44443500000001,
      "velocity": 0.6377952755905512
    },
    {
      "endTime": 96.66665700000001,
      "pitch": 55,
      "startTime": 94.44443500000001,
      "velocity": 0.6377952755905512
    },
    {
      "endTime": 96.66665700000001,
      "pitch": 59,
      "startTime": 94.44443500000001,
      "velocity": 0.6377952755905512
    },
    {
      "endTime": 96.66665700000001,
      "pitch": 64,
      "startTime": 94.44443500000001,
      "velocity": 0.6377952755905512
    },
    {
      "endTime": 95.555546,
      "pitch": 74,
      "startTime": 94.44443500000001,
      "velocity": 0.6377952755905512
    },
    {
      "endTime": 96.66665700000001,
      "pitch": 71,
      "startTime": 95.555546,
      "velocity": 0.6377952755905512
    },
    {
      "endTime": 99.99999000000001,
      "pitch": 38,
      "startTime": 96.66665700000001,
      "velocity": 0.6377952755905512
    },
    {
      "endTime": 102.22221200000001,
      "pitch": 74,
      "startTime": 96.66665700000001,
      "velocity": 0.6377952755905512
    },
    {
      "endTime": 99.99999000000001,
      "pitch": 48,
      "startTime": 97.77776800000001,
      "velocity": 0.6377952755905512
    },
    {
      "endTime": 99.99999000000001,
      "pitch": 52,
      "startTime": 97.77776800000001,
      "velocity": 0.6377952755905512
    },
    {
      "endTime": 99.99999000000001,
      "pitch": 57,
      "startTime": 97.77776800000001,
      "velocity": 0.6377952755905512
    },
    {
      "endTime": 99.99999000000001,
      "pitch": 62,
      "startTime": 97.77776800000001,
      "velocity": 0.6377952755905512
    },
    {
      "endTime": 103.33332300000001,
      "pitch": 38,
      "startTime": 99.99999000000001,
      "velocity": 0.49606299212598426
    },
    {
      "endTime": 103.33332300000001,
      "pitch": 48,
      "startTime": 101.111101,
      "velocity": 0.49606299212598426
    },
    {
      "endTime": 103.33332300000001,
      "pitch": 54,
      "startTime": 101.111101,
      "velocity": 0.49606299212598426
    },
    {
      "endTime": 103.33332300000001,
      "pitch": 57,
      "startTime": 101.111101,
      "velocity": 0.49606299212598426
    },
    {
      "endTime": 103.33332300000001,
      "pitch": 62,
      "startTime": 101.111101,
      "velocity": 0.49606299212598426
    },
    {
      "endTime": 103.33332300000001,
      "pitch": 74,
      "startTime": 102.22221200000001,
      "velocity": 0.49606299212598426
    },
    {
      "endTime": 106.666656,
      "pitch": 40,
      "startTime": 103.33332300000001,
      "velocity": 0.49606299212598426
    },
    {
      "endTime": 106.666656,
      "pitch": 79,
      "startTime": 103.33332300000001,
      "velocity": 0.49606299212598426
    },
    {
      "endTime": 106.666656,
      "pitch": 59,
      "startTime": 104.44443400000002,
      "velocity": 0.49606299212598426
    },
    {
      "endTime": 106.666656,
      "pitch": 64,
      "startTime": 104.44443400000002,
      "velocity": 0.49606299212598426
    },
    {
      "endTime": 106.666656,
      "pitch": 67,
      "startTime": 104.44443400000002,
      "velocity": 0.49606299212598426
    },
    {
      "endTime": 109.99998900000001,
      "pitch": 42,
      "startTime": 106.666656,
      "velocity": 0.49606299212598426
    },
    {
      "endTime": 109.99998900000001,
      "pitch": 78,
      "startTime": 106.666656,
      "velocity": 0.49606299212598426
    },
    {
      "endTime": 109.99998900000001,
      "pitch": 57,
      "startTime": 107.77776700000001,
      "velocity": 0.49606299212598426
    },
    {
      "endTime": 109.99998900000001,
      "pitch": 61,
      "startTime": 107.77776700000001,
      "velocity": 0.49606299212598426
    },
    {
      "endTime": 109.99998900000001,
      "pitch": 66,
      "startTime": 107.77776700000001,
      "velocity": 0.49606299212598426
    },
    {
      "endTime": 113.33332200000001,
      "pitch": 35,
      "startTime": 109.99998900000001,
      "velocity": 0.6377952755905512
    },
    {
      "endTime": 111.11110000000001,
      "pitch": 71,
      "startTime": 109.99998900000001,
      "velocity": 0.6377952755905512
    },
    {
      "endTime": 113.33332200000001,
      "pitch": 59,
      "startTime": 111.11110000000001,
      "velocity": 0.6377952755905512
    },
    {
      "endTime": 113.33332200000001,
      "pitch": 62,
      "startTime": 111.11110000000001,
      "velocity": 0.6377952755905512
    },
    {
      "endTime": 113.33332200000001,
      "pitch": 66,
      "startTime": 111.11110000000001,
      "velocity": 0.6377952755905512
    },
    {
      "endTime": 112.22221100000002,
      "pitch": 69,
      "startTime": 111.11110000000001,
      "velocity": 0.6377952755905512
    },
    {
      "endTime": 113.33332200000001,
      "pitch": 71,
      "startTime": 112.22221100000002,
      "velocity": 0.6377952755905512
    },
    {
      "endTime": 116.666655,
      "pitch": 40,
      "startTime": 113.33332200000001,
      "velocity": 0.6377952755905512
    },
    {
      "endTime": 114.444433,
      "pitch": 73,
      "startTime": 113.33332200000001,
      "velocity": 0.6377952755905512
    },
    {
      "endTime": 116.666655,
      "pitch": 61,
      "startTime": 114.444433,
      "velocity": 0.6377952755905512
    },
    {
      "endTime": 116.666655,
      "pitch": 64,
      "startTime": 114.444433,
      "velocity": 0.6377952755905512
    },
    {
      "endTime": 116.666655,
      "pitch": 69,
      "startTime": 114.444433,
      "velocity": 0.6377952755905512
    },
    {
      "endTime": 115.55554400000001,
      "pitch": 74,
      "startTime": 114.444433,
      "velocity": 0.6377952755905512
    },
    {
      "endTime": 116.666655,
      "pitch": 76,
      "startTime": 115.55554400000001,
      "velocity": 0.6377952755905512
    },
    {
      "endTime": 119.99998800000002,
      "pitch": 40,
      "startTime": 116.666655,
      "velocity": 0.49606299212598426
    },
    {
      "endTime": 117.77776600000001,
      "pitch": 73,
      "startTime": 116.666655,
      "velocity": 0.49606299212598426
    },
    {
      "endTime": 119.99998800000002,
      "pitch": 57,
      "startTime": 117.77776600000001,
      "velocity": 0.49606299212598426
    },
    {
      "endTime": 119.99998800000002,
      "pitch": 61,
      "startTime": 117.77776600000001,
      "velocity": 0.49606299212598426
    },
    {
      "endTime": 119.99998800000002,
      "pitch": 66,
      "startTime": 117.77776600000001,
      "velocity": 0.49606299212598426
    },
    {
      "endTime": 119.99998800000002,
      "pitch": 69,
      "startTime": 117.77776600000001,
      "velocity": 0.49606299212598426
    },
    {
      "endTime": 118.88887700000001,
      "pitch": 74,
      "startTime": 117.77776600000001,
      "velocity": 0.49606299212598426
    },
    {
      "endTime": 119.99998800000002,
      "pitch": 76,
      "startTime": 118.88887700000001,
      "velocity": 0.49606299212598426
    },
    {
      "endTime": 123.33332100000001,
      "pitch": 40,
      "startTime": 119.99998800000002,
      "velocity": 0.49606299212598426
    },
    {
      "endTime": 123.33332100000001,
      "pitch": 66,
      "startTime": 119.99998800000002,
      "velocity": 0.49606299212598426
    },
    {
      "endTime": 122.22221,
      "pitch": 47,
      "startTime": 121.11109900000001,
      "velocity": 0.49606299212598426
    },
    {
      "endTime": 122.22221,
      "pitch": 57,
      "startTime": 121.11109900000001,
      "velocity": 0.49606299212598426
    },
    {
      "endTime": 122.22221,
      "pitch": 62,
      "startTime": 121.11109900000001,
      "velocity": 0.49606299212598426
    },
    {
      "endTime": 123.33332100000001,
      "pitch": 52,
      "startTime": 122.22221,
      "velocity": 0.49606299212598426
    },
    {
      "endTime": 123.33332100000001,
      "pitch": 59,
      "startTime": 122.22221,
      "velocity": 0.49606299212598426
    },
    {
      "endTime": 123.33332100000001,
      "pitch": 62,
      "startTime": 122.22221,
      "velocity": 0.49606299212598426
    },
    {
      "endTime": 123.33332100000001,
      "pitch": 67,
      "startTime": 122.22221,
      "velocity": 0.49606299212598426
    },
    {
      "endTime": 126.66665400000001,
      "pitch": 45,
      "startTime": 123.33332100000001,
      "velocity": 0.3543307086614173
    },
    {
      "endTime": 126.66665400000001,
      "pitch": 55,
      "startTime": 123.33332100000001,
      "velocity": 0.3543307086614173
    },
    {
      "endTime": 126.66665400000001,
      "pitch": 60,
      "startTime": 123.33332100000001,
      "velocity": 0.3543307086614173
    },
    {
      "endTime": 126.66665400000001,
      "pitch": 64,
      "startTime": 123.33332100000001,
      "velocity": 0.3543307086614173
    },
    {
      "endTime": 126.66665400000001,
      "pitch": 69,
      "startTime": 123.33332100000001,
      "velocity": 0.3543307086614173
    },
    {
      "endTime": 126.66665400000001,
      "pitch": 72,
      "startTime": 123.33332100000001,
      "velocity": 0.3543307086614173
    },
    {
      "endTime": 129.999987,
      "pitch": 38,
      "startTime": 126.66665400000001,
      "velocity": 0.3543307086614173
    },
    {
      "endTime": 129.999987,
      "pitch": 45,
      "startTime": 126.66665400000001,
      "velocity": 0.3543307086614173
    },
    {
      "endTime": 129.999987,
      "pitch": 50,
      "startTime": 126.66665400000001,
      "velocity": 0.3543307086614173
    },
    {
      "endTime": 129.999987,
      "pitch": 62,
      "startTime": 126.66665400000001,
      "velocity": 0.3543307086614173
    },
    {
      "endTime": 129.999987,
      "pitch": 66,
      "startTime": 126.66665400000001,
      "velocity": 0.3543307086614173
    },
    {
      "endTime": 129.999987,
      "pitch": 69,
      "startTime": 126.66665400000001,
      "velocity": 0.3543307086614173
    },
    {
      "endTime": 129.999987,
      "pitch": 74,
      "startTime": 126.66665400000001,
      "velocity": 0.3543307086614173
    },
    {
      "endTime": 133.33332000000001,
      "pitch": 43,
      "startTime": 129.999987,
      "velocity": 0.3543307086614173
    },
    {
      "endTime": 133.33332000000001,
      "pitch": 59,
      "startTime": 131.111098,
      "velocity": 0.3543307086614173
    },
    {
      "endTime": 133.33332000000001,
      "pitch": 62,
      "startTime": 131.111098,
      "velocity": 0.3543307086614173
    },
    {
      "endTime": 133.33332000000001,
      "pitch": 66,
      "startTime": 131.111098,
      "velocity": 0.3543307086614173
    },
    {
      "endTime": 136.66665300000003,
      "pitch": 38,
      "startTime": 133.33332000000001,
      "velocity": 0.3543307086614173
    },
    {
      "endTime": 136.66665300000003,
      "pitch": 57,
      "startTime": 134.444431,
      "velocity": 0.3543307086614173
    },
    {
      "endTime": 136.66665300000003,
      "pitch": 61,
      "startTime": 134.444431,
      "velocity": 0.3543307086614173
    },
    {
      "endTime": 136.66665300000003,
      "pitch": 66,
      "startTime": 134.444431,
      "velocity": 0.3543307086614173
    },
    {
      "endTime": 139.999986,
      "pitch": 43,
      "startTime": 136.66665300000003,
      "velocity": 0.3543307086614173
    },
    {
      "endTime": 139.999986,
      "pitch": 59,
      "startTime": 137.77776400000002,
      "velocity": 0.3543307086614173
    },
    {
      "endTime": 139.999986,
      "pitch": 62,
      "startTime": 137.77776400000002,
      "velocity": 0.3543307086614173
    },
    {
      "endTime": 139.999986,
      "pitch": 66,
      "startTime": 137.77776400000002,
      "velocity": 0.3543307086614173
    },
    {
      "endTime": 143.33331900000002,
      "pitch": 38,
      "startTime": 139.999986,
      "velocity": 0.3543307086614173
    },
    {
      "endTime": 143.33331900000002,
      "pitch": 57,
      "startTime": 141.111097,
      "velocity": 0.3543307086614173
    },
    {
      "endTime": 143.33331900000002,
      "pitch": 61,
      "startTime": 141.111097,
      "velocity": 0.3543307086614173
    },
    {
      "endTime": 143.33331900000002,
      "pitch": 66,
      "startTime": 141.111097,
      "velocity": 0.3543307086614173
    },
    {
      "endTime": 146.666652,
      "pitch": 43,
      "startTime": 143.33331900000002,
      "velocity": 0.3543307086614173
    },
    {
      "endTime": 146.666652,
      "pitch": 59,
      "startTime": 144.44443,
      "velocity": 0.3543307086614173
    },
    {
      "endTime": 146.666652,
      "pitch": 62,
      "startTime": 144.44443,
      "velocity": 0.3543307086614173
    },
    {
      "endTime": 146.666652,
      "pitch": 66,
      "startTime": 144.44443,
      "velocity": 0.3543307086614173
    },
    {
      "endTime": 145.555541,
      "pitch": 78,
      "startTime": 144.44443,
      "velocity": 0.3543307086614173
    },
    {
      "endTime": 146.666652,
      "pitch": 81,
      "startTime": 145.555541,
      "velocity": 0.3543307086614173
    },
    {
      "endTime": 149.999985,
      "pitch": 38,
      "startTime": 146.666652,
      "velocity": 0.3543307086614173
    },
    {
      "endTime": 147.77776300000002,
      "pitch": 79,
      "startTime": 146.666652,
      "velocity": 0.3543307086614173
    },
    {
      "endTime": 149.999985,
      "pitch": 57,
      "startTime": 147.77776300000002,
      "velocity": 0.3543307086614173
    },
    {
      "endTime": 149.999985,
      "pitch": 61,
      "startTime": 147.77776300000002,
      "velocity": 0.3543307086614173
    },
    {
      "endTime": 149.999985,
      "pitch": 66,
      "startTime": 147.77776300000002,
      "velocity": 0.3543307086614173
    },
    {
      "endTime": 148.88887400000002,
      "pitch": 78,
      "startTime": 147.77776300000002,
      "velocity": 0.3543307086614173
    },
    {
      "endTime": 149.999985,
      "pitch": 73,
      "startTime": 148.88887400000002,
      "velocity": 0.3543307086614173
    },
    {
      "endTime": 153.33331800000002,
      "pitch": 43,
      "startTime": 149.999985,
      "velocity": 0.49606299212598426
    },
    {
      "endTime": 151.111096,
      "pitch": 71,
      "startTime": 149.999985,
      "velocity": 0.49606299212598426
    },
    {
      "endTime": 153.33331800000002,
      "pitch": 59,
      "startTime": 151.111096,
      "velocity": 0.49606299212598426
    },
    {
      "endTime": 153.33331800000002,
      "pitch": 62,
      "startTime": 151.111096,
      "velocity": 0.49606299212598426
    },
    {
      "endTime": 153.33331800000002,
      "pitch": 66,
      "startTime": 151.111096,
      "velocity": 0.49606299212598426
    },
    {
      "endTime": 152.22220700000003,
      "pitch": 73,
      "startTime": 151.111096,
      "velocity": 0.49606299212598426
    },
    {
      "endTime": 153.33331800000002,
      "pitch": 74,
      "startTime": 152.22220700000003,
      "velocity": 0.49606299212598426
    },
    {
      "endTime": 156.666651,
      "pitch": 38,
      "startTime": 153.33331800000002,
      "velocity": 0.3543307086614173
    },
    {
      "endTime": 156.666651,
      "pitch": 69,
      "startTime": 153.33331800000002,
      "velocity": 0.3543307086614173
    },
    {
      "endTime": 156.666651,
      "pitch": 57,
      "startTime": 154.444429,
      "velocity": 0.3543307086614173
    },
    {
      "endTime": 156.666651,
      "pitch": 61,
      "startTime": 154.444429,
      "velocity": 0.3543307086614173
    },
    {
      "endTime": 156.666651,
      "pitch": 66,
      "startTime": 154.444429,
      "velocity": 0.3543307086614173
    },
    {
      "endTime": 159.999984,
      "pitch": 43,
      "startTime": 156.666651,
      "velocity": 0.3543307086614173
    },
    {
      "endTime": 159.999984,
      "pitch": 66,
      "startTime": 156.666651,
      "velocity": 0.3543307086614173
    },
    {
      "endTime": 159.999984,
      "pitch": 59,
      "startTime": 157.77776200000002,
      "velocity": 0.9921259842519685
    },
    {
      "endTime": 159.999984,
      "pitch": 62,
      "startTime": 157.77776200000002,
      "velocity": 0.9921259842519685
    },
    {
      "endTime": 159.999984,
      "pitch": 66,
      "startTime": 157.77776200000002,
      "velocity": 0.9921259842519685
    },
    {
      "endTime": 163.33331700000002,
      "pitch": 38,
      "startTime": 159.999984,
      "velocity": 0.3543307086614173
    },
    {
      "endTime": 163.33331700000002,
      "pitch": 66,
      "startTime": 159.999984,
      "velocity": 0.3543307086614173
    },
    {
      "endTime": 163.33331700000002,
      "pitch": 57,
      "startTime": 161.111095,
      "velocity": 0.3543307086614173
    },
    {
      "endTime": 163.33331700000002,
      "pitch": 61,
      "startTime": 161.111095,
      "velocity": 0.3543307086614173
    },
    {
      "endTime": 163.33331700000002,
      "pitch": 66,
      "startTime": 161.111095,
      "velocity": 0.3543307086614173
    },
    {
      "endTime": 166.66665,
      "pitch": 43,
      "startTime": 163.33331700000002,
      "velocity": 0.3543307086614173
    },
    {
      "endTime": 166.66665,
      "pitch": 66,
      "startTime": 163.33331700000002,
      "velocity": 0.3543307086614173
    },
    {
      "endTime": 166.66665,
      "pitch": 59,
      "startTime": 164.44442800000002,
      "velocity": 0.3543307086614173
    },
    {
      "endTime": 166.66665,
      "pitch": 62,
      "startTime": 164.44442800000002,
      "velocity": 0.3543307086614173
    },
    {
      "endTime": 166.66665,
      "pitch": 66,
      "startTime": 164.44442800000002,
      "velocity": 0.3543307086614173
    },
    {
      "endTime": 169.99998300000001,
      "pitch": 38,
      "startTime": 166.66665,
      "velocity": 0.3543307086614173
    },
    {
      "endTime": 169.99998300000001,
      "pitch": 57,
      "startTime": 167.77776100000003,
      "velocity": 0.3543307086614173
    },
    {
      "endTime": 169.99998300000001,
      "pitch": 61,
      "startTime": 167.77776100000003,
      "velocity": 0.3543307086614173
    },
    {
      "endTime": 169.99998300000001,
      "pitch": 66,
      "startTime": 167.77776100000003,
      "velocity": 0.3543307086614173
    },
    {
      "endTime": 173.33331600000002,
      "pitch": 43,
      "startTime": 169.99998300000001,
      "velocity": 0.3543307086614173
    },
    {
      "endTime": 173.33331600000002,
      "pitch": 59,
      "startTime": 171.111094,
      "velocity": 0.3543307086614173
    },
    {
      "endTime": 173.33331600000002,
      "pitch": 62,
      "startTime": 171.111094,
      "velocity": 0.3543307086614173
    },
    {
      "endTime": 173.33331600000002,
      "pitch": 66,
      "startTime": 171.111094,
      "velocity": 0.3543307086614173
    },
    {
      "endTime": 172.222205,
      "pitch": 78,
      "startTime": 171.111094,
      "velocity": 0.3543307086614173
    },
    {
      "endTime": 173.33331600000002,
      "pitch": 81,
      "startTime": 172.222205,
      "velocity": 0.3543307086614173
    },
    {
      "endTime": 176.666649,
      "pitch": 38,
      "startTime": 173.33331600000002,
      "velocity": 0.3543307086614173
    },
    {
      "endTime": 174.44442700000002,
      "pitch": 79,
      "startTime": 173.33331600000002,
      "velocity": 0.3543307086614173
    },
    {
      "endTime": 176.666649,
      "pitch": 57,
      "startTime": 174.44442700000002,
      "velocity": 0.3543307086614173
    },
    {
      "endTime": 176.666649,
      "pitch": 61,
      "startTime": 174.44442700000002,
      "velocity": 0.3543307086614173
    },
    {
      "endTime": 176.666649,
      "pitch": 66,
      "startTime": 174.44442700000002,
      "velocity": 0.3543307086614173
    },
    {
      "endTime": 175.555538,
      "pitch": 78,
      "startTime": 174.44442700000002,
      "velocity": 0.3543307086614173
    },
    {
      "endTime": 176.666649,
      "pitch": 73,
      "startTime": 175.555538,
      "velocity": 0.3543307086614173
    },
    {
      "endTime": 179.99998200000002,
      "pitch": 43,
      "startTime": 176.666649,
      "velocity": 0.3543307086614173
    },
    {
      "endTime": 177.77776,
      "pitch": 71,
      "startTime": 176.666649,
      "velocity": 0.3543307086614173
    },
    {
      "endTime": 179.99998200000002,
      "pitch": 59,
      "startTime": 177.77776,
      "velocity": 0.3543307086614173
    },
    {
      "endTime": 179.99998200000002,
      "pitch": 62,
      "startTime": 177.77776,
      "velocity": 0.3543307086614173
    },
    {
      "endTime": 179.99998200000002,
      "pitch": 66,
      "startTime": 177.77776,
      "velocity": 0.3543307086614173
    },
    {
      "endTime": 178.88887100000002,
      "pitch": 73,
      "startTime": 177.77776,
      "velocity": 0.3543307086614173
    },
    {
      "endTime": 179.99998200000002,
      "pitch": 74,
      "startTime": 178.88887100000002,
      "velocity": 0.3543307086614173
    },
    {
      "endTime": 183.33331500000003,
      "pitch": 38,
      "startTime": 179.99998200000002,
      "velocity": 0.49606299212598426
    },
    {
      "endTime": 183.33331500000003,
      "pitch": 69,
      "startTime": 179.99998200000002,
      "velocity": 0.49606299212598426
    },
    {
      "endTime": 183.33331500000003,
      "pitch": 57,
      "startTime": 181.111093,
      "velocity": 0.49606299212598426
    },
    {
      "endTime": 183.33331500000003,
      "pitch": 61,
      "startTime": 181.111093,
      "velocity": 0.49606299212598426
    },
    {
      "endTime": 183.33331500000003,
      "pitch": 66,
      "startTime": 181.111093,
      "velocity": 0.49606299212598426
    },
    {
      "endTime": 186.666648,
      "pitch": 42,
      "startTime": 183.33331500000003,
      "velocity": 0.49606299212598426
    },
    {
      "endTime": 186.666648,
      "pitch": 73,
      "startTime": 183.33331500000003,
      "velocity": 0.49606299212598426
    },
    {
      "endTime": 186.666648,
      "pitch": 57,
      "startTime": 184.44442600000002,
      "velocity": 0.49606299212598426
    },
    {
      "endTime": 186.666648,
      "pitch": 61,
      "startTime": 184.44442600000002,
      "velocity": 0.49606299212598426
    },
    {
      "endTime": 186.666648,
      "pitch": 66,
      "startTime": 184.44442600000002,
      "velocity": 0.49606299212598426
    },
    {
      "endTime": 189.99998100000002,
      "pitch": 35,
      "startTime": 186.666648,
      "velocity": 0.49606299212598426
    },
    {
      "endTime": 189.99998100000002,
      "pitch": 78,
      "startTime": 186.666648,
      "velocity": 0.49606299212598426
    },
    {
      "endTime": 189.99998100000002,
      "pitch": 59,
      "startTime": 187.777759,
      "velocity": 0.49606299212598426
    },
    {
      "endTime": 189.99998100000002,
      "pitch": 62,
      "startTime": 187.777759,
      "velocity": 0.49606299212598426
    },
    {
      "endTime": 189.99998100000002,
      "pitch": 66,
      "startTime": 187.777759,
      "velocity": 0.49606299212598426
    },
    {
      "endTime": 193.33331400000003,
      "pitch": 40,
      "startTime": 189.99998100000002,
      "velocity": 0.49606299212598426
    },
    {
      "endTime": 193.33331400000003,
      "pitch": 64,
      "startTime": 189.99998100000002,
      "velocity": 0.49606299212598426
    },
    {
      "endTime": 193.33331400000003,
      "pitch": 55,
      "startTime": 191.111092,
      "velocity": 0.49606299212598426
    },
    {
      "endTime": 193.33331400000003,
      "pitch": 59,
      "startTime": 191.111092,
      "velocity": 0.49606299212598426
    },
    {
      "endTime": 196.666647,
      "pitch": 40,
      "startTime": 193.33331400000003,
      "velocity": 0.3543307086614173
    },
    {
      "endTime": 199.99998000000002,
      "pitch": 64,
      "startTime": 193.33331400000003,
      "velocity": 0.3543307086614173
    },
    {
      "endTime": 196.666647,
      "pitch": 59,
      "startTime": 194.44442500000002,
      "velocity": 0.3543307086614173
    },
    {
      "endTime": 196.666647,
      "pitch": 62,
      "startTime": 194.44442500000002,
      "velocity": 0.3543307086614173
    },
    {
      "endTime": 196.666647,
      "pitch": 67,
      "startTime": 194.44442500000002,
      "velocity": 0.3543307086614173
    },
    {
      "endTime": 199.99998000000002,
      "pitch": 38,
      "startTime": 196.666647,
      "velocity": 0.3543307086614173
    },
    {
      "endTime": 199.99998000000002,
      "pitch": 53,
      "startTime": 197.777758,
      "velocity": 0.3543307086614173
    },
    {
      "endTime": 199.99998000000002,
      "pitch": 57,
      "startTime": 197.777758,
      "velocity": 0.3543307086614173
    },
    {
      "endTime": 199.99998000000002,
      "pitch": 62,
      "startTime": 197.777758,
      "velocity": 0.3543307086614173
    },
    {
      "endTime": 203.333313,
      "pitch": 33,
      "startTime": 199.99998000000002,
      "velocity": 0.49606299212598426
    },
    {
      "endTime": 201.11109100000002,
      "pitch": 69,
      "startTime": 199.99998000000002,
      "velocity": 0.49606299212598426
    },
    {
      "endTime": 203.333313,
      "pitch": 57,
      "startTime": 201.11109100000002,
      "velocity": 0.49606299212598426
    },
    {
      "endTime": 203.333313,
      "pitch": 60,
      "startTime": 201.11109100000002,
      "velocity": 0.49606299212598426
    },
    {
      "endTime": 203.333313,
      "pitch": 64,
      "startTime": 201.11109100000002,
      "velocity": 0.49606299212598426
    },
    {
      "endTime": 202.222202,
      "pitch": 71,
      "startTime": 201.11109100000002,
      "velocity": 0.49606299212598426
    },
    {
      "endTime": 203.333313,
      "pitch": 72,
      "startTime": 202.222202,
      "velocity": 0.49606299212598426
    },
    {
      "endTime": 206.66664600000001,
      "pitch": 38,
      "startTime": 203.333313,
      "velocity": 0.49606299212598426
    },
    {
      "endTime": 204.44442400000003,
      "pitch": 76,
      "startTime": 203.333313,
      "velocity": 0.49606299212598426
    },
    {
      "endTime": 206.66664600000001,
      "pitch": 55,
      "startTime": 204.44442400000003,
      "velocity": 0.49606299212598426
    },
    {
      "endTime": 206.66664600000001,
      "pitch": 59,
      "startTime": 204.44442400000003,
      "velocity": 0.49606299212598426
    },
    {
      "endTime": 206.66664600000001,
      "pitch": 64,
      "startTime": 204.44442400000003,
      "velocity": 0.49606299212598426
    },
    {
      "endTime": 205.55553500000002,
      "pitch": 74,
      "startTime": 204.44442400000003,
      "velocity": 0.49606299212598426
    },
    {
      "endTime": 206.66664600000001,
      "pitch": 71,
      "startTime": 205.55553500000002,
      "velocity": 0.49606299212598426
    },
    {
      "endTime": 209.99997900000002,
      "pitch": 38,
      "startTime": 206.66664600000001,
      "velocity": 0.6377952755905512
    },
    {
      "endTime": 207.777757,
      "pitch": 74,
      "startTime": 206.66664600000001,
      "velocity": 0.6377952755905512
    },
    {
      "endTime": 209.99997900000002,
      "pitch": 50,
      "startTime": 207.777757,
      "velocity": 0.6377952755905512
    },
    {
      "endTime": 209.99997900000002,
      "pitch": 55,
      "startTime": 207.777757,
      "velocity": 0.6377952755905512
    },
    {
      "endTime": 209.99997900000002,
      "pitch": 59,
      "startTime": 207.777757,
      "velocity": 0.6377952755905512
    },
    {
      "endTime": 209.99997900000002,
      "pitch": 64,
      "startTime": 207.777757,
      "velocity": 0.6377952755905512
    },
    {
      "endTime": 208.88886800000003,
      "pitch": 72,
      "startTime": 207.777757,
      "velocity": 0.6377952755905512
    },
    {
      "endTime": 209.99997900000002,
      "pitch": 71,
      "startTime": 208.88886800000003,
      "velocity": 0.6377952755905512
    },
    {
      "endTime": 213.333312,
      "pitch": 38,
      "startTime": 209.99997900000002,
      "velocity": 0.49606299212598426
    },
    {
      "endTime": 215.55553400000002,
      "pitch": 74,
      "startTime": 209.99997900000002,
      "velocity": 0.49606299212598426
    },
    {
      "endTime": 213.333312,
      "pitch": 48,
      "startTime": 211.11109000000002,
      "velocity": 0.49606299212598426
    },
    {
      "endTime": 213.333312,
      "pitch": 52,
      "startTime": 211.11109000000002,
      "velocity": 0.49606299212598426
    },
    {
      "endTime": 213.333312,
      "pitch": 57,
      "startTime": 211.11109000000002,
      "velocity": 0.49606299212598426
    },
    {
      "endTime": 213.333312,
      "pitch": 62,
      "startTime": 211.11109000000002,
      "velocity": 0.49606299212598426
    },
    {
      "endTime": 216.66664500000002,
      "pitch": 38,
      "startTime": 213.333312,
      "velocity": 0.49606299212598426
    },
    {
      "endTime": 216.66664500000002,
      "pitch": 48,
      "startTime": 214.44442300000003,
      "velocity": 0.49606299212598426
    },
    {
      "endTime": 216.66664500000002,
      "pitch": 54,
      "startTime": 214.44442300000003,
      "velocity": 0.49606299212598426
    },
    {
      "endTime": 216.66664500000002,
      "pitch": 57,
      "startTime": 214.44442300000003,
      "velocity": 0.49606299212598426
    },
    {
      "endTime": 216.66664500000002,
      "pitch": 62,
      "startTime": 214.44442300000003,
      "velocity": 0.49606299212598426
    },
    {
      "endTime": 216.66664500000002,
      "pitch": 74,
      "startTime": 215.55553400000002,
      "velocity": 0.49606299212598426
    },
    {
      "endTime": 219.99997800000003,
      "pitch": 38,
      "startTime": 216.66664500000002,
      "velocity": 0.49606299212598426
    },
    {
      "endTime": 217.777756,
      "pitch": 76,
      "startTime": 216.66664500000002,
      "velocity": 0.49606299212598426
    },
    {
      "endTime": 219.99997800000003,
      "pitch": 57,
      "startTime": 217.777756,
      "velocity": 0.49606299212598426
    },
    {
      "endTime": 219.99997800000003,
      "pitch": 60,
      "startTime": 217.777756,
      "velocity": 0.49606299212598426
    },
    {
      "endTime": 219.99997800000003,
      "pitch": 65,
      "startTime": 217.777756,
      "velocity": 0.49606299212598426
    },
    {
      "endTime": 218.888867,
      "pitch": 77,
      "startTime": 217.777756,
      "velocity": 0.49606299212598426
    },
    {
      "endTime": 219.99997800000003,
      "pitch": 79,
      "startTime": 218.888867,
      "velocity": 0.49606299212598426
    },
    {
      "endTime": 223.333311,
      "pitch": 38,
      "startTime": 219.99997800000003,
      "velocity": 0.49606299212598426
    },
    {
      "endTime": 221.11108900000002,
      "pitch": 81,
      "startTime": 219.99997800000003,
      "velocity": 0.49606299212598426
    },
    {
      "endTime": 223.333311,
      "pitch": 57,
      "startTime": 221.11108900000002,
      "velocity": 0.49606299212598426
    },
    {
      "endTime": 223.333311,
      "pitch": 60,
      "startTime": 221.11108900000002,
      "velocity": 0.49606299212598426
    },
    {
      "endTime": 223.333311,
      "pitch": 64,
      "startTime": 221.11108900000002,
      "velocity": 0.49606299212598426
    },
    {
      "endTime": 222.22220000000002,
      "pitch": 72,
      "startTime": 221.11108900000002,
      "velocity": 0.49606299212598426
    },
    {
      "endTime": 223.333311,
      "pitch": 74,
      "startTime": 222.22220000000002,
      "velocity": 0.49606299212598426
    },
    {
      "endTime": 226.66664400000002,
      "pitch": 38,
      "startTime": 223.333311,
      "velocity": 0.6377952755905512
    },
    {
      "endTime": 224.44442200000003,
      "pitch": 76,
      "startTime": 223.333311,
      "velocity": 0.6377952755905512
    },
    {
      "endTime": 226.66664400000002,
      "pitch": 50,
      "startTime": 224.44442200000003,
      "velocity": 0.6377952755905512
    },
    {
      "endTime": 226.66664400000002,
      "pitch": 55,
      "startTime": 224.44442200000003,
      "velocity": 0.6377952755905512
    },
    {
      "endTime": 226.66664400000002,
      "pitch": 59,
      "startTime": 224.44442200000003,
      "velocity": 0.6377952755905512
    },
    {
      "endTime": 226.66664400000002,
      "pitch": 64,
      "startTime": 224.44442200000003,
      "velocity": 0.6377952755905512
    },
    {
      "endTime": 225.55553300000003,
      "pitch": 74,
      "startTime": 224.44442200000003,
      "velocity": 0.6377952755905512
    },
    {
      "endTime": 226.66664400000002,
      "pitch": 71,
      "startTime": 225.55553300000003,
      "velocity": 0.6377952755905512
    },
    {
      "endTime": 229.99997700000003,
      "pitch": 38,
      "startTime": 226.66664400000002,
      "velocity": 0.6377952755905512
    },
    {
      "endTime": 232.22219900000002,
      "pitch": 74,
      "startTime": 226.66664400000002,
      "velocity": 0.6377952755905512
    },
    {
      "endTime": 229.99997700000003,
      "pitch": 48,
      "startTime": 227.777755,
      "velocity": 0.6377952755905512
    },
    {
      "endTime": 229.99997700000003,
      "pitch": 52,
      "startTime": 227.777755,
      "velocity": 0.6377952755905512
    },
    {
      "endTime": 229.99997700000003,
      "pitch": 57,
      "startTime": 227.777755,
      "velocity": 0.6377952755905512
    },
    {
      "endTime": 229.99997700000003,
      "pitch": 62,
      "startTime": 227.777755,
      "velocity": 0.6377952755905512
    },
    {
      "endTime": 233.33331,
      "pitch": 38,
      "startTime": 229.99997700000003,
      "velocity": 0.49606299212598426
    },
    {
      "endTime": 233.33331,
      "pitch": 48,
      "startTime": 231.11108800000002,
      "velocity": 0.49606299212598426
    },
    {
      "endTime": 233.33331,
      "pitch": 54,
      "startTime": 231.11108800000002,
      "velocity": 0.49606299212598426
    },
    {
      "endTime": 233.33331,
      "pitch": 57,
      "startTime": 231.11108800000002,
      "velocity": 0.49606299212598426
    },
    {
      "endTime": 233.33331,
      "pitch": 62,
      "startTime": 231.11108800000002,
      "velocity": 0.49606299212598426
    },
    {
      "endTime": 233.33331,
      "pitch": 74,
      "startTime": 232.22219900000002,
      "velocity": 0.49606299212598426
    },
    {
      "endTime": 236.66664300000002,
      "pitch": 40,
      "startTime": 233.33331,
      "velocity": 0.49606299212598426
    },
    {
      "endTime": 236.66664300000002,
      "pitch": 79,
      "startTime": 233.33331,
      "velocity": 0.49606299212598426
    },
    {
      "endTime": 236.66664300000002,
      "pitch": 59,
      "startTime": 234.444421,
      "velocity": 0.49606299212598426
    },
    {
      "endTime": 236.66664300000002,
      "pitch": 64,
      "startTime": 234.444421,
      "velocity": 0.49606299212598426
    },
    {
      "endTime": 236.66664300000002,
      "pitch": 67,
      "startTime": 234.444421,
      "velocity": 0.49606299212598426
    },
    {
      "endTime": 239.99997600000003,
      "pitch": 40,
      "startTime": 236.66664300000002,
      "velocity": 0.49606299212598426
    },
    {
      "endTime": 239.99997600000003,
      "pitch": 77,
      "startTime": 236.66664300000002,
      "velocity": 0.49606299212598426
    },
    {
      "endTime": 239.99997600000003,
      "pitch": 57,
      "startTime": 237.77775400000002,
      "velocity": 0.49606299212598426
    },
    {
      "endTime": 239.99997600000003,
      "pitch": 62,
      "startTime": 237.77775400000002,
      "velocity": 0.49606299212598426
    },
    {
      "endTime": 239.99997600000003,
      "pitch": 65,
      "startTime": 237.77775400000002,
      "velocity": 0.49606299212598426
    },
    {
      "endTime": 239.99997600000003,
      "pitch": 69,
      "startTime": 237.77775400000002,
      "velocity": 0.49606299212598426
    },
    {
      "endTime": 243.333309,
      "pitch": 40,
      "startTime": 239.99997600000003,
      "velocity": 0.6377952755905512
    },
    {
      "endTime": 241.11108700000003,
      "pitch": 71,
      "startTime": 239.99997600000003,
      "velocity": 0.6377952755905512
    },
    {
      "endTime": 243.333309,
      "pitch": 57,
      "startTime": 241.11108700000003,
      "velocity": 0.6377952755905512
    },
    {
      "endTime": 243.333309,
      "pitch": 60,
      "startTime": 241.11108700000003,
      "velocity": 0.6377952755905512
    },
    {
      "endTime": 243.333309,
      "pitch": 65,
      "startTime": 241.11108700000003,
      "velocity": 0.6377952755905512
    },
    {
      "endTime": 242.22219800000002,
      "pitch": 72,
      "startTime": 241.11108700000003,
      "velocity": 0.6377952755905512
    },
    {
      "endTime": 243.333309,
      "pitch": 77,
      "startTime": 242.22219800000002,
      "velocity": 0.6377952755905512
    },
    {
      "endTime": 246.66664200000002,
      "pitch": 40,
      "startTime": 243.333309,
      "velocity": 0.6377952755905512
    },
    {
      "endTime": 244.44442,
      "pitch": 76,
      "startTime": 243.333309,
      "velocity": 0.6377952755905512
    },
    {
      "endTime": 246.66664200000002,
      "pitch": 60,
      "startTime": 244.44442,
      "velocity": 0.6377952755905512
    },
    {
      "endTime": 246.66664200000002,
      "pitch": 64,
      "startTime": 244.44442,
      "velocity": 0.6377952755905512
    },
    {
      "endTime": 246.66664200000002,
      "pitch": 69,
      "startTime": 244.44442,
      "velocity": 0.6377952755905512
    },
    {
      "endTime": 245.55553100000003,
      "pitch": 74,
      "startTime": 244.44442,
      "velocity": 0.6377952755905512
    },
    {
      "endTime": 246.66664200000002,
      "pitch": 72,
      "startTime": 245.55553100000003,
      "velocity": 0.6377952755905512
    },
    {
      "endTime": 249.99997500000003,
      "pitch": 40,
      "startTime": 246.66664200000002,
      "velocity": 0.6377952755905512
    },
    {
      "endTime": 247.77775300000002,
      "pitch": 76,
      "startTime": 246.66664200000002,
      "velocity": 0.6377952755905512
    },
    {
      "endTime": 249.99997500000003,
      "pitch": 57,
      "startTime": 247.77775300000002,
      "velocity": 0.6377952755905512
    },
    {
      "endTime": 249.99997500000003,
      "pitch": 60,
      "startTime": 247.77775300000002,
      "velocity": 0.6377952755905512
    },
    {
      "endTime": 249.99997500000003,
      "pitch": 65,
      "startTime": 247.77775300000002,
      "velocity": 0.6377952755905512
    },
    {
      "endTime": 249.99997500000003,
      "pitch": 69,
      "startTime": 247.77775300000002,
      "velocity": 0.6377952755905512
    },
    {
      "endTime": 248.888864,
      "pitch": 74,
      "startTime": 247.77775300000002,
      "velocity": 0.6377952755905512
    },
    {
      "endTime": 249.99997500000003,
      "pitch": 72,
      "startTime": 248.888864,
      "velocity": 0.6377952755905512
    },
    {
      "endTime": 253.33330800000002,
      "pitch": 40,
      "startTime": 249.99997500000003,
      "velocity": 0.49606299212598426
    },
    {
      "endTime": 253.33330800000002,
      "pitch": 65,
      "startTime": 249.99997500000003,
      "velocity": 0.49606299212598426
    },
    {
      "endTime": 252.22219700000002,
      "pitch": 47,
      "startTime": 251.11108600000003,
      "velocity": 0.49606299212598426
    },
    {
      "endTime": 252.22219700000002,
      "pitch": 57,
      "startTime": 251.11108600000003,
      "velocity": 0.49606299212598426
    },
    {
      "endTime": 252.22219700000002,
      "pitch": 62,
      "startTime": 251.11108600000003,
      "velocity": 0.49606299212598426
    },
    {
      "endTime": 253.33330800000002,
      "pitch": 52,
      "startTime": 252.22219700000002,
      "velocity": 0.49606299212598426
    },
    {
      "endTime": 253.33330800000002,
      "pitch": 59,
      "startTime": 252.22219700000002,
      "velocity": 0.49606299212598426
    },
    {
      "endTime": 253.33330800000002,
      "pitch": 62,
      "startTime": 252.22219700000002,
      "velocity": 0.49606299212598426
    },
    {
      "endTime": 253.33330800000002,
      "pitch": 67,
      "startTime": 252.22219700000002,
      "velocity": 0.49606299212598426
    },
    {
      "endTime": 257.246352,
      "pitch": 45,
      "startTime": 253.33330800000002,
      "velocity": 0.49606299212598426
    },
    {
      "endTime": 257.246352,
      "pitch": 55,
      "startTime": 253.33330800000002,
      "velocity": 0.49606299212598426
    },
    {
      "endTime": 257.246352,
      "pitch": 60,
      "startTime": 253.33330800000002,
      "velocity": 0.49606299212598426
    },
    {
      "endTime": 257.246352,
      "pitch": 64,
      "startTime": 253.33330800000002,
      "velocity": 0.49606299212598426
    },
    {
      "endTime": 257.246352,
      "pitch": 69,
      "startTime": 253.33330800000002,
      "velocity": 0.49606299212598426
    },
    {
      "endTime": 257.246352,
      "pitch": 72,
      "startTime": 253.33330800000002,
      "velocity": 0.49606299212598426
    },
    {
      "endTime": 262.54047,
      "pitch": 38,
      "startTime": 257.246352,
      "velocity": 0.3543307086614173
    },
    {
      "endTime": 262.54047,
      "pitch": 45,
      "startTime": 257.246352,
      "velocity": 0.3543307086614173
    },
    {
      "endTime": 262.54047,
      "pitch": 50,
      "startTime": 257.246352,
      "velocity": 0.3543307086614173
    },
    {
      "endTime": 262.54047,
      "pitch": 62,
      "startTime": 257.246352,
      "velocity": 0.3543307086614173
    },
    {
      "endTime": 262.54047,
      "pitch": 65,
      "startTime": 257.246352,
      "velocity": 0.3543307086614173
    },
    {
      "endTime": 262.54047,
      "pitch": 69,
      "startTime": 257.246352,
      "velocity": 0.3543307086614173
    },
    {
      "endTime": 262.54047,
      "pitch": 74,
      "startTime": 257.246352,
      "velocity": 0.3543307086614173
    }
  ],
  "tempos": [],
  "timeSignatures": [],
  "totalTime": 262.54047
}
