{
  "notes": [
    {
      "endTime": 15.555554,
      "pitch": 78,
      "startTime": 14.444443000000001,
      "velocity": 45.0
    },
    {
      "endTime": 16.666665000000002,
      "pitch": 81,
      "startTime": 15.555554,
      "velocity": 45.0
    },
    {
      "endTime": 17.777776000000003,
      "pitch": 79,
      "startTime": 16.666665000000002,
      "velocity": 45.0
    },
    {
      "endTime": 18.888887,
      "pitch": 78,
      "startTime": 17.777776000000003,
      "velocity": 45.0
    },
    {
      "endTime": 19.999998,
      "pitch": 73,
      "startTime": 18.888887,
      "velocity": 45.0
    },
    {
      "endTime": 21.111109000000003,
      "pitch": 71,
      "startTime": 19.999998,
      "velocity": 45.0
    },
    {
      "endTime": 22.22222,
      "pitch": 73,
      "startTime": 21.111109000000003,
      "velocity": 45.0
    },
    {
      "endTime": 23.333331,
      "pitch": 74,
      "startTime": 22.22222,
      "velocity": 63.0
    },
    {
      "endTime": 26.666664,
      "pitch": 69,
      "startTime": 23.333331,
      "velocity": 63.0
    },
    {
      "endTime": 39.999996,
      "pitch": 66,
      "startTime": 26.666664,
      "velocity": 45.0
    },
    {
      "endTime": 42.222218000000005,
      "pitch": 78,
      "startTime": 41.111107000000004,
      "velocity": 45.0
    },
    {
      "endTime": 43.333329000000006,
      "pitch": 81,
      "startTime": 42.222218000000005,
      "velocity": 45.0
    },
    {
      "endTime": 44.44444,
      "pitch": 79,
      "startTime": 43.333329000000006,
      "velocity": 45.0
    },
    {
      "endTime": 45.555551,
      "pitch": 78,
      "startTime": 44.44444,
      "velocity": 45.0
    },
    {
      "endTime": 46.666662,
      "pitch": 73,
      "startTime": 45.555551,
      "velocity": 45.0
    },
    {
      "endTime": 47.777773,
      "pitch": 71,
      "startTime": 46.666662,
      "velocity": 45.0
    },
    {
      "endTime": 48.888884000000004,
      "pitch": 73,
      "startTime": 47.777773,
      "velocity": 45.0
    },
    {
      "endTime": 49.999995000000006,
      "pitch": 74,
      "startTime": 48.888884000000004,
      "velocity": 45.0
    },
    {
      "endTime": 53.333328,
      "pitch": 69,
      "startTime": 49.999995000000006,
      "velocity": 63.0
    },
    {
      "endTime": 56.666661000000005,
      "pitch": 73,
      "startTime": 53.333328,
      "velocity": 63.0
    },
    {
      "endTime": 59.99999400000001,
      "pitch": 78,
      "startTime": 56.666661000000005,
      "velocity": 63.0
    },
    {
      "endTime": 69.999993,
      "pitch": 64,
      "startTime": 59.99999400000001,
      "velocity": 45.0
    },
    {
      "endTime": 71.11110400000001,
      "pitch": 69,
      "startTime": 69.999993,
      "velocity": 63.0
    },
    {
      "endTime": 72.222215,
      "pitch": 71,
      "startTime": 71.11110400000001,
      "velocity": 63.0
    },
    {
      "endTime": 73.333326,
      "pitch": 72,
      "startTime": 72.222215,
      "velocity": 63.0
    },
    {
      "endTime": 74.44443700000001,
      "pitch": 76,
      "startTime": 73.333326,
      "velocity": 63.0
    },
    {
      "endTime": 75.555548,
      "pitch": 74,
      "startTime": 74.44443700000001,
      "velocity": 63.0
    },
    {
      "endTime": 76.66665900000001,
      "pitch": 71,
      "startTime": 75.555548,
      "velocity": 63.0
    },
    {
      "endTime": 77.77777,
      "pitch": 74,
      "startTime": 76.66665900000001,
      "velocity": 63.0
    },
    {
      "endTime": 78.88888100000001,
      "pitch": 72,
      "startTime": 77.77777,
      "velocity": 63.0
    },
    {
      "endTime": 79.999992,
      "pitch": 71,
      "startTime": 78.88888100000001,
      "velocity": 63.0
    },
    {
      "endTime": 85.555547,
      "pitch": 74,
      "startTime": 79.999992,
      "velocity": 81.0
    },
    {
      "endTime": 86.66665800000001,
      "pitch": 74,
      "startTime": 85.555547,
      "velocity": 63.0
    },
    {
      "endTime": 87.777769,
      "pitch": 76,
      "startTime": 86.66665800000001,
      "velocity": 63.0
    },
    {
      "endTime": 88.88888,
      "pitch": 77,
      "startTime": 87.777769,
      "velocity": 63.0
    },
    {
      "endTime": 89.99999100000001,
      "pitch": 79,
      "startTime": 88.88888,
      "velocity": 63.0
    },
    {
      "endTime": 91.111102,
      "pitch": 81,
      "startTime": 89.99999100000001,
      "velocity": 63.0
    },
    {
      "endTime": 92.22221300000001,
      "pitch": 72,
      "startTime": 91.111102,
      "velocity": 63.0
    },
    {
      "endTime": 93.333324,
      "pitch": 74,
      "startTime": 92.22221300000001,
      "velocity": 63.0
    },
    {
      "endTime": 94.44443500000001,
      "pitch": 76,
      "startTime": 93.333324,
      "velocity": 81.0
    },
    {
      "endTime": 95.555546,
      "pitch": 74,
      "startTime": 94.44443500000001,
      "velocity": 81.0
    },
    {
      "endTime": 96.66665700000001,
      "pitch": 71,
      "startTime": 95.555546,
      "velocity": 81.0
    },
    {
      "endTime": 102.22221200000001,
      "pitch": 74,
      "startTime": 96.66665700000001,
      "velocity": 81.0
    },
    {
      "endTime": 103.33332300000001,
      "pitch": 74,
      "startTime": 102.22221200000001,
      "velocity": 63.0
    },
    {
      "endTime": 106.666656,
      "pitch": 79,
      "startTime": 103.33332300000001,
      "velocity": 63.0
    },
    {
      "endTime": 109.99998900000001,
      "pitch": 78,
      "startTime": 106.666656,
      "velocity": 63.0
    },
    {
      "endTime": 111.11110000000001,
      "pitch": 71,
      "startTime": 109.99998900000001,
      "velocity": 81.0
    },
    {
      "endTime": 112.22221100000002,
      "pitch": 69,
      "startTime": 111.11110000000001,
      "velocity": 81.0
    },
    {
      "endTime": 113.33332200000001,
      "pitch": 71,
      "startTime": 112.22221100000002,
      "velocity": 81.0
    },
    {
      "endTime": 114.444433,
      "pitch": 73,
      "startTime": 113.33332200000001,
      "velocity": 81.0
    },
    {
      "endTime": 115.55554400000001,
      "pitch": 74,
      "startTime": 114.444433,
      "velocity": 81.0
    },
    {
      "endTime": 116.666655,
      "pitch": 76,
      "startTime": 115.55554400000001,
      "velocity": 81.0
    },
    {
      "endTime": 117.77776600000001,
      "pitch": 73,
      "startTime": 116.666655,
      "velocity": 63.0
    },
    {
      "endTime": 118.88887700000001,
      "pitch": 74,
      "startTime": 117.77776600000001,
      "velocity": 63.0
    },
    {
      "endTime": 119.99998800000002,
      "pitch": 76,
      "startTime": 118.88887700000001,
      "velocity": 63.0
    },
    {
      "endTime": 123.33332100000001,
      "pitch": 66,
      "startTime": 119.99998800000002,
      "velocity": 63.0
    },
    {
      "endTime": 122.22221,
      "pitch": 57,
      "startTime": 121.11109900000001,
      "velocity": 63.0
    },
    {
      "endTime": 122.22221,
      "pitch": 62,
      "startTime": 121.11109900000001,
      "velocity": 63.0
    },
    {
      "endTime": 123.33332100000001,
      "pitch": 59,
      "startTime": 122.22221,
      "velocity": 63.0
    },
    {
      "endTime": 123.33332100000001,
      "pitch": 62,
      "startTime": 122.22221,
      "velocity": 63.0
    },
    {
      "endTime": 123.33332100000001,
      "pitch": 67,
      "startTime": 122.22221,
      "velocity": 63.0
    },
    {
      "endTime": 126.66665400000001,
      "pitch": 60,
      "startTime": 123.33332100000001,
      "velocity": 45.0
    },
    {
      "endTime": 126.66665400000001,
      "pitch": 64,
      "startTime": 123.33332100000001,
      "velocity": 45.0
    },
    {
      "endTime": 126.66665400000001,
      "pitch": 69,
      "startTime": 123.33332100000001,
      "velocity": 45.0
    },
    {
      "endTime": 126.66665400000001,
      "pitch": 72,
      "startTime": 123.33332100000001,
      "velocity": 45.0
    },
    {
      "endTime": 129.999987,
      "pitch": 62,
      "startTime": 126.66665400000001,
      "velocity": 45.0
    },
    {
      "endTime": 129.999987,
      "pitch": 66,
      "startTime": 126.66665400000001,
      "velocity": 45.0
    },
    {
      "endTime": 129.999987,
      "pitch": 69,
      "startTime": 126.66665400000001,
      "velocity": 45.0
    },
    {
      "endTime": 129.999987,
      "pitch": 74,
      "startTime": 126.66665400000001,
      "velocity": 45.0
    },
    {
      "endTime": 145.555541,
      "pitch": 78,
      "startTime": 144.44443,
      "velocity": 45.0
    },
    {
      "endTime": 146.666652,
      "pitch": 81,
      "startTime": 145.555541,
      "velocity": 45.0
    },
    {
      "endTime": 147.77776300000002,
      "pitch": 79,
      "startTime": 146.666652,
      "velocity": 45.0
    },
    {
      "endTime": 148.88887400000002,
      "pitch": 78,
      "startTime": 147.77776300000002,
      "velocity": 45.0
    },
    {
      "endTime": 149.999985,
      "pitch": 73,
      "startTime": 148.88887400000002,
      "velocity": 45.0
    },
    {
      "endTime": 151.111096,
      "pitch": 71,
      "startTime": 149.999985,
      "velocity": 63.0
    },
    {
      "endTime": 152.22220700000003,
      "pitch": 73,
      "startTime": 151.111096,
      "velocity": 63.0
    },
    {
      "endTime": 153.33331800000002,
      "pitch": 74,
      "startTime": 152.22220700000003,
      "velocity": 63.0
    },
    {
      "endTime": 156.666651,
      "pitch": 69,
      "startTime": 153.33331800000002,
      "velocity": 45.0
    },
    {
      "endTime": 169.99998300000001,
      "pitch": 66,
      "startTime": 156.666651,
      "velocity": 45.0
    },
    {
      "endTime": 172.222205,
      "pitch": 78,
      "startTime": 171.111094,
      "velocity": 45.0
    },
    {
      "endTime": 173.33331600000002,
      "pitch": 81,
      "startTime": 172.222205,
      "velocity": 45.0
    },
    {
      "endTime": 174.44442700000002,
      "pitch": 79,
      "startTime": 173.33331600000002,
      "velocity": 45.0
    },
    {
      "endTime": 175.555538,
      "pitch": 78,
      "startTime": 174.44442700000002,
      "velocity": 45.0
    },
    {
      "endTime": 176.666649,
      "pitch": 73,
      "startTime": 175.555538,
      "velocity": 45.0
    },
    {
      "endTime": 177.77776,
      "pitch": 71,
      "startTime": 176.666649,
      "velocity": 45.0
    },
    {
      "endTime": 178.88887100000002,
      "pitch": 73,
      "startTime": 177.77776,
      "velocity": 45.0
    },
    {
      "endTime": 179.99998200000002,
      "pitch": 74,
      "startTime": 178.88887100000002,
      "velocity": 45.0
    },
    {
      "endTime": 183.33331500000003,
      "pitch": 69,
      "startTime": 179.99998200000002,
      "velocity": 63.0
    },
    {
      "endTime": 186.666648,
      "pitch": 73,
      "startTime": 183.33331500000003,
      "velocity": 63.0
    },
    {
      "endTime": 189.99998100000002,
      "pitch": 78,
      "startTime": 186.666648,
      "velocity": 63.0
    },
    {
      "endTime": 199.99998000000002,
      "pitch": 64,
      "startTime": 189.99998100000002,
      "velocity": 63.0
    },
    {
      "endTime": 201.11109100000002,
      "pitch": 69,
      "startTime": 199.99998000000002,
      "velocity": 63.0
    },
    {
      "endTime": 202.222202,
      "pitch": 71,
      "startTime": 201.11109100000002,
      "velocity": 63.0
    },
    {
      "endTime": 203.333313,
      "pitch": 72,
      "startTime": 202.222202,
      "velocity": 63.0
    },
    {
      "endTime": 204.44442400000003,
      "pitch": 76,
      "startTime": 203.333313,
      "velocity": 63.0
    },
    {
      "endTime": 205.55553500000002,
      "pitch": 74,
      "startTime": 204.44442400000003,
      "velocity": 63.0
    },
    {
      "endTime": 206.66664600000001,
      "pitch": 71,
      "startTime": 205.55553500000002,
      "velocity": 63.0
    },
    {
      "endTime": 207.777757,
      "pitch": 74,
      "startTime": 206.66664600000001,
      "velocity": 81.0
    },
    {
      "endTime": 208.88886800000003,
      "pitch": 72,
      "startTime": 207.777757,
      "velocity": 81.0
    },
    {
      "endTime": 209.99997900000002,
      "pitch": 71,
      "startTime": 208.88886800000003,
      "velocity": 81.0
    },
    {
      "endTime": 215.55553400000002,
      "pitch": 74,
      "startTime": 209.99997900000002,
      "velocity": 63.0
    },
    {
      "endTime": 216.66664500000002,
      "pitch": 74,
      "startTime": 215.55553400000002,
      "velocity": 63.0
    },
    {
      "endTime": 217.777756,
      "pitch": 76,
      "startTime": 216.66664500000002,
      "velocity": 63.0
    },
    {
      "endTime": 218.888867,
      "pitch": 77,
      "startTime": 217.777756,
      "velocity": 63.0
    },
    {
      "endTime": 219.99997800000003,
      "pitch": 79,
      "startTime": 218.888867,
      "velocity": 63.0
    },
    {
      "endTime": 221.11108900000002,
      "pitch": 81,
      "startTime": 219.99997800000003,
      "velocity": 63.0
    },
    {
      "endTime": 222.22220000000002,
      "pitch": 72,
      "startTime": 221.11108900000002,
      "velocity": 63.0
    },
    {
      "endTime": 223.333311,
      "pitch": 74,
      "startTime": 222.22220000000002,
      "velocity": 63.0
    },
    {
      "endTime": 224.44442200000003,
      "pitch": 76,
      "startTime": 223.333311,
      "velocity": 81.0
    },
    {
      "endTime": 225.55553300000003,
      "pitch": 74,
      "startTime": 224.44442200000003,
      "velocity": 81.0
    },
    {
      "endTime": 226.66664400000002,
      "pitch": 71,
      "startTime": 225.55553300000003,
      "velocity": 81.0
    },
    {
      "endTime": 232.22219900000002,
      "pitch": 74,
      "startTime": 226.66664400000002,
      "velocity": 81.0
    },
    {
      "endTime": 233.33331,
      "pitch": 74,
      "startTime": 232.22219900000002,
      "velocity": 63.0
    },
    {
      "endTime": 236.66664300000002,
      "pitch": 79,
      "startTime": 233.33331,
      "velocity": 63.0
    },
    {
      "endTime": 239.99997600000003,
      "pitch": 77,
      "startTime": 236.66664300000002,
      "velocity": 63.0
    },
    {
      "endTime": 241.11108700000003,
      "pitch": 71,
      "startTime": 239.99997600000003,
      "velocity": 81.0
    },
    {
      "endTime": 242.22219800000002,
      "pitch": 72,
      "startTime": 241.11108700000003,
      "velocity": 81.0
    },
    {
      "endTime": 243.333309,
      "pitch": 77,
      "startTime": 242.22219800000002,
      "velocity": 81.0
    },
    {
      "endTime": 244.44442,
      "pitch": 76,
      "startTime": 243.333309,
      "velocity": 81.0
    },
    {
      "endTime": 245.55553100000003,
      "pitch": 74,
      "startTime": 244.44442,
      "velocity": 81.0
    },
    {
      "endTime": 246.66664200000002,
      "pitch": 72,
      "startTime": 245.55553100000003,
      "velocity": 81.0
    },
    {
      "endTime": 247.77775300000002,
      "pitch": 76,
      "startTime": 246.66664200000002,
      "velocity": 81.0
    },
    {
      "endTime": 248.888864,
      "pitch": 74,
      "startTime": 247.77775300000002,
      "velocity": 81.0
    },
    {
      "endTime": 249.99997500000003,
      "pitch": 72,
      "startTime": 248.888864,
      "velocity": 81.0
    },
    {
      "endTime": 253.33330800000002,
      "pitch": 65,
      "startTime": 249.99997500000003,
      "velocity": 63.0
    },
    {
      "endTime": 252.22219700000002,
      "pitch": 57,
      "startTime": 251.11108600000003,
      "velocity": 63.0
    },
    {
      "endTime": 252.22219700000002,
      "pitch": 62,
      "startTime": 251.11108600000003,
      "velocity": 63.0
    },
    {
      "endTime": 253.33330800000002,
      "pitch": 59,
      "startTime": 252.22219700000002,
      "velocity": 63.0
    },
    {
      "endTime": 253.33330800000002,
      "pitch": 62,
      "startTime": 252.22219700000002,
      "velocity": 63.0
    },
    {
      "endTime": 253.33330800000002,
      "pitch": 67,
      "startTime": 252.22219700000002,
      "velocity": 63.0
    },
    {
      "endTime": 257.246352,
      "pitch": 60,
      "startTime": 253.33330800000002,
      "velocity": 63.0
    },
    {
      "endTime": 257.246352,
      "pitch": 64,
      "startTime": 253.33330800000002,
      "velocity": 63.0
    },
    {
      "endTime": 257.246352,
      "pitch": 69,
      "startTime": 253.33330800000002,
      "velocity": 63.0
    },
    {
      "endTime": 257.246352,
      "pitch": 72,
      "startTime": 253.33330800000002,
      "velocity": 63.0
    },
    {
      "endTime": 262.54047,
      "pitch": 62,
      "startTime": 257.246352,
      "velocity": 45.0
    },
    {
      "endTime": 262.54047,
      "pitch": 65,
      "startTime": 257.246352,
      "velocity": 45.0
    },
    {
      "endTime": 262.54047,
      "pitch": 69,
      "startTime": 257.246352,
      "velocity": 45.0
    },
    {
      "endTime": 262.54047,
      "pitch": 74,
      "startTime": 257.246352,
      "velocity": 45.0
    }
  ],
  "tempos": [],
  "timeSignatures": [],
  "totalTime": 262.54047
}
