{
  "notes": [
    {
      "pitch": 74,
      "startTime": 0.0,
      "endTime": 0.25,
      "velocity": 0.7086614173228346
    },
    {
      "pitch": 74,
      "startTime": 0.25,
      "endTime": 0.5,
      "velocity": 0.7086614173228346
    },
    {
      "pitch": 74,
      "startTime": 0.5,
      "endTime": 2.0,
      "velocity": 0.7086614173228346
    },
    {
      "pitch": 72,
      "startTime": 2.25,
      "endTime": 2.5,
      "velocity": 0.7086614173228346
    },
    {
      "pitch": 72,
      "startTime": 2.5,
      "endTime": 2.75,
      "velocity": 0.7086614173228346
    },
    {
      "pitch": 73,
      "startTime": 2.75,
      "endTime": 3.0,
      "velocity": 0.7086614173228346
    },
    {
      "pitch": 74,
      "startTime": 3.0,
      "endTime": 3.25,
      "velocity": 0.7086614173228346
    },
    {
      "pitch": 70,
      "startTime": 3.25,
      "endTime": 4.0,
      "velocity": 0.7086614173228346
    },
    {
      "pitch": 69,
      "startTime": 4.0,
      "endTime": 7.25,
      "velocity": 0.7086614173228346
    },
    {
      "pitch": 72,
      "startTime": 7.25,
      "endTime": 7.75,
      "velocity": 0.7086614173228346
    },
    {
      "pitch": 72,
      "startTime": 7.75,
      "endTime": 8.0,
      "velocity": 0.7086614173228346
    },
    {
      "pitch": 72,
      "startTime": 8.0,
      "endTime": 8.25,
      "velocity": 0.7086614173228346
    },
    {
      "pitch": 72,
      "startTime": 8.25,
      "endTime": 10.0,
      "velocity": 0.7086614173228346
    },
    {
      "pitch": 72,
      "startTime": 10.5,
      "endTime": 10.75,
      "velocity": 0.7086614173228346
    },
    {
      "pitch": 73,
      "startTime": 10.75,
      "endTime": 11.0,
      "velocity": 0.7086614173228346
    },
    {
      "pitch": 74,
      "startTime": 11.0,
      "endTime": 11.25,
      "velocity": 0.7086614173228346
    },
    {
      "pitch": 69,
      "startTime": 11.25,
      "endTime": 12.0,
      "velocity": 0.7086614173228346
    },
    {
      "pitch": 67,
      "startTime": 12.0,
      "endTime": 15.0,
      "velocity": 0.7086614173228346
    },
    {
      "pitch": 74,
      "startTime": 15.5,
      "endTime": 15.75,
      "velocity": 0.7086614173228346
    },
    {
      "pitch": 74,
      "startTime": 15.75,
      "endTime": 16.0,
      "velocity": 0.7086614173228346
    },
    {
      "pitch": 74,
      "startTime": 16.0,
      "endTime": 16.25,
      "velocity": 0.7086614173228346
    },
    {
      "pitch": 74,
      "startTime": 16.25,
      "endTime": 18.0,
      "velocity": 0.7086614173228346
    },
    {
      "pitch": 72,
      "startTime": 18.25,
      "endTime": 18.5,
      "velocity": 0.7086614173228346
    },
    {
      "pitch": 72,
      "startTime": 18.5,
      "endTime": 18.75,
      "velocity": 0.7086614173228346
    },
    {
      "pitch": 73,
      "startTime": 18.75,
      "endTime": 19.0,
      "velocity": 0.7086614173228346
    },
    {
      "pitch": 74,
      "startTime": 19.0,
      "endTime": 19.25,
      "velocity": 0.7086614173228346
    },
    {
      "pitch": 70,
      "startTime": 19.25,
      "endTime": 20.0,
      "velocity": 0.7086614173228346
    },
    {
      "pitch": 69,
      "startTime": 20.0,
      "endTime": 23.0,
      "velocity": 0.7086614173228346
    },
    {
      "pitch": 72,
      "startTime": 23.5,
      "endTime": 23.75,
      "velocity": 0.7086614173228346
    },
    {
      "pitch": 72,
      "startTime": 23.75,
      "endTime": 24.0,
      "velocity": 0.7086614173228346
    },
    {
      "pitch": 72,
      "startTime": 24.0,
      "endTime": 24.25,
      "velocity": 0.7086614173228346
    },
    {
      "pitch": 72,
      "startTime": 24.25,
      "endTime": 24.75,
      "velocity": 0.7086614173228346
    },
    {
      "pitch": 72,
      "startTime": 24.75,
      "endTime": 26.0,
      "velocity": 0.7086614173228346
    },
    {
      "pitch": 72,
      "startTime": 26.5,
      "endTime": 26.75,
      "velocity": 0.7086614173228346
    },
    {
      "pitch": 73,
      "startTime": 26.75,
      "endTime": 27.0,
      "velocity": 0.7086614173228346
    },
    {
      "pitch": 74,
      "startTime": 27.0,
      "endTime": 27.5,
      "velocity": 0.7086614173228346
    },
    {
      "pitch": 69,
      "startTime": 27.5,
      "endTime": 28.0,
      "velocity": 0.7086614173228346
    },
    {
      "pitch": 67,
      "startTime": 28.0,
      "endTime": 29.0,
      "velocity": 0.7086614173228346
    },
    {
      "pitch": 69,
      "startTime": 29.0,
      "endTime": 30.0,
      "velocity": 0.7086614173228346
    },
    {
      "pitch": 74,
      "startTime": 30.0,
      "endTime": 31.5,
      "velocity": 0.7086614173228346
    }
  ],
  "totalTime": 31.5,
  "tempos": [],
  "timeSignatures": []
}