{
  "notes": [
    {
      "pitch": 66,
      "startTime": 0.0,
      "endTime": 0.25,
      "velocity": 0.7086614173228346
    },
    {
      "pitch": 69,
      "startTime": 0.25,
      "endTime": 0.5,
      "velocity": 0.7086614173228346
    },
    {
      "pitch": 66,
      "startTime": 0.5,
      "endTime": 0.75,
      "velocity": 0.7086614173228346
    },
    {
      "pitch": 62,
      "startTime": 0.75,
      "endTime": 2.0,
      "velocity": 0.7086614173228346
    },
    {
      "pitch": 70,
      "startTime": 2.5,
      "endTime": 2.75,
      "velocity": 0.7086614173228346
    },
    {
      "pitch": 70,
      "startTime": 2.75,
      "endTime": 3.0,
      "velocity": 0.7086614173228346
    },
    {
      "pitch": 70,
      "startTime": 3.0,
      "endTime": 3.75,
      "velocity": 0.7086614173228346
    },
    {
      "pitch": 69,
      "startTime": 3.75,
      "endTime": 4.0,
      "velocity": 0.7086614173228346
    },
    {
      "pitch": 67,
      "startTime": 4.0,
      "endTime": 7.0,
      "velocity": 0.7086614173228346
    },
    {
      "pitch": 71,
      "startTime": 8.0,
      "endTime": 8.25,
      "velocity": 0.7086614173228346
    },
    {
      "pitch": 74,
      "startTime": 8.25,
      "endTime": 8.5,
      "velocity": 0.7086614173228346
    },
    {
      "pitch": 71,
      "startTime": 8.5,
      "endTime": 8.75,
      "velocity": 0.7086614173228346
    },
    {
      "pitch": 67,
      "startTime": 8.75,
      "endTime": 9.25,
      "velocity": 0.7086614173228346
    },
    {
      "pitch": 67,
      "startTime": 9.25,
      "endTime": 10.0,
      "velocity": 0.7086614173228346
    },
    {
      "pitch": 63,
      "startTime": 10.25,
      "endTime": 10.5,
      "velocity": 0.7086614173228346
    },
    {
      "pitch": 64,
      "startTime": 10.5,
      "endTime": 10.75,
      "velocity": 0.7086614173228346
    },
    {
      "pitch": 67,
      "startTime": 10.75,
      "endTime": 11.0,
      "velocity": 0.7086614173228346
    },
    {
      "pitch": 70,
      "startTime": 11.0,
      "endTime": 11.75,
      "velocity": 0.7086614173228346
    },
    {
      "pitch": 69,
      "startTime": 11.75,
      "endTime": 12.0,
      "velocity": 0.7086614173228346
    },
    {
      "pitch": 67,
      "startTime": 12.0,
      "endTime": 14.5,
      "velocity": 0.7086614173228346
    },
    {
      "pitch": 64,
      "startTime": 16.25,
      "endTime": 16.5,
      "velocity": 0.7086614173228346
    },
    {
      "pitch": 67,
      "startTime": 16.5,
      "endTime": 16.75,
      "velocity": 0.7086614173228346
    },
    {
      "pitch": 69,
      "startTime": 16.75,
      "endTime": 17.25,
      "velocity": 0.7086614173228346
    },
    {
      "pitch": 69,
      "startTime": 17.25,
      "endTime": 18.0,
      "velocity": 0.7086614173228346
    },
    {
      "pitch": 63,
      "startTime": 18.25,
      "endTime": 18.5,
      "velocity": 0.7086614173228346
    },
    {
      "pitch": 64,
      "startTime": 18.5,
      "endTime": 18.75,
      "velocity": 0.7086614173228346
    },
    {
      "pitch": 67,
      "startTime": 18.75,
      "endTime": 19.0,
      "velocity": 0.7086614173228346
    },
    {
      "pitch": 70,
      "startTime": 19.0,
      "endTime": 19.75,
      "velocity": 0.7086614173228346
    },
    {
      "pitch": 69,
      "startTime": 19.75,
      "endTime": 20.0,
      "velocity": 0.7086614173228346
    },
    {
      "pitch": 67,
      "startTime": 20.0,
      "endTime": 23.0,
      "velocity": 0.7086614173228346
    },
    {
      "pitch": 66,
      "startTime": 24.0,
      "endTime": 24.25,
      "velocity": 0.7086614173228346
    },
    {
      "pitch": 69,
      "startTime": 24.25,
      "endTime": 24.5,
      "velocity": 0.7086614173228346
    },
    {
      "pitch": 66,
      "startTime": 24.5,
      "endTime": 24.75,
      "velocity": 0.7086614173228346
    },
    {
      "pitch": 62,
      "startTime": 24.75,
      "endTime": 26.0,
      "velocity": 0.7086614173228346
    },
    {
      "pitch": 70,
      "startTime": 26.5,
      "endTime": 26.75,
      "velocity": 0.7086614173228346
    },
    {
      "pitch": 70,
      "startTime": 26.75,
      "endTime": 27.0,
      "velocity": 0.7086614173228346
    },
    {
      "pitch": 70,
      "startTime": 27.0,
      "endTime": 27.75,
      "velocity": 0.7086614173228346
    },
    {
      "pitch": 69,
      "startTime": 27.75,
      "endTime": 28.0,
      "velocity": 0.7086614173228346
    },
    {
      "pitch": 67,
      "startTime": 28.0,
      "endTime": 31.0,
      "velocity": 0.7086614173228346
    },
    {
      "pitch": 74,
      "startTime": 31.25,
      "endTime": 31.5,
      "velocity": 0.7086614173228346
    },
    {
      "pitch": 74,
      "startTime": 31.5,
      "endTime": 31.75,
      "velocity": 0.7086614173228346
    },
    {
      "pitch": 74,
      "startTime": 31.75,
      "endTime": 32.0,
      "velocity": 0.7086614173228346
    },
    {
      "pitch": 74,
      "startTime": 32.0,
      "endTime": 32.25,
      "velocity": 0.7086614173228346
    },
    {
      "pitch": 74,
      "startTime": 32.25,
      "endTime": 32.5,
      "velocity": 0.7086614173228346
    },
    {
      "pitch": 74,
      "startTime": 32.5,
      "endTime": 34.0,
      "velocity": 0.7086614173228346
    },
    {
      "pitch": 72,
      "startTime": 34.25,
      "endTime": 34.5,
      "velocity": 0.7086614173228346
    },
    {
      "pitch": 72,
      "startTime": 34.5,
      "endTime": 34.75,
      "velocity": 0.7086614173228346
    },
    {
      "pitch": 73,
      "startTime": 34.75,
      "endTime": 35.0,
      "velocity": 0.7086614173228346
    },
    {
      "pitch": 74,
      "startTime": 35.0,
      "endTime": 35.25,
      "velocity": 0.7086614173228346
    },
    {
      "pitch": 70,
      "startTime": 35.25,
      "endTime": 36.0,
      "velocity": 0.7086614173228346
    },
    {
      "pitch": 69,
      "startTime": 36.0,
      "endTime": 39.25,
      "velocity": 0.7086614173228346
    },
    {
      "pitch": 72,
      "startTime": 39.25,
      "endTime": 39.75,
      "velocity": 0.7086614173228346
    },
    {
      "pitch": 72,
      "startTime": 39.75,
      "endTime": 40.0,
      "velocity": 0.7086614173228346
    },
    {
      "pitch": 72,
      "startTime": 40.0,
      "endTime": 40.25,
      "velocity": 0.7086614173228346
    },
    {
      "pitch": 72,
      "startTime": 40.25,
      "endTime": 42.0,
      "velocity": 0.7086614173228346
    },
    {
      "pitch": 72,
      "startTime": 42.5,
      "endTime": 42.75,
      "velocity": 0.7086614173228346
    },
    {
      "pitch": 73,
      "startTime": 42.75,
      "endTime": 43.0,
      "velocity": 0.7086614173228346
    },
    {
      "pitch": 74,
      "startTime": 43.0,
      "endTime": 43.25,
      "velocity": 0.7086614173228346
    },
    {
      "pitch": 69,
      "startTime": 43.25,
      "endTime": 44.0,
      "velocity": 0.7086614173228346
    },
    {
      "pitch": 67,
      "startTime": 44.0,
      "endTime": 47.0,
      "velocity": 0.7086614173228346
    },
    {
      "pitch": 74,
      "startTime": 47.5,
      "endTime": 47.75,
      "velocity": 0.7086614173228346
    },
    {
      "pitch": 74,
      "startTime": 47.75,
      "endTime": 48.0,
      "velocity": 0.7086614173228346
    },
    {
      "pitch": 74,
      "startTime": 48.0,
      "endTime": 48.25,
      "velocity": 0.7086614173228346
    },
    {
      "pitch": 74,
      "startTime": 48.25,
      "endTime": 50.0,
      "velocity": 0.7086614173228346
    },
    {
      "pitch": 72,
      "startTime": 50.25,
      "endTime": 50.5,
      "velocity": 0.7086614173228346
    },
    {
      "pitch": 72,
      "startTime": 50.5,
      "endTime": 50.75,
      "velocity": 0.7086614173228346
    },
    {
      "pitch": 73,
      "startTime": 50.75,
      "endTime": 51.0,
      "velocity": 0.7086614173228346
    },
    {
      "pitch": 74,
      "startTime": 51.0,
      "endTime": 51.25,
      "velocity": 0.7086614173228346
    },
    {
      "pitch": 70,
      "startTime": 51.25,
      "endTime": 52.0,
      "velocity": 0.7086614173228346
    },
    {
      "pitch": 69,
      "startTime": 52.0,
      "endTime": 55.0,
      "velocity": 0.7086614173228346
    },
    {
      "pitch": 72,
      "startTime": 55.5,
      "endTime": 55.75,
      "velocity": 0.7086614173228346
    },
    {
      "pitch": 72,
      "startTime": 55.75,
      "endTime": 56.0,
      "velocity": 0.7086614173228346
    },
    {
      "pitch": 72,
      "startTime": 56.0,
      "endTime": 56.25,
      "velocity": 0.7086614173228346
    },
    {
      "pitch": 72,
      "startTime": 56.25,
      "endTime": 56.75,
      "velocity": 0.7086614173228346
    },
    {
      "pitch": 72,
      "startTime": 56.75,
      "endTime": 58.0,
      "velocity": 0.7086614173228346
    },
    {
      "pitch": 72,
      "startTime": 58.5,
      "endTime": 58.75,
      "velocity": 0.7086614173228346
    },
    {
      "pitch": 73,
      "startTime": 58.75,
      "endTime": 59.0,
      "velocity": 0.7086614173228346
    },
    {
      "pitch": 74,
      "startTime": 59.0,
      "endTime": 59.5,
      "velocity": 0.7086614173228346
    },
    {
      "pitch": 69,
      "startTime": 59.5,
      "endTime": 60.0,
      "velocity": 0.7086614173228346
    },
    {
      "pitch": 67,
      "startTime": 60.0,
      "endTime": 61.0,
      "velocity": 0.7086614173228346
    },
    {
      "pitch": 69,
      "startTime": 61.0,
      "endTime": 62.0,
      "velocity": 0.7086614173228346
    },
    {
      "pitch": 74,
      "startTime": 62.0,
      "endTime": 63.5,
      "velocity": 0.7086614173228346
    }
  ],
  "totalTime": 63.5,
  "tempos": [],
  "timeSignatures": []
}