{
  "notes": [
    {
      "pitch": 71,
      "startTime": 0.0,
      "endTime": 0.25,
      "velocity": 90.0
    },
    {
      "pitch": 74,
      "startTime": 0.25,
      "endTime": 0.5,
      "velocity": 90.0
    },
    {
      "pitch": 71,
      "startTime": 0.5,
      "endTime": 0.75,
      "velocity": 90.0
    },
    {
      "pitch": 67,
      "startTime": 0.75,
      "endTime": 2.0,
      "velocity": 90.0
    },
    {
      "pitch": 63,
      "startTime": 2.25,
      "endTime": 2.5,
      "velocity": 90.0
    },
    {
      "pitch": 64,
      "startTime": 2.5,
      "endTime": 2.75,
      "velocity": 90.0
    },
    {
      "pitch": 67,
      "startTime": 2.75,
      "endTime": 3.0,
      "velocity": 90.0
    },
    {
      "pitch": 70,
      "startTime": 3.0,
      "endTime": 3.75,
      "velocity": 90.0
    },
    {
      "pitch": 69,
      "startTime": 3.75,
      "endTime": 4.0,
      "velocity": 90.0
    },
    {
      "pitch": 67,
      "startTime": 4.0,
      "endTime": 7.5,
      "velocity": 90.0
    },
    {
      "pitch": 64,
      "startTime": 8.25,
      "endTime": 8.5,
      "velocity": 90.0
    },
    {
      "pitch": 67,
      "startTime": 8.5,
      "endTime": 8.75,
      "velocity": 90.0
    },
    {
      "pitch": 69,
      "startTime": 8.75,
      "endTime": 10.0,
      "velocity": 90.0
    },
    {
      "pitch": 64,
      "startTime": 10.25,
      "endTime": 10.5,
      "velocity": 90.0
    },
    {
      "pitch": 67,
      "startTime": 10.5,
      "endTime": 10.75,
      "velocity": 90.0
    },
    {
      "pitch": 69,
      "startTime": 10.75,
      "endTime": 11.0,
      "velocity": 90.0
    },
    {
      "pitch": 70,
      "startTime": 11.0,
      "endTime": 11.75,
      "velocity": 90.0
    },
    {
      "pitch": 69,
      "startTime": 11.75,
      "endTime": 12.0,
      "velocity": 90.0
    },
    {
      "pitch": 67,
      "startTime": 12.0,
      "endTime": 15.0,
      "velocity": 90.0
    },
    {
      "pitch": 66,
      "startTime": 16.0,
      "endTime": 16.25,
      "velocity": 90.0
    },
    {
      "pitch": 69,
      "startTime": 16.25,
      "endTime": 16.5,
      "velocity": 90.0
    },
    {
      "pitch": 66,
      "startTime": 16.5,
      "endTime": 16.75,
      "velocity": 90.0
    },
    {
      "pitch": 62,
      "startTime": 16.75,
      "endTime": 18.0,
      "velocity": 90.0
    },
    {
      "pitch": 70,
      "startTime": 18.5,
      "endTime": 18.75,
      "velocity": 90.0
    },
    {
      "pitch": 70,
      "startTime": 18.75,
      "endTime": 19.0,
      "velocity": 90.0
    },
    {
      "pitch": 70,
      "startTime": 19.0,
      "endTime": 19.75,
      "velocity": 90.0
    },
    {
      "pitch": 69,
      "startTime": 19.75,
      "endTime": 20.0,
      "velocity": 90.0
    },
    {
      "pitch": 67,
      "startTime": 20.0,
      "endTime": 23.0,
      "velocity": 90.0
    },
    {
      "pitch": 71,
      "startTime": 24.0,
      "endTime": 24.25,
      "velocity": 90.0
    },
    {
      "pitch": 74,
      "startTime": 24.25,
      "endTime": 24.5,
      "velocity": 90.0
    },
    {
      "pitch": 71,
      "startTime": 24.5,
      "endTime": 24.75,
      "velocity": 90.0
    },
    {
      "pitch": 67,
      "startTime": 24.75,
      "endTime": 25.25,
      "velocity": 90.0
    },
    {
      "pitch": 67,
      "startTime": 25.25,
      "endTime": 26.0,
      "velocity": 90.0
    },
    {
      "pitch": 63,
      "startTime": 26.25,
      "endTime": 26.5,
      "velocity": 90.0
    },
    {
      "pitch": 64,
      "startTime": 26.5,
      "endTime": 26.75,
      "velocity": 90.0
    },
    {
      "pitch": 67,
      "startTime": 26.75,
      "endTime": 27.0,
      "velocity": 90.0
    },
    {
      "pitch": 70,
      "startTime": 27.0,
      "endTime": 27.75,
      "velocity": 90.0
    },
    {
      "pitch": 69,
      "startTime": 27.75,
      "endTime": 28.0,
      "velocity": 90.0
    },
    {
      "pitch": 67,
      "startTime": 28.0,
      "endTime": 30.5,
      "velocity": 90.0
    },
    {
      "pitch": 64,
      "startTime": 32.25,
      "endTime": 32.5,
      "velocity": 90.0
    },
    {
      "pitch": 67,
      "startTime": 32.5,
      "endTime": 32.75,
      "velocity": 90.0
    },
    {
      "pitch": 69,
      "startTime": 32.75,
      "endTime": 33.25,
      "velocity": 90.0
    },
    {
      "pitch": 69,
      "startTime": 33.25,
      "endTime": 34.0,
      "velocity": 90.0
    },
    {
      "pitch": 63,
      "startTime": 34.25,
      "endTime": 34.5,
      "velocity": 90.0
    },
    {
      "pitch": 64,
      "startTime": 34.5,
      "endTime": 34.75,
      "velocity": 90.0
    },
    {
      "pitch": 67,
      "startTime": 34.75,
      "endTime": 35.0,
      "velocity": 90.0
    },
    {
      "pitch": 70,
      "startTime": 35.0,
      "endTime": 35.75,
      "velocity": 90.0
    },
    {
      "pitch": 69,
      "startTime": 35.75,
      "endTime": 36.0,
      "velocity": 90.0
    },
    {
      "pitch": 67,
      "startTime": 36.0,
      "endTime": 39.0,
      "velocity": 90.0
    },
    {
      "pitch": 66,
      "startTime": 40.0,
      "endTime": 40.25,
      "velocity": 90.0
    },
    {
      "pitch": 69,
      "startTime": 40.25,
      "endTime": 40.5,
      "velocity": 90.0
    },
    {
      "pitch": 66,
      "startTime": 40.5,
      "endTime": 40.75,
      "velocity": 90.0
    },
    {
      "pitch": 62,
      "startTime": 40.75,
      "endTime": 42.0,
      "velocity": 90.0
    },
    {
      "pitch": 70,
      "startTime": 42.5,
      "endTime": 42.75,
      "velocity": 90.0
    },
    {
      "pitch": 70,
      "startTime": 42.75,
      "endTime": 43.0,
      "velocity": 90.0
    },
    {
      "pitch": 70,
      "startTime": 43.0,
      "endTime": 43.75,
      "velocity": 90.0
    },
    {
      "pitch": 69,
      "startTime": 43.75,
      "endTime": 44.0,
      "velocity": 90.0
    },
    {
      "pitch": 67,
      "startTime": 44.0,
      "endTime": 47.0,
      "velocity": 90.0
    },
    {
      "pitch": 74,
      "startTime": 47.25,
      "endTime": 47.5,
      "velocity": 90.0
    }
  ],
  "totalTime": 47.5,
  "tempos": [],
  "timeSignatures": []
}