{
  "notes": [
    {
      "pitch": 74,
      "startTime": 0.0,
      "endTime": 0.25,
      "velocity": 90.0
    },
    {
      "pitch": 74,
      "startTime": 0.25,
      "endTime": 0.5,
      "velocity": 90.0
    },
    {
      "pitch": 74,
      "startTime": 0.5,
      "endTime": 0.75,
      "velocity": 90.0
    },
    {
      "pitch": 55,
      "startTime": 0.75,
      "endTime": 2.75,
      "velocity": 90.0
    },
    {
      "pitch": 58,
      "startTime": 0.75,
      "endTime": 12.75,
      "velocity": 90.0
    },
    {
      "pitch": 62,
      "startTime": 0.75,
      "endTime": 12.75,
      "velocity": 90.0
    },
    {
      "pitch": 74,
      "startTime": 0.75,
      "endTime": 1.0,
      "velocity": 90.0
    },
    {
      "pitch": 74,
      "startTime": 1.0,
      "endTime": 2.75,
      "velocity": 90.0
    },
    {
      "pitch": 48,
      "startTime": 2.75,
      "endTime": 18.75,
      "velocity": 90.0
    },
    {
      "pitch": 51,
      "startTime": 2.75,
      "endTime": 66.75,
      "velocity": 90.0
    },
    {
      "pitch": 55,
      "startTime": 2.75,
      "endTime": 12.75,
      "velocity": 90.0
    },
    {
      "pitch": 72,
      "startTime": 3.0,
      "endTime": 3.25,
      "velocity": 90.0
    },
    {
      "pitch": 72,
      "startTime": 3.25,
      "endTime": 3.5,
      "velocity": 90.0
    },
    {
      "pitch": 73,
      "startTime": 3.5,
      "endTime": 3.75,
      "velocity": 90.0
    },
    {
      "pitch": 74,
      "startTime": 3.75,
      "endTime": 4.0,
      "velocity": 90.0
    },
    {
      "pitch": 70,
      "startTime": 4.0,
      "endTime": 4.75,
      "velocity": 90.0
    },
    {
      "pitch": 50,
      "startTime": 4.75,
      "endTime": 14.75,
      "velocity": 90.0
    },
    {
      "pitch": 54,
      "startTime": 4.75,
      "endTime": 14.75,
      "velocity": 90.0
    },
    {
      "pitch": 57,
      "startTime": 4.75,
      "endTime": 14.75,
      "velocity": 90.0
    },
    {
      "pitch": 60,
      "startTime": 4.75,
      "endTime": 15.75,
      "velocity": 90.0
    },
    {
      "pitch": 69,
      "startTime": 4.75,
      "endTime": 8.0,
      "velocity": 90.0
    },
    {
      "pitch": 72,
      "startTime": 8.0,
      "endTime": 8.25,
      "velocity": 90.0
    },
    {
      "pitch": 72,
      "startTime": 8.25,
      "endTime": 8.5,
      "velocity": 90.0
    },
    {
      "pitch": 72,
      "startTime": 8.5,
      "endTime": 8.75,
      "velocity": 90.0
    },
    {
      "pitch": 72,
      "startTime": 8.75,
      "endTime": 9.0,
      "velocity": 90.0
    },
    {
      "pitch": 72,
      "startTime": 9.0,
      "endTime": 10.75,
      "velocity": 90.0
    },
    {
      "pitch": 72,
      "startTime": 11.0,
      "endTime": 11.25,
      "velocity": 90.0
    },
    {
      "pitch": 72,
      "startTime": 11.25,
      "endTime": 11.5,
      "velocity": 90.0
    },
    {
      "pitch": 73,
      "startTime": 11.5,
      "endTime": 11.75,
      "velocity": 90.0
    },
    {
      "pitch": 74,
      "startTime": 11.75,
      "endTime": 12.0,
      "velocity": 90.0
    },
    {
      "pitch": 69,
      "startTime": 12.0,
      "endTime": 12.75,
      "velocity": 90.0
    },
    {
      "pitch": 55,
      "startTime": 12.75,
      "endTime": 13.75,
      "velocity": 90.0
    },
    {
      "pitch": 58,
      "startTime": 12.75,
      "endTime": 34.75,
      "velocity": 90.0
    },
    {
      "pitch": 62,
      "startTime": 12.75,
      "endTime": 20.75,
      "velocity": 90.0
    },
    {
      "pitch": 67,
      "startTime": 12.75,
      "endTime": 13.75,
      "velocity": 90.0
    },
    {
      "pitch": 49,
      "startTime": 13.75,
      "endTime": 68.0,
      "velocity": 90.0
    },
    {
      "pitch": 52,
      "startTime": 13.75,
      "endTime": 18.75,
      "velocity": 90.0
    },
    {
      "pitch": 55,
      "startTime": 13.75,
      "endTime": 18.75,
      "velocity": 90.0
    },
    {
      "pitch": 69,
      "startTime": 13.75,
      "endTime": 14.75,
      "velocity": 90.0
    },
    {
      "pitch": 50,
      "startTime": 14.75,
      "endTime": 15.75,
      "velocity": 90.0
    },
    {
      "pitch": 54,
      "startTime": 14.75,
      "endTime": 15.75,
      "velocity": 90.0
    },
    {
      "pitch": 57,
      "startTime": 14.75,
      "endTime": 15.75,
      "velocity": 90.0
    },
    {
      "pitch": 74,
      "startTime": 14.75,
      "endTime": 15.75,
      "velocity": 90.0
    },
    {
      "pitch": 50,
      "startTime": 15.75,
      "endTime": 16.75,
      "velocity": 90.0
    },
    {
      "pitch": 54,
      "startTime": 15.75,
      "endTime": 32.75,
      "velocity": 90.0
    },
    {
      "pitch": 57,
      "startTime": 15.75,
      "endTime": 32.75,
      "velocity": 90.0
    },
    {
      "pitch": 60,
      "startTime": 15.75,
      "endTime": 32.75,
      "velocity": 90.0
    },
    {
      "pitch": 72,
      "startTime": 15.75,
      "endTime": 16.75,
      "velocity": 90.0
    },
    {
      "pitch": 43,
      "startTime": 16.75,
      "endTime": 22.75,
      "velocity": 90.0
    },
    {
      "pitch": 47,
      "startTime": 16.75,
      "endTime": 22.75,
      "velocity": 90.0
    },
    {
      "pitch": 50,
      "startTime": 16.75,
      "endTime": 22.75,
      "velocity": 90.0
    },
    {
      "pitch": 53,
      "startTime": 16.75,
      "endTime": 22.75,
      "velocity": 90.0
    },
    {
      "pitch": 71,
      "startTime": 16.75,
      "endTime": 17.0,
      "velocity": 90.0
    },
    {
      "pitch": 74,
      "startTime": 17.0,
      "endTime": 17.25,
      "velocity": 90.0
    },
    {
      "pitch": 71,
      "startTime": 17.25,
      "endTime": 17.5,
      "velocity": 90.0
    },
    {
      "pitch": 67,
      "startTime": 17.5,
      "endTime": 18.75,
      "velocity": 90.0
    },
    {
      "pitch": 48,
      "startTime": 18.75,
      "endTime": 24.75,
      "velocity": 90.0
    },
    {
      "pitch": 52,
      "startTime": 18.75,
      "endTime": 24.75,
      "velocity": 90.0
    },
    {
      "pitch": 55,
      "startTime": 18.75,
      "endTime": 20.75,
      "velocity": 90.0
    },
    {
      "pitch": 63,
      "startTime": 19.0,
      "endTime": 19.25,
      "velocity": 90.0
    },
    {
      "pitch": 64,
      "startTime": 19.25,
      "endTime": 19.5,
      "velocity": 90.0
    },
    {
      "pitch": 67,
      "startTime": 19.5,
      "endTime": 19.75,
      "velocity": 90.0
    },
    {
      "pitch": 70,
      "startTime": 19.75,
      "endTime": 20.5,
      "velocity": 90.0
    },
    {
      "pitch": 69,
      "startTime": 20.5,
      "endTime": 20.75,
      "velocity": 90.0
    },
    {
      "pitch": 55,
      "startTime": 20.75,
      "endTime": 24.75,
      "velocity": 90.0
    },
    {
      "pitch": 59,
      "startTime": 20.75,
      "endTime": 28.75,
      "velocity": 90.0
    },
    {
      "pitch": 62,
      "startTime": 20.75,
      "endTime": 28.75,
      "velocity": 90.0
    },
    {
      "pitch": 67,
      "startTime": 20.75,
      "endTime": 24.25,
      "velocity": 90.0
    },
    {
      "pitch": 43,
      "startTime": 22.75,
      "endTime": 40.75,
      "velocity": 90.0
    },
    {
      "pitch": 47,
      "startTime": 22.75,
      "endTime": 40.75,
      "velocity": 90.0
    },
    {
      "pitch": 50,
      "startTime": 22.75,
      "endTime": 32.75,
      "velocity": 90.0
    },
    {
      "pitch": 53,
      "startTime": 22.75,
      "endTime": 40.75,
      "velocity": 90.0
    },
    {
      "pitch": 48,
      "startTime": 24.75,
      "endTime": 42.75,
      "velocity": 90.0
    },
    {
      "pitch": 52,
      "startTime": 24.75,
      "endTime": 42.75,
      "velocity": 90.0
    },
    {
      "pitch": 55,
      "startTime": 24.75,
      "endTime": 28.75,
      "velocity": 90.0
    },
    {
      "pitch": 64,
      "startTime": 25.0,
      "endTime": 25.25,
      "velocity": 90.0
    },
    {
      "pitch": 67,
      "startTime": 25.25,
      "endTime": 25.5,
      "velocity": 90.0
    },
    {
      "pitch": 69,
      "startTime": 25.5,
      "endTime": 26.75,
      "velocity": 90.0
    },
    {
      "pitch": 64,
      "startTime": 27.0,
      "endTime": 27.25,
      "velocity": 90.0
    },
    {
      "pitch": 67,
      "startTime": 27.25,
      "endTime": 27.5,
      "velocity": 90.0
    },
    {
      "pitch": 69,
      "startTime": 27.5,
      "endTime": 27.75,
      "velocity": 90.0
    },
    {
      "pitch": 70,
      "startTime": 27.75,
      "endTime": 28.5,
      "velocity": 90.0
    },
    {
      "pitch": 69,
      "startTime": 28.5,
      "endTime": 28.75,
      "velocity": 90.0
    },
    {
      "pitch": 55,
      "startTime": 28.75,
      "endTime": 36.75,
      "velocity": 90.0
    },
    {
      "pitch": 59,
      "startTime": 28.75,
      "endTime": 36.75,
      "velocity": 90.0
    },
    {
      "pitch": 62,
      "startTime": 28.75,
      "endTime": 34.75,
      "velocity": 90.0
    },
    {
      "pitch": 67,
      "startTime": 28.75,
      "endTime": 31.75,
      "velocity": 90.0
    },
    {
      "pitch": 50,
      "startTime": 32.75,
      "endTime": 34.75,
      "velocity": 90.0
    },
    {
      "pitch": 54,
      "startTime": 32.75,
      "endTime": 34.75,
      "velocity": 90.0
    },
    {
      "pitch": 57,
      "startTime": 32.75,
      "endTime": 56.75,
      "velocity": 90.0
    },
    {
      "pitch": 60,
      "startTime": 32.75,
      "endTime": 34.75,
      "velocity": 90.0
    },
    {
      "pitch": 66,
      "startTime": 32.75,
      "endTime": 33.0,
      "velocity": 90.0
    },
    {
      "pitch": 69,
      "startTime": 33.0,
      "endTime": 33.25,
      "velocity": 90.0
    },
    {
      "pitch": 66,
      "startTime": 33.25,
      "endTime": 33.5,
      "velocity": 90.0
    },
    {
      "pitch": 62,
      "startTime": 33.5,
      "endTime": 34.75,
      "velocity": 90.0
    },
    {
      "pitch": 50,
      "startTime": 34.75,
      "endTime": 40.75,
      "velocity": 90.0
    },
    {
      "pitch": 54,
      "startTime": 34.75,
      "endTime": 56.75,
      "velocity": 90.0
    },
    {
      "pitch": 58,
      "startTime": 34.75,
      "endTime": 58.75,
      "velocity": 90.0
    },
    {
      "pitch": 60,
      "startTime": 34.75,
      "endTime": 56.75,
      "velocity": 90.0
    },
    {
      "pitch": 70,
      "startTime": 35.25,
      "endTime": 35.5,
      "velocity": 90.0
    },
    {
      "pitch": 70,
      "startTime": 35.5,
      "endTime": 35.75,
      "velocity": 90.0
    },
    {
      "pitch": 70,
      "startTime": 35.75,
      "endTime": 36.5,
      "velocity": 90.0
    },
    {
      "pitch": 69,
      "startTime": 36.5,
      "endTime": 36.75,
      "velocity": 90.0
    },
    {
      "pitch": 55,
      "startTime": 36.75,
      "endTime": 42.75,
      "velocity": 90.0
    },
    {
      "pitch": 59,
      "startTime": 36.75,
      "endTime": 44.75,
      "velocity": 90.0
    },
    {
      "pitch": 62,
      "startTime": 36.75,
      "endTime": 44.75,
      "velocity": 90.0
    },
    {
      "pitch": 67,
      "startTime": 36.75,
      "endTime": 39.75,
      "velocity": 90.0
    },
    {
      "pitch": 43,
      "startTime": 40.75,
      "endTime": 46.75,
      "velocity": 90.0
    },
    {
      "pitch": 47,
      "startTime": 40.75,
      "endTime": 46.75,
      "velocity": 90.0
    },
    {
      "pitch": 50,
      "startTime": 40.75,
      "endTime": 46.75,
      "velocity": 90.0
    },
    {
      "pitch": 53,
      "startTime": 40.75,
      "endTime": 46.75,
      "velocity": 90.0
    },
    {
      "pitch": 71,
      "startTime": 40.75,
      "endTime": 41.0,
      "velocity": 90.0
    },
    {
      "pitch": 74,
      "startTime": 41.0,
      "endTime": 41.25,
      "velocity": 90.0
    },
    {
      "pitch": 71,
      "startTime": 41.25,
      "endTime": 41.5,
      "velocity": 90.0
    },
    {
      "pitch": 67,
      "startTime": 41.5,
      "endTime": 42.0,
      "velocity": 90.0
    },
    {
      "pitch": 67,
      "startTime": 42.0,
      "endTime": 42.75,
      "velocity": 90.0
    },
    {
      "pitch": 48,
      "startTime": 42.75,
      "endTime": 48.75,
      "velocity": 90.0
    },
    {
      "pitch": 52,
      "startTime": 42.75,
      "endTime": 48.75,
      "velocity": 90.0
    },
    {
      "pitch": 55,
      "startTime": 42.75,
      "endTime": 44.75,
      "velocity": 90.0
    },
    {
      "pitch": 63,
      "startTime": 43.0,
      "endTime": 43.25,
      "velocity": 90.0
    },
    {
      "pitch": 64,
      "startTime": 43.25,
      "endTime": 43.5,
      "velocity": 90.0
    },
    {
      "pitch": 67,
      "startTime": 43.5,
      "endTime": 43.75,
      "velocity": 90.0
    },
    {
      "pitch": 70,
      "startTime": 43.75,
      "endTime": 44.5,
      "velocity": 90.0
    },
    {
      "pitch": 69,
      "startTime": 44.5,
      "endTime": 44.75,
      "velocity": 90.0
    },
    {
      "pitch": 55,
      "startTime": 44.75,
      "endTime": 48.75,
      "velocity": 90.0
    },
    {
      "pitch": 59,
      "startTime": 44.75,
      "endTime": 52.75,
      "velocity": 90.0
    },
    {
      "pitch": 62,
      "startTime": 44.75,
      "endTime": 52.75,
      "velocity": 90.0
    },
    {
      "pitch": 67,
      "startTime": 44.75,
      "endTime": 47.25,
      "velocity": 90.0
    },
    {
      "pitch": 43,
      "startTime": 46.75,
      "endTime": 97.25,
      "velocity": 90.0
    },
    {
      "pitch": 47,
      "startTime": 46.75,
      "endTime": 97.25,
      "velocity": 90.0
    },
    {
      "pitch": 50,
      "startTime": 46.75,
      "endTime": 56.75,
      "velocity": 90.0
    },
    {
      "pitch": 53,
      "startTime": 46.75,
      "endTime": 120.75,
      "velocity": 90.0
    },
    {
      "pitch": 48,
      "startTime": 48.75,
      "endTime": 66.75,
      "velocity": 90.0
    },
    {
      "pitch": 52,
      "startTime": 48.75,
      "endTime": 68.0,
      "velocity": 90.0
    },
    {
      "pitch": 55,
      "startTime": 48.75,
      "endTime": 52.75,
      "velocity": 90.0
    },
    {
      "pitch": 64,
      "startTime": 49.0,
      "endTime": 49.25,
      "velocity": 90.0
    },
    {
      "pitch": 67,
      "startTime": 49.25,
      "endTime": 49.5,
      "velocity": 90.0
    },
    {
      "pitch": 69,
      "startTime": 49.5,
      "endTime": 50.0,
      "velocity": 90.0
    },
    {
      "pitch": 69,
      "startTime": 50.0,
      "endTime": 50.75,
      "velocity": 90.0
    },
    {
      "pitch": 63,
      "startTime": 51.0,
      "endTime": 51.25,
      "velocity": 90.0
    },
    {
      "pitch": 64,
      "startTime": 51.25,
      "endTime": 51.5,
      "velocity": 90.0
    },
    {
      "pitch": 67,
      "startTime": 51.5,
      "endTime": 51.75,
      "velocity": 90.0
    },
    {
      "pitch": 70,
      "startTime": 51.75,
      "endTime": 52.5,
      "velocity": 90.0
    },
    {
      "pitch": 69,
      "startTime": 52.5,
      "endTime": 52.75,
      "velocity": 90.0
    },
    {
      "pitch": 55,
      "startTime": 52.75,
      "endTime": 60.75,
      "velocity": 90.0
    },
    {
      "pitch": 59,
      "startTime": 52.75,
      "endTime": 60.75,
      "velocity": 90.0
    },
    {
      "pitch": 62,
      "startTime": 52.75,
      "endTime": 58.75,
      "velocity": 90.0
    },
    {
      "pitch": 67,
      "startTime": 52.75,
      "endTime": 55.75,
      "velocity": 90.0
    },
    {
      "pitch": 50,
      "startTime": 56.75,
      "endTime": 58.75,
      "velocity": 90.0
    },
    {
      "pitch": 54,
      "startTime": 56.75,
      "endTime": 58.75,
      "velocity": 90.0
    },
    {
      "pitch": 57,
      "startTime": 56.75,
      "endTime": 68.75,
      "velocity": 90.0
    },
    {
      "pitch": 60,
      "startTime": 56.75,
      "endTime": 58.75,
      "velocity": 90.0
    },
    {
      "pitch": 66,
      "startTime": 56.75,
      "endTime": 57.0,
      "velocity": 90.0
    },
    {
      "pitch": 69,
      "startTime": 57.0,
      "endTime": 57.25,
      "velocity": 90.0
    },
    {
      "pitch": 66,
      "startTime": 57.25,
      "endTime": 57.5,
      "velocity": 90.0
    },
    {
      "pitch": 62,
      "startTime": 57.5,
      "endTime": 58.75,
      "velocity": 90.0
    },
    {
      "pitch": 50,
      "startTime": 58.75,
      "endTime": 68.75,
      "velocity": 90.0
    },
    {
      "pitch": 54,
      "startTime": 58.75,
      "endTime": 68.75,
      "velocity": 90.0
    },
    {
      "pitch": 58,
      "startTime": 58.75,
      "endTime": 64.75,
      "velocity": 90.0
    },
    {
      "pitch": 60,
      "startTime": 58.75,
      "endTime": 68.75,
      "velocity": 90.0
    },
    {
      "pitch": 70,
      "startTime": 59.25,
      "endTime": 59.5,
      "velocity": 90.0
    },
    {
      "pitch": 70,
      "startTime": 59.5,
      "endTime": 59.75,
      "velocity": 90.0
    },
    {
      "pitch": 70,
      "startTime": 59.75,
      "endTime": 60.5,
      "velocity": 90.0
    },
    {
      "pitch": 69,
      "startTime": 60.5,
      "endTime": 60.75,
      "velocity": 90.0
    },
    {
      "pitch": 55,
      "startTime": 60.75,
      "endTime": 64.75,
      "velocity": 90.0
    },
    {
      "pitch": 59,
      "startTime": 60.75,
      "endTime": 96.75,
      "velocity": 90.0
    },
    {
      "pitch": 62,
      "startTime": 60.75,
      "endTime": 64.75,
      "velocity": 90.0
    },
    {
      "pitch": 67,
      "startTime": 60.75,
      "endTime": 63.75,
      "velocity": 90.0
    },
    {
      "pitch": 74,
      "startTime": 64.0,
      "endTime": 64.25,
      "velocity": 90.0
    },
    {
      "pitch": 74,
      "startTime": 64.25,
      "endTime": 64.5,
      "velocity": 90.0
    },
    {
      "pitch": 74,
      "startTime": 64.5,
      "endTime": 64.75,
      "velocity": 90.0
    }
  ],
  "totalTime": 64.75,
  "tempos": [],
  "timeSignatures": []
}