{
  "notes": [
    {
      "pitch": 72,
      "startTime": 0.0,
      "endTime": 0.25,
      "velocity": 0.7086614173228346
    },
    {
      "pitch": 72,
      "startTime": 0.25,
      "endTime": 2.0,
      "velocity": 0.7086614173228346
    },
    {
      "pitch": 72,
      "startTime": 2.25,
      "endTime": 2.5,
      "velocity": 0.7086614173228346
    },
    {
      "pitch": 72,
      "startTime": 2.5,
      "endTime": 2.75,
      "velocity": 0.7086614173228346
    },
    {
      "pitch": 73,
      "startTime": 2.75,
      "endTime": 3.0,
      "velocity": 0.7086614173228346
    },
    {
      "pitch": 74,
      "startTime": 3.0,
      "endTime": 3.25,
      "velocity": 0.7086614173228346
    },
    {
      "pitch": 69,
      "startTime": 3.25,
      "endTime": 4.0,
      "velocity": 0.7086614173228346
    },
    {
      "pitch": 67,
      "startTime": 4.0,
      "endTime": 5.0,
      "velocity": 0.7086614173228346
    },
    {
      "pitch": 69,
      "startTime": 5.0,
      "endTime": 6.0,
      "velocity": 0.7086614173228346
    },
    {
      "pitch": 74,
      "startTime": 6.0,
      "endTime": 7.0,
      "velocity": 0.7086614173228346
    },
    {
      "pitch": 72,
      "startTime": 7.0,
      "endTime": 8.0,
      "velocity": 0.7086614173228346
    },
    {
      "pitch": 71,
      "startTime": 8.0,
      "endTime": 8.25,
      "velocity": 0.7086614173228346
    },
    {
      "pitch": 74,
      "startTime": 8.25,
      "endTime": 8.5,
      "velocity": 0.7086614173228346
    },
    {
      "pitch": 71,
      "startTime": 8.5,
      "endTime": 8.75,
      "velocity": 0.7086614173228346
    },
    {
      "pitch": 67,
      "startTime": 8.75,
      "endTime": 10.0,
      "velocity": 0.7086614173228346
    },
    {
      "pitch": 63,
      "startTime": 10.25,
      "endTime": 10.5,
      "velocity": 0.7086614173228346
    },
    {
      "pitch": 64,
      "startTime": 10.5,
      "endTime": 10.75,
      "velocity": 0.7086614173228346
    },
    {
      "pitch": 67,
      "startTime": 10.75,
      "endTime": 11.0,
      "velocity": 0.7086614173228346
    },
    {
      "pitch": 70,
      "startTime": 11.0,
      "endTime": 11.75,
      "velocity": 0.7086614173228346
    },
    {
      "pitch": 69,
      "startTime": 11.75,
      "endTime": 12.0,
      "velocity": 0.7086614173228346
    },
    {
      "pitch": 67,
      "startTime": 12.0,
      "endTime": 15.5,
      "velocity": 0.7086614173228346
    }
  ],
  "totalTime": 15.5,
  "tempos": [
    {
      "time": 0.0,
      "qpm": 120.0
    }
  ],
  "timeSignatures": [
    {
      "time": 0.0,
      "numerator": 4,
      "denominator": 4
    }
  ]
}