{
  "notes": [
    {
      "pitch": 43,
      "startTime": 0.0,
      "endTime": 6.0,
      "velocity": 90.0
    },
    {
      "pitch": 47,
      "startTime": 0.0,
      "endTime": 6.0,
      "velocity": 90.0
    },
    {
      "pitch": 50,
      "startTime": 0.0,
      "endTime": 6.0,
      "velocity": 90.0
    },
    {
      "pitch": 53,
      "startTime": 0.0,
      "endTime": 6.0,
      "velocity": 90.0
    },
    {
      "pitch": 71,
      "startTime": 0.0,
      "endTime": 0.25,
      "velocity": 90.0
    },
    {
      "pitch": 74,
      "startTime": 0.25,
      "endTime": 0.5,
      "velocity": 90.0
    },
    {
      "pitch": 71,
      "startTime": 0.5,
      "endTime": 0.75,
      "velocity": 90.0
    },
    {
      "pitch": 67,
      "startTime": 0.75,
      "endTime": 1.25,
      "velocity": 90.0
    },
    {
      "pitch": 67,
      "startTime": 1.25,
      "endTime": 2.0,
      "velocity": 90.0
    },
    {
      "pitch": 48,
      "startTime": 2.0,
      "endTime": 8.0,
      "velocity": 90.0
    },
    {
      "pitch": 52,
      "startTime": 2.0,
      "endTime": 8.0,
      "velocity": 90.0
    },
    {
      "pitch": 55,
      "startTime": 2.0,
      "endTime": 4.0,
      "velocity": 90.0
    },
    {
      "pitch": 63,
      "startTime": 2.25,
      "endTime": 2.5,
      "velocity": 90.0
    },
    {
      "pitch": 64,
      "startTime": 2.5,
      "endTime": 2.75,
      "velocity": 90.0
    },
    {
      "pitch": 67,
      "startTime": 2.75,
      "endTime": 3.0,
      "velocity": 90.0
    },
    {
      "pitch": 70,
      "startTime": 3.0,
      "endTime": 3.75,
      "velocity": 90.0
    },
    {
      "pitch": 69,
      "startTime": 3.75,
      "endTime": 4.0,
      "velocity": 90.0
    },
    {
      "pitch": 55,
      "startTime": 4.0,
      "endTime": 8.0,
      "velocity": 90.0
    },
    {
      "pitch": 59,
      "startTime": 4.0,
      "endTime": 12.0,
      "velocity": 90.0
    },
    {
      "pitch": 62,
      "startTime": 4.0,
      "endTime": 12.0,
      "velocity": 90.0
    },
    {
      "pitch": 67,
      "startTime": 4.0,
      "endTime": 6.5,
      "velocity": 90.0
    },
    {
      "pitch": 43,
      "startTime": 6.0,
      "endTime": 56.5,
      "velocity": 90.0
    },
    {
      "pitch": 47,
      "startTime": 6.0,
      "endTime": 56.5,
      "velocity": 90.0
    },
    {
      "pitch": 50,
      "startTime": 6.0,
      "endTime": 16.0,
      "velocity": 90.0
    },
    {
      "pitch": 53,
      "startTime": 6.0,
      "endTime": 80.0,
      "velocity": 90.0
    },
    {
      "pitch": 48,
      "startTime": 8.0,
      "endTime": 26.0,
      "velocity": 90.0
    },
    {
      "pitch": 52,
      "startTime": 8.0,
      "endTime": 27.25,
      "velocity": 90.0
    },
    {
      "pitch": 55,
      "startTime": 8.0,
      "endTime": 12.0,
      "velocity": 90.0
    },
    {
      "pitch": 64,
      "startTime": 8.25,
      "endTime": 8.5,
      "velocity": 90.0
    },
    {
      "pitch": 67,
      "startTime": 8.5,
      "endTime": 8.75,
      "velocity": 90.0
    },
    {
      "pitch": 69,
      "startTime": 8.75,
      "endTime": 9.25,
      "velocity": 90.0
    },
    {
      "pitch": 69,
      "startTime": 9.25,
      "endTime": 10.0,
      "velocity": 90.0
    },
    {
      "pitch": 63,
      "startTime": 10.25,
      "endTime": 10.5,
      "velocity": 90.0
    },
    {
      "pitch": 64,
      "startTime": 10.5,
      "endTime": 10.75,
      "velocity": 90.0
    },
    {
      "pitch": 67,
      "startTime": 10.75,
      "endTime": 11.0,
      "velocity": 90.0
    },
    {
      "pitch": 70,
      "startTime": 11.0,
      "endTime": 11.75,
      "velocity": 90.0
    },
    {
      "pitch": 69,
      "startTime": 11.75,
      "endTime": 12.0,
      "velocity": 90.0
    },
    {
      "pitch": 55,
      "startTime": 12.0,
      "endTime": 20.0,
      "velocity": 90.0
    },
    {
      "pitch": 59,
      "startTime": 12.0,
      "endTime": 20.0,
      "velocity": 90.0
    },
    {
      "pitch": 62,
      "startTime": 12.0,
      "endTime": 18.0,
      "velocity": 90.0
    },
    {
      "pitch": 67,
      "startTime": 12.0,
      "endTime": 15.0,
      "velocity": 90.0
    }
  ],
  "totalTime": 16.0,
  "tempos": [],
  "timeSignatures": []
}