{
  "notes": [
    {
      "pitch": 72,
      "startTime": 0.0,
      "endTime": 0.25,
      "velocity": 0.7086614173228346
    },
    {
      "pitch": 72,
      "startTime": 0.25,
      "endTime": 0.75,
      "velocity": 0.7086614173228346
    },
    {
      "pitch": 72,
      "startTime": 0.75,
      "endTime": 2.0,
      "velocity": 0.7086614173228346
    },
    {
      "pitch": 72,
      "startTime": 2.5,
      "endTime": 2.75,
      "velocity": 0.7086614173228346
    },
    {
      "pitch": 73,
      "startTime": 2.75,
      "endTime": 3.0,
      "velocity": 0.7086614173228346
    },
    {
      "pitch": 74,
      "startTime": 3.0,
      "endTime": 3.5,
      "velocity": 0.7086614173228346
    },
    {
      "pitch": 69,
      "startTime": 3.5,
      "endTime": 4.0,
      "velocity": 0.7086614173228346
    },
    {
      "pitch": 67,
      "startTime": 4.0,
      "endTime": 5.0,
      "velocity": 0.7086614173228346
    },
    {
      "pitch": 69,
      "startTime": 5.0,
      "endTime": 6.0,
      "velocity": 0.7086614173228346
    },
    {
      "pitch": 74,
      "startTime": 6.0,
      "endTime": 7.5,
      "velocity": 0.7086614173228346
    },
    {
      "pitch": 70,
      "startTime": 7.5,
      "endTime": 7.75,
      "velocity": 0.7086614173228346
    },
    {
      "pitch": 71,
      "startTime": 7.75,
      "endTime": 8.0,
      "velocity": 0.7086614173228346
    },
    {
      "pitch": 67,
      "startTime": 8.0,
      "endTime": 8.5,
      "velocity": 0.7086614173228346
    },
    {
      "pitch": 70,
      "startTime": 8.5,
      "endTime": 8.75,
      "velocity": 0.7086614173228346
    },
    {
      "pitch": 71,
      "startTime": 8.75,
      "endTime": 9.0,
      "velocity": 0.7086614173228346
    },
    {
      "pitch": 67,
      "startTime": 9.0,
      "endTime": 9.5,
      "velocity": 0.7086614173228346
    },
    {
      "pitch": 70,
      "startTime": 9.5,
      "endTime": 9.75,
      "velocity": 0.7086614173228346
    },
    {
      "pitch": 71,
      "startTime": 9.75,
      "endTime": 10.0,
      "velocity": 0.7086614173228346
    },
    {
      "pitch": 67,
      "startTime": 10.0,
      "endTime": 10.5,
      "velocity": 0.7086614173228346
    },
    {
      "pitch": 70,
      "startTime": 10.5,
      "endTime": 10.75,
      "velocity": 0.7086614173228346
    },
    {
      "pitch": 71,
      "startTime": 10.75,
      "endTime": 11.0,
      "velocity": 0.7086614173228346
    },
    {
      "pitch": 67,
      "startTime": 11.0,
      "endTime": 11.25,
      "velocity": 0.7086614173228346
    },
    {
      "pitch": 70,
      "startTime": 11.25,
      "endTime": 11.5,
      "velocity": 0.7086614173228346
    },
    {
      "pitch": 71,
      "startTime": 11.5,
      "endTime": 11.75,
      "velocity": 0.7086614173228346
    },
    {
      "pitch": 67,
      "startTime": 11.75,
      "endTime": 15.5,
      "velocity": 0.7086614173228346
    }
  ],
  "totalTime": 15.5,
  "tempos": [],
  "timeSignatures": []
}