{
  "notes": [
    {
      "pitch": 55,
      "startTime": 0.0,
      "endTime": 1.0,
      "velocity": 90.0
    },
    {
      "pitch": 59,
      "startTime": 0.0,
      "endTime": 1.0,
      "velocity": 90.0
    },
    {
      "pitch": 62,
      "startTime": 0.0,
      "endTime": 1.0,
      "velocity": 90.0
    },
    {
      "pitch": 67,
      "startTime": 0.0,
      "endTime": 0.5,
      "velocity": 90.0
    },
    {
      "pitch": 43,
      "startTime": 0.5,
      "endTime": 1.5,
      "velocity": 90.0
    },
    {
      "pitch": 47,
      "startTime": 0.5,
      "endTime": 1.5,
      "velocity": 90.0
    },
    {
      "pitch": 50,
      "startTime": 0.5,
      "endTime": 1.5,
      "velocity": 90.0
    },
    {
      "pitch": 52,
      "startTime": 0.5,
      "endTime": 1.5,
      "velocity": 90.0
    },
    {
      "pitch": 70,
      "startTime": 0.5,
      "endTime": 0.75,
      "velocity": 90.0
    },
    {
      "pitch": 71,
      "startTime": 0.75,
      "endTime": 1.0,
      "velocity": 90.0
    },
    {
      "pitch": 55,
      "startTime": 1.0,
      "endTime": 2.0,
      "velocity": 90.0
    },
    {
      "pitch": 59,
      "startTime": 1.0,
      "endTime": 2.0,
      "velocity": 90.0
    },
    {
      "pitch": 62,
      "startTime": 1.0,
      "endTime": 2.0,
      "velocity": 90.0
    },
    {
      "pitch": 67,
      "startTime": 1.0,
      "endTime": 1.5,
      "velocity": 90.0
    },
    {
      "pitch": 43,
      "startTime": 1.5,
      "endTime": 2.5,
      "velocity": 90.0
    },
    {
      "pitch": 47,
      "startTime": 1.5,
      "endTime": 2.5,
      "velocity": 90.0
    },
    {
      "pitch": 50,
      "startTime": 1.5,
      "endTime": 2.5,
      "velocity": 90.0
    },
    {
      "pitch": 52,
      "startTime": 1.5,
      "endTime": 2.5,
      "velocity": 90.0
    },
    {
      "pitch": 70,
      "startTime": 1.5,
      "endTime": 1.75,
      "velocity": 90.0
    },
    {
      "pitch": 71,
      "startTime": 1.75,
      "endTime": 2.0,
      "velocity": 90.0
    },
    {
      "pitch": 55,
      "startTime": 2.0,
      "endTime": 3.0,
      "velocity": 90.0
    },
    {
      "pitch": 59,
      "startTime": 2.0,
      "endTime": 3.0,
      "velocity": 90.0
    },
    {
      "pitch": 62,
      "startTime": 2.0,
      "endTime": 3.0,
      "velocity": 90.0
    },
    {
      "pitch": 67,
      "startTime": 2.0,
      "endTime": 2.5,
      "velocity": 90.0
    },
    {
      "pitch": 43,
      "startTime": 2.5,
      "endTime": 3.5,
      "velocity": 90.0
    },
    {
      "pitch": 47,
      "startTime": 2.5,
      "endTime": 3.5,
      "velocity": 90.0
    },
    {
      "pitch": 50,
      "startTime": 2.5,
      "endTime": 3.5,
      "velocity": 90.0
    },
    {
      "pitch": 52,
      "startTime": 2.5,
      "endTime": 3.5,
      "velocity": 90.0
    },
    {
      "pitch": 70,
      "startTime": 2.5,
      "endTime": 2.75,
      "velocity": 90.0
    },
    {
      "pitch": 71,
      "startTime": 2.75,
      "endTime": 3.0,
      "velocity": 90.0
    },
    {
      "pitch": 55,
      "startTime": 3.0,
      "endTime": 6.0,
      "velocity": 90.0
    },
    {
      "pitch": 59,
      "startTime": 3.0,
      "endTime": 6.0,
      "velocity": 90.0
    },
    {
      "pitch": 62,
      "startTime": 3.0,
      "endTime": 6.0,
      "velocity": 90.0
    },
    {
      "pitch": 67,
      "startTime": 3.0,
      "endTime": 3.25,
      "velocity": 90.0
    },
    {
      "pitch": 70,
      "startTime": 3.25,
      "endTime": 3.5,
      "velocity": 90.0
    },
    {
      "pitch": 43,
      "startTime": 3.5,
      "endTime": 4.0,
      "velocity": 90.0
    },
    {
      "pitch": 47,
      "startTime": 3.5,
      "endTime": 4.0,
      "velocity": 90.0
    },
    {
      "pitch": 50,
      "startTime": 3.5,
      "endTime": 4.0,
      "velocity": 90.0
    },
    {
      "pitch": 52,
      "startTime": 3.5,
      "endTime": 4.0,
      "velocity": 90.0
    },
    {
      "pitch": 71,
      "startTime": 3.5,
      "endTime": 3.75,
      "velocity": 90.0
    },
    {
      "pitch": 67,
      "startTime": 3.75,
      "endTime": 7.5,
      "velocity": 90.0
    },
    {
      "pitch": 43,
      "startTime": 4.0,
      "endTime": 12.0,
      "velocity": 90.0
    },
    {
      "pitch": 47,
      "startTime": 4.0,
      "endTime": 12.0,
      "velocity": 90.0
    },
    {
      "pitch": 50,
      "startTime": 4.0,
      "endTime": 12.0,
      "velocity": 90.0
    },
    {
      "pitch": 52,
      "startTime": 4.0,
      "endTime": 8.0,
      "velocity": 90.0
    },
    {
      "pitch": 55,
      "startTime": 6.0,
      "endTime": 8.0,
      "velocity": 90.0
    },
    {
      "pitch": 59,
      "startTime": 6.0,
      "endTime": 14.0,
      "velocity": 90.0
    },
    {
      "pitch": 62,
      "startTime": 6.0,
      "endTime": 14.0,
      "velocity": 90.0
    },
    {
      "pitch": 70,
      "startTime": 7.5,
      "endTime": 7.75,
      "velocity": 90.0
    },
    {
      "pitch": 71,
      "startTime": 7.75,
      "endTime": 8.0,
      "velocity": 90.0
    },
    {
      "pitch": 48,
      "startTime": 8.0,
      "endTime": 26.0,
      "velocity": 90.0
    },
    {
      "pitch": 52,
      "startTime": 8.0,
      "endTime": 12.0,
      "velocity": 90.0
    },
    {
      "pitch": 55,
      "startTime": 8.0,
      "endTime": 14.0,
      "velocity": 90.0
    },
    {
      "pitch": 69,
      "startTime": 8.0,
      "endTime": 8.5,
      "velocity": 90.0
    },
    {
      "pitch": 67,
      "startTime": 8.5,
      "endTime": 8.75,
      "velocity": 90.0
    },
    {
      "pitch": 64,
      "startTime": 8.75,
      "endTime": 9.0,
      "velocity": 90.0
    },
    {
      "pitch": 67,
      "startTime": 9.0,
      "endTime": 9.5,
      "velocity": 90.0
    },
    {
      "pitch": 69,
      "startTime": 9.5,
      "endTime": 9.75,
      "velocity": 90.0
    },
    {
      "pitch": 70,
      "startTime": 9.75,
      "endTime": 10.0,
      "velocity": 90.0
    },
    {
      "pitch": 69,
      "startTime": 10.0,
      "endTime": 10.5,
      "velocity": 90.0
    },
    {
      "pitch": 67,
      "startTime": 10.5,
      "endTime": 10.75,
      "velocity": 90.0
    },
    {
      "pitch": 64,
      "startTime": 10.75,
      "endTime": 11.0,
      "velocity": 90.0
    },
    {
      "pitch": 67,
      "startTime": 11.0,
      "endTime": 11.25,
      "velocity": 90.0
    },
    {
      "pitch": 70,
      "startTime": 11.25,
      "endTime": 11.5,
      "velocity": 90.0
    },
    {
      "pitch": 71,
      "startTime": 11.5,
      "endTime": 11.75,
      "velocity": 90.0
    },
    {
      "pitch": 67,
      "startTime": 11.75,
      "endTime": 15.5,
      "velocity": 90.0
    },
    {
      "pitch": 43,
      "startTime": 12.0,
      "endTime": 24.0,
      "velocity": 90.0
    },
    {
      "pitch": 47,
      "startTime": 12.0,
      "endTime": 24.0,
      "velocity": 90.0
    },
    {
      "pitch": 50,
      "startTime": 12.0,
      "endTime": 16.0,
      "velocity": 90.0
    },
    {
      "pitch": 52,
      "startTime": 12.0,
      "endTime": 26.0,
      "velocity": 90.0
    },
    {
      "pitch": 55,
      "startTime": 14.0,
      "endTime": 16.0,
      "velocity": 90.0
    },
    {
      "pitch": 59,
      "startTime": 14.0,
      "endTime": 16.0,
      "velocity": 90.0
    },
    {
      "pitch": 62,
      "startTime": 14.0,
      "endTime": 17.25,
      "velocity": 90.0
    },
    {
      "pitch": 70,
      "startTime": 15.5,
      "endTime": 15.75,
      "velocity": 90.0
    },
    {
      "pitch": 71,
      "startTime": 15.75,
      "endTime": 16.0,
      "velocity": 90.0
    }
  ],
  "totalTime": 16.0,
  "tempos": [],
  "timeSignatures": []
}